<svg version="1.1" id="Capa_1" xmlns="http://www.w3.org/2000/svg" x="0" y="0" viewBox="0 0 512 512" xml:space="preserve"><style>.st2{fill:#ffc776}.st5{fill:#283592}.st7{fill:#303f9e}</style><circle cx="256" cy="256" r="256" fill="#b01968"/><path d="M327.9 79.8L123.8 244.6l242.5 242.5c84-40.1 142.7-124.7 145.6-223.3l-184-184z" fill="#9b1662"/><path class="st2" d="M387.5 352.3l-83.4-10.7c-10.2-1.3-17.9-10-17.9-20.4v-37.8h-60.3v37.8c0 10.3-7.7 19-17.9 20.4l-83.4 10.7c-25.5 3.3-44.7 25-44.7 50.8v38.7C125.7 485.3 187.7 512 256 512s130.3-26.7 176.2-70.3V403c0-25.7-19.2-47.4-44.7-50.7z"/><path d="M387.5 352.3l-83.4-10.7c-10.2-1.3-17.9-10-17.9-20.4v-37.8H256V512c68.3 0 130.3-26.7 176.2-70.3V403c0-25.7-19.2-47.4-44.7-50.7z" fill="#ffbb61"/><path d="M305.2 299.1l-14.2 7.6c-21.8 11.7-48 11.7-69.7 0l-14.2-7.6c-26.2-14.1-42.5-41.4-42.5-71.1v-87.4h183V228c0 29.7-16.3 57.1-42.4 71.1z" fill="#fed080"/><path class="st2" d="M347.6 140.7H256v174.9c12.1 0 24.1-2.9 35-8.8l14.2-7.6c26.2-14.1 42.5-41.4 42.5-71.1l-.1-87.4z"/><path class="st5" d="M387.5 352.3l-70.6-9c-15.2 16.2-36.9 26.4-60.9 26.4s-45.7-10.2-60.9-26.4l-70.6 9c-25.5 3.3-44.7 25-44.7 50.8v38.7C125.7 485.3 187.7 512 256 512s130.3-26.7 176.2-70.3V403c0-25.7-19.2-47.4-44.7-50.7z"/><path d="M256 512c68.3 0 130.3-26.7 176.2-70.3V403c0-25.7-19.1-47.5-44.7-50.8l-70.6-9c-15.2 16.2-36.9 26.4-60.9 26.4V512z" fill="#1a237e"/><path class="st7" d="M251.7 369.6c-22.3-1.1-42.2-11-56.5-26.3l-30.5 3.9 48.3 62.3 43.1-39.7c-1.6-.1-3-.2-4.4-.2z"/><path class="st5" d="M256 369.7l43.1 39.7 48.3-62.3-30.5-3.9c-14.3 15.3-34.3 25.1-56.5 26.3-1.5.1-2.9.2-4.4.2z"/><path d="M360.3 167.8c0-57.6-46.7-104.3-104.3-104.3s-104.3 46.7-104.3 104.3v76.9h18.7v-51.1c21.7-25 51.8-41.1 85.6-41.1s63.9 16.1 85.6 41.1v51.1h18.7v-76.9z" fill="#fec007"/><path d="M277.1 244.5c-2.4 0-4.3 1.9-4.3 4.3 0 8.8-6.7 16-15.3 16.8-.5 0-1 .1-1.6.1-9.3 0-16.8-7.6-16.8-16.8 0-2.4-1.9-4.3-4.3-4.3s-4.3 1.9-4.3 4.3c0 14 11.4 25.5 25.5 25.5.5 0 1 0 1.6-.1 13.3-.8 23.9-11.9 23.9-25.4-.1-2.5-2-4.4-4.4-4.4z" fill="#fd8469"/><path d="M366.6 225.9h-21.5v-62.2c0-49.1-40-89.1-89.1-89.1s-89.1 40-89.1 89.1v62.2h-21.4v-62.2c0-61 49.6-110.6 110.6-110.6s110.6 49.6 110.6 110.6l-.1 62.2z" fill="#37474f"/><path d="M256 53.2v21.4c49.1 0 89.1 40 89.1 89.1v62.2h21.4v-62.2C366.6 102.8 317 53.2 256 53.2zM304.4 293h-61v-21.5h61c21.9 0 39.8-17.9 39.8-39.8h21.5c-.1 33.8-27.5 61.3-61.3 61.3z" fill="#263238"/><path d="M167.6 252.2h-23.5c-17.3 0-31.4-14-31.4-31.4v-36.5c0-17.3 14-31.4 31.4-31.4h23.5v99.3z" fill="#3f51b4"/><path class="st7" d="M367.8 252.2h-23.5V153h23.5c17.3 0 31.4 14 31.4 31.4v36.5c0 17.2-14 31.3-31.4 31.3z"/><path d="M250.3 305.2H225c-12.5 0-22.6-10.1-22.6-22.6 0-12.5 10.1-22.6 22.6-22.6h25.3c12.5 0 22.6 10.1 22.6 22.6 0 12.4-10.1 22.6-22.6 22.6z" fill="#dc2c00"/><path d="M256 260.6v43.8c9.8-2.5 17-11.4 17-21.9-.1-10.5-7.3-19.4-17-21.9z" fill="#b21f02"/><circle cx="219.2" cy="210.4" r="7.8" fill="#59595b"/><circle cx="292.7" cy="210.4" r="7.8" fill="#272525"/></svg>