<svg version="1.1" id="Layer_1" xmlns="http://www.w3.org/2000/svg" x="0" y="0" viewBox="0 0 512 512" xml:space="preserve"><style>.st2{fill:#e6f3ff}.st4{fill:#fed8b2}.st5{fill:#eabe96}.st6{fill:#324a5e}.st7{fill:#2b3b4e}.st8{fill:#b5f1f4}.st9{fill:#84dbff}.st12{fill:#f9b54c}.st17{fill:#fc6f58}.st18{fill:#ffd15d}</style><circle cx="256" cy="256" r="256" fill="#b01968"/><path d="M376.3 482C457 439 512 353.9 512 256c0-4.5-.1-9-.4-13.5L361.1 91.9 197.2 224.4 156.3 245l43.8 43.8-4.9 2.8 43.8 43.8L376.3 482z" fill="#9b1662"/><path class="st2" d="M420.8 369.8H404c-18.9 0-34.3-15.3-34.3-34.3V204.9c0-18.9 15.3-34.3 34.3-34.3h16.8c18.9 0 34.3 15.3 34.3 34.3v130.6c0 18.9-15.3 34.3-34.3 34.3z"/><path d="M420.8 170.7h-10.3v199.1h10.3c18.9 0 34.3-15.3 34.3-34.3V204.9c0-18.9-15.3-34.2-34.3-34.2z" fill="#cfdbe6"/><path class="st4" d="M281.1 319.5v-27.8h-50.2v27.8c0 2.2-1.8 4-4 4h-34.6v96h127.4v-96h-34.6c-2.2.1-4-1.7-4-4z"/><path class="st5" d="M319.7 323.6h-34.6c-2.2 0-4-1.8-4-4v-27.8h-25.7v127.9h64.3v-96.1z"/><path class="st6" d="M211.4 323.6h-26.7c-32.2 0-58.2 26.1-58.2 58.2v95.1c37.8 22.2 81.9 35 128.9 35.1V354.3c-23.2-.2-44-7.5-44-30.7z"/><path class="st7" d="M323 323.6h-26.7c0 23.4-16.9 30.7-40.3 30.7h-.6V512h.6c45.5 0 88.2-11.9 125.2-32.7v-97.5c0-32.2-26-58.2-58.2-58.2z"/><path class="st2" d="M238.8 455.1h34.5L310 323.5h-13.6c0 23.4-16.9 30.7-40.3 30.7s-44.6-7.3-44.6-30.7h-9.3l36.6 131.6z"/><path class="st8" d="M250 352.4v159.5c2 0 4 .1 6 .1s4-.1 6-.1V352.4c-2 .1-4 .1-6 .1s-4.1 0-6-.1z"/><path class="st9" d="M256 352.5h-.6V512h.6c2 0 4-.1 6-.1V352.4c-1.9.1-3.9.1-6 .1z"/><path class="st8" d="M227.6 323.6l28.4 28.9-28.4 28.5-28.5-57.4z"/><path class="st9" d="M284.4 323.6L256 352.5l28.4 28.5 28.5-57.4z"/><path d="M256 417.2V512c4.9 0 9.7-.2 14.5-.5l42.4-93.9-22.4-13.9 22.4-18.2v-63.2h-28.4L256 417.2z" fill="#233444"/><path class="st7" d="M227.6 322.4h-28.4v63.2l22.4 18.2-22.4 13.9 42.4 93.9c4.8.3 9.6.5 14.5.5v-94.8l-28.5-94.9z"/><circle class="st4" cx="172.6" cy="233.4" r="20.1"/><circle class="st5" cx="335.1" cy="233.4" r="20.1"/><path d="M256.1 316.9h-4.5c-41.8 0-75.7-33.9-75.7-75.7v-69.1c0-41.8 33.9-75.7 75.7-75.7h4.5c41.8 0 75.7 33.9 75.7 75.7v69.1c0 41.8-33.9 75.7-75.7 75.7z" fill="#f4e3c3"/><path class="st4" d="M256.1 96.5h-.7V317h.7c41.8 0 75.7-33.9 75.7-75.7v-69.1c0-41.8-33.9-75.7-75.7-75.7z"/><path class="st12" d="M323.6 122.1c-14.9-21.2-39.4-35-67.3-35h-4.9c-45.4 0-82.2 36.8-82.2 82.2v64.3h12.1v-33.9c36.6-3.7 72.6-10.9 104.1-26.7 11.4 13 24.5 24.7 38.9 34.1v26.5h14.1v-64.3c.1-17.7-5.4-33.9-14.8-47.2z"/><path d="M323.6 122.1c-14.9-21.2-39.4-35-67.3-35h-.9v98c10.3-3.4 20.4-7.4 30-12.2 11.4 13 24.5 24.7 38.9 34.1v26.5h14.1v-64.3c.1-17.6-5.4-33.8-14.8-47.1z" fill="#f4a200"/><circle cx="217.1" cy="224.5" r="7.8" fill="#59595b"/><circle cx="290.6" cy="224.5" r="7.8" fill="#272525"/><path d="M275 258.6c-2.4 0-4.3 1.9-4.3 4.3 0 8.8-6.7 16-15.3 16.8-.5 0-1 .1-1.6.1-9.3 0-16.8-7.6-16.8-16.8 0-2.4-1.9-4.3-4.3-4.3s-4.3 1.9-4.3 4.3c0 14 11.4 25.5 25.5 25.5.5 0 1 0 1.6-.1 13.3-.8 23.9-11.9 23.9-25.4-.1-2.5-2-4.4-4.4-4.4z" fill="#fd8469"/><path class="st17" d="M279.3 262.9c0-2.4-1.9-4.3-4.3-4.3s-4.3 1.9-4.3 4.3c0 8.8-6.7 16-15.3 16.8v8.6c13.3-.8 23.9-11.9 23.9-25.4z"/><ellipse class="st6" cx="256" cy="113.8" rx="113.8" ry="56.9"/><path class="st7" d="M256 56.9h-.6v113.8h.6c62.8 0 113.8-25.5 113.8-56.9s-51-56.9-113.8-56.9z"/><path class="st18" d="M337 149.4c1.2-8.7.8-9.7 2-18.4-55.1-7.8-111-7.8-166 0 1.2 8.7 1.3 9.5 2.6 18.3l161.4.1z"/><path class="st12" d="M339 131c-27.7-3.9-55.7-5.9-83.6-5.9v24.2l81.6.1c1.3-8.7.8-9.7 2-18.4z"/><path class="st7" d="M337 149.4c0 14.9-36.3 27-81 27s-81-12.1-81-27h162z"/><path d="M255.4 149.4v27h.6c44.7 0 81-12.1 81-27h-81.6z" fill="#20303f"/><circle class="st17" cx="411.2" cy="209.5" r="28.4"/><circle class="st18" cx="411.2" cy="269.8" r="28.4"/><circle cx="411.2" cy="330.1" r="28.4" fill="#90dfaa"/><path d="M411.2 181h-.6v56.8h.6c15.7 0 28.4-12.7 28.4-28.4S426.9 181 411.2 181z" fill="#f1543f"/><path class="st12" d="M411.2 241.3h-.6v56.8h.6c15.7 0 28.4-12.7 28.4-28.4s-12.7-28.4-28.4-28.4z"/><path d="M411.2 301.7h-.6v56.8h.6c15.7 0 28.4-12.7 28.4-28.4s-12.7-28.4-28.4-28.4z" fill="#7ac48f"/></svg>