<svg version="1.1" id="Capa_1" xmlns="http://www.w3.org/2000/svg" x="0" y="0" viewBox="0 0 512 512" xml:space="preserve"><style>.st0{fill:#292f33}</style><path class="st0" d="M467.3 455.2L399.8 292c-1.7-4.2-6.5-6.1-10.6-4.4s-6.1 6.5-4.4 10.6l61.1 147.5-55.7-16.1c-3.7-1.1-7.6.6-9.4 3.9l-28 50.8L287.2 326c75.7-14.6 133-81.3 133-161.2C420.1 74.4 346.5.8 256 .8S91.9 74.4 91.9 164.9c0 36.7 12.1 70.5 32.5 97.9L44.7 455.2c-1.2 2.9-.6 6.2 1.5 8.5s5.3 3.3 8.3 2.4l65.7-19.1 33 60c1.4 2.6 4.2 4.2 7.1 4.2h.5c3.1-.2 5.9-2.1 7.1-5L231 353.8c1.7-4.2-.3-8.9-4.4-10.6-4.2-1.7-8.9.3-10.6 4.4l-56.7 136.8-28-50.8c-1.8-3.3-5.7-5-9.4-3.9l-55.7 16.1 69.9-168.9C166.1 309 208.7 329 256 329c4.9 0 9.7-.2 14.5-.6l73.7 177.8c1.2 2.9 3.9 4.8 7.1 5h.5c3 0 5.7-1.6 7.1-4.2l33-60 65.7 19.1c3 .9 6.2-.1 8.3-2.4 2.1-2.3 2.6-5.6 1.4-8.5zM108.2 164.9c0-81.5 66.3-147.8 147.8-147.8s147.8 66.3 147.8 147.8S337.5 312.7 256 312.7s-147.8-66.3-147.8-147.8z"/><path d="M350.1 134.3c-.9-2.9-3.4-5-6.4-5.5l-54.8-9.2-25.7-49.3c-1.4-2.7-4.2-4.4-7.2-4.4s-5.8 1.7-7.2 4.4l-25.7 49.3-54.8 9.2c-3 .5-5.5 2.6-6.4 5.5-.9 2.9-.2 6.1 1.9 8.2l38.9 39.7-8.2 55c-.4 3 .8 6 3.3 7.8 2.5 1.8 5.7 2.1 8.4.7l49.8-24.8 49.8 24.8c1.2.6 2.4.9 3.6.9 1.7 0 3.4-.5 4.8-1.6 2.5-1.8 3.7-4.8 3.3-7.8l-8.2-55 38.9-39.7c2.1-2.1 2.9-5.3 1.9-8.2zm-55.3 39.4c-1.8 1.8-2.6 4.4-2.2 6.9l6.5 43.5-39.4-19.6c-1.1-.6-2.4-.9-3.6-.9-1.2 0-2.5.3-3.6.9L213 224.1l6.5-43.5c.4-2.5-.5-5.1-2.2-6.9l-30.8-31.4 43.4-7.3c2.5-.4 4.7-2 5.9-4.3l20.3-39 20.3 39c1.2 2.3 3.4 3.8 5.9 4.3l43.4 7.3-30.9 31.4z" fill="#058bff"/><path class="st0" d="M379.4 173.1c-4.5-.6-8.6 2.5-9.1 7-7.6 57-56.7 100-114.2 100-63.6 0-115.3-51.7-115.3-115.3S192.4 49.6 256 49.6c57.6 0 106.7 43 114.2 100 .6 4.5 4.7 7.6 9.1 7 4.5-.6 7.6-4.7 7-9.1C377.8 82.4 321.7 33.3 256 33.3c-72.5 0-131.5 59-131.5 131.5s59 131.5 131.5 131.5c65.7 0 121.8-49.1 130.4-114.2.6-4.3-2.5-8.4-7-9z"/></svg>