<svg xmlns="http://www.w3.org/2000/svg" viewBox="0 0 512 512"><circle cx="256" cy="256" r="256" fill="#b01968"/><path d="M510.6 229.6c.9 8.6 1.4 17.4 1.4 26.4 0 141.4-114.6 256-256 256-65.8 0-125.7-24.8-171-65.6-27.6-24.8-49.8-55.5-64.6-90.1 0-.2-.1-.3-.2-.4-.7-1.8-1.4-3.6-2.1-5.3-.6-1.7-1.3-3.3-2-5-1.2-3.3-2.4-6.7-3.5-10 0-.2-.1-.3-.2-.4-.1-.4-.2-.8-.4-1.2-.9-2.9-1.8-5.8-2.6-8.8-.1-.3-.2-.6-.2-.8 23.5-42.2 57.5-77.8 98.5-103.2-12.2-18.6-24.4-40.5-24.4-54 0-27 21.8-48.8 48.8-48.8 12.8 0 24.5 5 33.2 13.1v-.1l.8.8.9.9 48.8 48.8c13-1.8 26.4-2.8 39.9-2.8 8.4 0 16.6.4 24.8 1.1 39.8 3.5 77.3 15.2 110.6 33.6-.2-1.5-.4-3-.4-4.3 0-22.7 18.4-41.1 41.1-41.1 10.4 0 19.9 3.9 27.1 10.3l.2-.2 51.5 51.1z" fill="#9b1662"/><path d="M256 179C149.9 179 57.5 237.7 9.3 324.3 39.2 432.5 138.3 512 256 512c117.7 0 216.8-79.5 246.7-187.7C454.5 237.7 362.1 179 256 179z" fill="#509fd7"/><path d="M256 179C149.9 179 57.4 237.7 9.3 324.3c3 11 6.7 21.7 11.1 32 4.2-4.7 8.5-9.4 12.1-14.5 5.1-7.2 8.9-15.2 14.1-22.3 20.2-27.4 59-36.6 92.1-28.5 3.3-5.5 0-13.7-6.2-15.3 5.9-2.1 12.1-3.1 18.4-3-3.4-2.6-6.9-5.2-10.3-7.8 8.8-3.9 19.6-3 27.7 2.2-10.3 5-15.9 18-12.7 28.9 5.1.1 10.3.2 15.4.2 2.1-17.6 4.5-36.1 15.4-50.1 2.9-3.7 6.5-7.5 6.3-12.2-.1-4.7-7.3-8.3-9.5-4.1-.5-4.8 1.4-9.9 4.9-13.2-16.2 1.1-32.1 6.5-45.6 15.4 5.5-5.4 8.6-12.8 13.3-18.9 4.7-6.1 12.5-11.2 19.8-8.8 2.7.9 5 2.7 7.5 4 13.6 7.2 32.9-4 33.5-19.4 5.6 2.1 11.3 4.2 16.9 6.4.9-4.8 6.2-8.2 10.9-7 7.6 10-2 24-12.2 31.2s-23.1 15-23.4 27.5c9.4 5.3 21.3.6 30.1-5.5 8.9-6.2 17.2-14.1 27.9-15.7 3.9-.6 7.9-.3 11.5-1.7 4.8-1.8 8-6.2 11.4-10.1 3.3-3.9 7.6-7.7 12.7-7.9 5.1-.1 10.2 5.7 7.5 10.1 6.6-3.1 10.1-11.7 7.5-18.5 2.9.1 5.8-.7 8.4-1.9 8 7.8 17.5 14.1 28 18.1 4.5 1.8 10.3 5 9 9.6-.5 1.8-2 3.1-3.2 4.6-4.4 5.2-4.9 13.3-1.3 19.1-8.6-11.4-24.9-16.4-38.4-11.7 3.9 6.6-1.1 14.7-5.1 21.3-4 6.6-6.1 16.9.6 20.5 3 1.6 7.6 1.7 8.8 4.9 1.2 3.2-2.3 7 1.9 10.2 3.2 2.3 7.9 1.3 9.9-2.1 4.1-6.9-.3-14-3.7-20.3-2.9-5.5-5-12.9-.8-17.5 3.4-2 7.9.7 9.3 4.4 1.4 3.6.6 7.7-.2 11.5l.2-.1c8.4-4.1 17.2 4.1 14.9 13.2-.3 1.2-.6 2.5-.8 3.8-.5 3.2-.8 6.7-2.7 9.3-1.7 2.2-4.3 3.5-6.8 4.7l-43.6 20.4c-5.3 2.5-7.1 9.2-3.8 14l.3.4c3.7 5.3 1.1 12.4-5.1 14.4-4.2 1.4-8.2 3.2-11.7 6-7.8 6.1-12 17.9-6.5 26.1 21.6 7.2 37.4-33.4 59.2-26.5 3.8 10.1 13.1 18 23.7 20.1 3-2.2 1.5-7.1-1-9.8-2.8-3.1-6.7-6-6-10.4.9-5.7 6.6-7.6 11.6-4.8 8.4 4.8 8.3 14.4 11.2 22.4 2.4 6.5 9.5 12.8 15.6 9.5-2.5-3.1-5.1-6.4-5.6-10.3-.5-3.9 2.1-8.5 6.1-8.6 7.1-.2 7.4 10.9 12.7 15.6 5 4.4 12.6 1.8 19.2 2.3 10 .8 18.4 10.5 17.7 20.5-.2 3.3-1.6 6.8-4.6 8.1-1.4.6-3.1.6-4.6.6h-29.5c-13.7 0-27.7 0-40.6-4.5-19-6.6-36.1-22.8-56-20-8.4 1.2-15.9 5.6-23.2 10-13.8 8.3-28 17-37.5 30.1-7.1 9.7-11.2 21.3-17.9 31.3-4.7 6.9-10.8 13.3-12.9 21.4-1.7 6.7-.4 13.7 1.3 20.4.9 3.8 2 7.5 3.1 11.3 12.7 1.9 25.7 3 39 3 117.7 0 216.8-79.5 246.7-187.7C454.5 237.7 362.2 179 256 179z" fill="#dad7dc"/><path d="M132.3 118.3c-27 0-48.9 21.9-48.9 48.9s48.9 87.8 48.9 87.8 48.9-60.8 48.9-87.8-21.9-48.9-48.9-48.9zm0 75.9c-15 0-27.1-12.1-27.1-27.1 0-15 12.1-27.1 27.1-27.1 15 0 27.1 12.1 27.1 27.1 0 15-12.2 27.1-27.1 27.1z" fill="#f1622a"/><path d="M202.2 290.3c-27.2 0-49.2 22-49.2 49.2 0 27.2 49.2 88.4 49.2 88.4s49.2-61.2 49.2-88.4c0-27.1-22-49.2-49.2-49.2zm0 76.4c-15 0-27.2-12.2-27.2-27.2s12.2-27.2 27.2-27.2 27.2 12.2 27.2 27.2c.1 15-12.1 27.2-27.2 27.2z" fill="#feed32"/><path d="M432.1 168.3c-22.7 0-41.1 18.4-41.1 41.1 0 22.7 41.1 73.8 41.1 73.8s41.1-51.1 41.1-73.8-18.4-41.1-41.1-41.1zm0 63.8c-12.6 0-22.8-10.2-22.8-22.8 0-12.6 10.2-22.8 22.8-22.8 12.6 0 22.8 10.2 22.8 22.8 0 12.7-10.2 22.8-22.8 22.8z" fill="#d5693c"/></svg>