<svg version="1.1" id="Слой_1" xmlns="http://www.w3.org/2000/svg" x="0" y="0" viewBox="0 0 512 512" xml:space="preserve"><style>.st2{fill:#32796b}.st3{fill:#e6e7e8}.st6{fill:#ffd25a}</style><circle cx="256" cy="256" r="256" fill="#b01968"/><path d="M510.5 228.5c1 9 1.5 18.2 1.5 27.5 0 141.4-114.6 256-256 256-9.7 0-19.2-.6-28.7-1.6L114.5 397.5c-4.3-4.3-7-10.3-7-16.9V131.8c0-13.3 10.8-24 24-24h248.9c8.3 0 15.6 4.2 19.9 10.6l110.2 110.1z" fill="#9b1662"/><path class="st2" d="M404.4 170.7v-38.9c0-13.3-10.7-24-24-24H131.6c-13.3 0-24 10.7-24 24v38.9h296.8z"/><path class="st3" d="M107.6 380.6c0 13.3 10.7 24 24 24h248.9c13.3 0 24-10.7 24-24V164.3H107.6v216.3z"/><circle cx="138.1" cy="139.2" r="11.2" fill="#f1622a"/><circle cx="176.1" cy="139.2" r="11.2" fill="#d6b24e"/><circle class="st6" cx="214.2" cy="139.2" r="11.2"/><path d="M291.1 246.4l17.7-6.2v-24.5c-15.5-9-33.5-14.1-52.8-14.1V237c12.8 0 24.7 3.4 35.1 9.4z" fill="#d6b251"/><path d="M326.2 307.1l18 12.1 17.3-12.1c0-19.2-5.2-37.2-14.1-52.8L316.7 272c6 10.4 9.5 22.3 9.5 35.1z" fill="#dc594e"/><path d="M316.7 342.2l30.7 17.7c9-15.5 14.1-33.5 14.1-52.8h-35.4c.1 12.8-3.4 24.7-9.4 35.1z" fill="#cd5148"/><path d="M220.9 246.4v-19.8l-17.7-10.8c-16 9.3-29.4 22.6-38.6 38.6l30.7 17.7c6.1-10.7 15-19.5 25.6-25.7z" fill="#509fd7"/><path d="M185.8 307.1l-19.4-7.7-16 7.7c0 19.2 5.2 37.2 14.1 52.8l30.7-17.7c-5.9-10.4-9.4-22.3-9.4-35.1z" fill="#fdd96f"/><path class="st6" d="M195.3 272.1l-30.7-17.7c-9 15.5-14.1 33.5-14.1 52.8h35.4c-.1-12.9 3.4-24.8 9.4-35.1z"/><path d="M256 237v-35.4c-19.2 0-37.2 5.2-52.8 14.1l17.7 30.7c10.4-6 22.3-9.4 35.1-9.4z" fill="#4388b9"/><path d="M316.7 272.1l30.7-17.7c-9.3-16-22.6-29.4-38.6-38.6l-17.7 30.7c10.6 6.1 19.5 14.9 25.6 25.6z" fill="#ba9a43"/><path class="st2" d="M252.9 301c-5.9 2.3-8.8 8.9-6.5 14.7 2.3 5.9 8.9 8.8 14.7 6.5s75.4-41.5 75.4-41.5-77.8 18-83.6 20.3z"/><circle cx="256" cy="312.2" r="12.9" fill="#aa975d"/><circle class="st3" cx="256" cy="312.2" r="7"/></svg>