<svg version="1.1" id="Layer_1" xmlns="http://www.w3.org/2000/svg" x="0" y="0" viewBox="0 0 512 512" xml:space="preserve"><style>.st1{fill:#fff}</style><circle cx="256" cy="256" r="256" fill="#6f3faa"/><path class="st1" d="M391.4 179.9l-.1-.3c-6.8-27.7-37.7-57.3-66-63.5l-.3-.1c-45.8-8.7-92.3-8.7-138 0l-.3.1c-28.3 6.2-59.1 35.8-66 63.5l-.1.3c-8.5 38.6-8.5 77.8 0 116.4l.1.3c6.6 26.5 35.1 54.8 62.4 62.6v30.9c0 11.2 13.6 16.7 21.4 8.6l31.3-32.5c6.8.4 13.6.6 20.4.6 23.1 0 46.1-2.2 69-6.5l.3-.1c28.3-6.2 59.2-35.8 66-63.5l.1-.3c8.3-38.7 8.3-77.9-.2-116.5zm-24.7 110.8c-4.6 18-28 40.5-46.6 44.6-24.4 4.6-48.9 6.6-73.4 5.9-.5 0-1 .2-1.3.5-3.5 3.6-22.8 23.4-22.8 23.4L198.3 390c-1.8 1.9-4.9.6-4.9-2v-51.1c0-.8-.6-1.6-1.4-1.7-18.6-4.1-42-26.6-46.6-44.6-7.6-34.9-7.6-70.3 0-105.2 4.6-18 28-40.5 46.6-44.6 42.5-8.1 85.7-8.1 128.2 0 18.6 4.1 42 26.6 46.6 44.6 7.5 35 7.5 70.4-.1 105.3z"/><path class="st1" d="M296.5 314.3c-2.9-.9-5.6-1.5-8.1-2.5-26.2-10.9-50.4-24.9-69.5-46.4-10.9-12.2-19.4-26.1-26.6-40.7-3.4-6.9-6.3-14.1-9.2-21.3-2.7-6.5 1.3-13.3 5.4-18.2 3.9-4.6 8.9-8.1 14.3-10.8 4.2-2 8.4-.9 11.5 2.7 6.7 7.8 12.8 15.9 17.8 24.9 3.1 5.5 2.2 12.3-3.3 16-1.3.9-2.6 2-3.8 3-1.1.9-2.1 1.8-2.9 3-1.4 2.2-1.4 4.9-.6 7.3 6.8 18.8 18.3 33.4 37.2 41.2 3 1.3 6.1 2.7 9.5 2.3 5.8-.7 7.7-7.1 11.8-10.4 4-3.3 9.1-3.3 13.4-.6 4.3 2.7 8.5 5.6 12.6 8.6 4.1 2.9 8.1 5.7 11.9 9 3.6 3.2 4.9 7.3 2.8 11.7-3.7 7.9-9.1 14.5-16.9 18.7-2.2 1.4-4.8 1.8-7.3 2.5-2.9-.8 2.5-.7 0 0zm-40.4-148.9c34.3 1 62.5 23.7 68.5 57.7 1 5.8 1.4 11.7 1.9 17.6.2 2.5-1.2 4.8-3.9 4.8-2.8 0-4-2.3-4.2-4.7-.4-4.9-.6-9.8-1.3-14.6-3.6-25.6-23.9-46.7-49.4-51.2-3.8-.7-7.7-.9-11.6-1.3-2.5-.3-5.7-.4-6.2-3.5-.5-2.6 1.7-4.6 4.1-4.7.7-.1 1.4-.1 2.1-.1 34.3 1-.7 0 0 0z"/><path class="st1" d="M308.2 233c-.1.4-.1 1.4-.3 2.4-.9 3.4-6.1 3.9-7.3.4-.4-1-.4-2.2-.4-3.3 0-7.3-1.6-14.5-5.3-20.8-3.8-6.5-9.5-12-16.3-15.3-4.1-2-8.5-3.2-13-4-2-.3-3.9-.5-5.9-.8-2.4-.3-3.7-1.8-3.5-4.2.1-2.2 1.7-3.8 4.1-3.6 7.9.4 15.5 2.1 22.5 5.9 14.2 7.5 22.4 19.4 24.7 35.3.1.7.3 1.4.3 2.2.2 1.7.3 3.5.4 5.8 0 .4-.1-2.3 0 0z"/><path class="st1" d="M286.9 232.2c-2.9.1-4.4-1.5-4.7-4.2-.2-1.8-.4-3.7-.8-5.5-.9-3.5-2.7-6.8-5.7-8.9-1.4-1-3-1.8-4.6-2.2-2.1-.6-4.3-.4-6.4-1-2.3-.6-3.5-2.4-3.2-4.5.3-1.9 2.2-3.5 4.3-3.3 13.3 1 22.8 7.8 24.2 23.5.1 1.1.2 2.3 0 3.3-.5 1.8-1.8 2.7-3.1 2.8-2.9 0 1.3-.1 0 0zm9.6 82.1c2.5-.7-2.9-.8 0 0zm-40.3-148.9c-.1 0-.1 0 0 0-.2 0-.1 0 0 0zm-.1 0c2 .1 32.9 1 0 0zm52.1 67.6c-.1-2.3 0 .4 0 0zm-21.3-.8h.1-.5.4zm0 0zm.1 0h-.1.1z"/></svg>