<svg version="1.1" id="Слой_1" xmlns="http://www.w3.org/2000/svg" x="0" y="0" viewBox="0 0 150 50" xml:space="preserve"><style>.st0{fill:#6f14a5}</style><path class="st0" d="M8.1 8.2c-.6.6-1.5.6-2.1 0-.6-.6-.6-1.6 0-2.2 1.9-1.9 4-3.3 6.4-4.3 2.4-1 5-1.5 7.6-1.5s5.2.5 7.6 1.5C30 2.7 32.2 4.2 34 6c.6.6.6 1.6 0 2.2-.6.6-1.6.6-2.2 0-1.6-1.6-3.4-2.8-5.4-3.6-2-.8-4.2-1.3-6.4-1.3s-4.4.4-6.4 1.3c-2.1.8-3.9 2-5.5 3.6z"/><path class="st0" d="M12.4 12.5c-.6.6-1.6.6-2.2 0-.6-.6-.6-1.6 0-2.2C11.5 9 13 8 14.7 7.3c1.7-.7 3.4-1 5.2-1 1.8 0 3.6.4 5.2 1 1.7.7 3.2 1.7 4.5 3 .6.6.6 1.6 0 2.1-.6.6-1.6.6-2.1 0-1-1-2.2-1.8-3.5-2.3-1.3-.5-2.7-.8-4.1-.8-1.4 0-2.8.3-4.1.8-1.2.6-2.4 1.4-3.4 2.4z"/><path class="st0" d="M16.7 16.8c-.6.6-1.6.6-2.2 0-.6-.6-.6-1.6 0-2.2.7-.7 1.6-1.3 2.5-1.7.9-.4 1.9-.6 2.9-.6s2 .2 2.9.6c.9.4 1.8.9 2.5 1.7.6.6.6 1.6 0 2.2-.6.6-1.6.6-2.2 0-.4-.4-.9-.8-1.5-1-.5-.2-1.1-.3-1.8-.3-.6 0-1.2.1-1.8.3-.3.2-.8.6-1.3 1z"/><path d="M8.2 14.3l-2.9-2.4c-.3-.3-.7-.4-1.1-.3-.4.1-.7.3-.9.7-1.1 2.4-1.7 5-1.7 7.7 0 5.5 1.8 10.9 4.9 14.9L17 48.5c.7 1 1.8 1.5 3 1.5s2.3-.5 3-1.5L33.4 35c3.2-4.1 4.9-9.4 4.9-14.9 0-2.7-.6-5.3-1.7-7.7-.2-.4-.5-.6-.9-.7-.4-.1-.8 0-1.1.3l-2.9 2.4c-.4.4-.6.9-.4 1.4.5 1.4.8 2.9.8 4.3 0 6.7-5.5 12.2-12.2 12.2S7.8 26.8 7.8 20c0-1.5.3-3 .8-4.3.2-.5 0-1.1-.4-1.4zm16.3 5.3c-.1-.8.6-1.6 1.4-1.6.8-.1 1.6.6 1.6 1.4v.6c0 2.1-.9 4-2.2 5.4-1.4 1.4-3.3 2.2-5.4 2.2-2.1 0-4-.9-5.4-2.2l-.1-.1c-1.3-1.4-2.1-3.2-2.1-5.3v-.6c.1-.8.8-1.5 1.6-1.4.8.1 1.5.8 1.4 1.6v.4c0 1.2.5 2.4 1.3 3.2l.1.1c.8.8 2 1.3 3.2 1.3s2.4-.5 3.2-1.3c.8-.8 1.3-2 1.3-3.2v-.2l.1-.3z" fill-rule="evenodd" clip-rule="evenodd" fill="#b01968"/><path d="M20 22.3c1.3 0 2.3-1 2.3-2.3 0-1.3-1-2.3-2.3-2.3s-2.3 1-2.3 2.3c0 1.3 1 2.3 2.3 2.3z" fill-rule="evenodd" clip-rule="evenodd" fill="#6f14a5"/><path d="M52.1 38.2h1c.7 0 1.3-.6 1.3-1.3v-9.7h7.5c.7 0 1.3-.6 1.3-1.3v-.5c0-.7-.6-1.3-1.3-1.3h-7.5v-8.4c6.7 0 7.2-.5 7.2 1.1 0 .4.1.7.4.9.3.3.6.4.9.4h.7c.7 0 1.3-.6 1.3-1.3.1-2.6.2-4.3-2.3-4.3H49.8c-.7 0-1.3.6-1.3 1.3v.5c0 .7.6 1.3 1.3 1.3h1.1v21.2c-.1.8.5 1.4 1.2 1.4zm16.6 0h5.9c.7 0 1.3-.6 1.3-1.3v-.5c0-.7-.6-1.3-1.3-1.3h-1.2V15.7h1.2c.7 0 1.3-.6 1.3-1.3v-.5c0-.7-.6-1.3-1.3-1.3h-5.9c-.7 0-1.3.6-1.3 1.3v.5c0 .7.6 1.3 1.3 1.3h1.2V35h-1.2c-.7 0-1.3.6-1.3 1.3v.5c0 .8.5 1.4 1.3 1.4zm17.1 0h2.3c.6 0 1.1-.4 1.2-.9 1.1-3.8 5.2-17.6 5.2-18.8h.1c0 1.3 3.8 14.9 4.8 18.8.2.6.7 1 1.3 1h2.2c.6 0 1.1-.4 1.3-1l5.3-20.7c.1-.5.4-.7.8-.8.6-.1 1-.7 1-1.3v-.6c0-.7-.6-1.3-1.3-1.3-2.1 0-3.4 0-3.9 2.1-.4 1.8-4.5 18-4.5 19.2h-.1c0-1.1-4-16-5.1-20.3-.2-.6-.7-1-1.3-1h-1.2c-.6 0-1.1.4-1.3.9-1.2 4.2-5.5 19.5-5.5 20.3H87c0-1.5-4-17.1-4.5-19.2-.5-2.1-1.9-2.2-3.9-2.1-.7 0-1.3.6-1.3 1.3v.6c0 .6.4 1.2 1 1.3.4.1.6.3.8.8l5.3 20.7c.3.6.8 1 1.4 1zm23.2 0c-.7 0-1.3-.6-1.3-1.3v-.7c0-.7.5-1.2 1.1-1.3h.1c.5-.3 6.5-17 8.1-21.5.2-.5.7-.9 1.2-.9h2c.6 0 1 .3 1.2.9l7.7 20.9c.2.5.4.7.7.8.6.1 1 .7 1 1.3v.6c0 .7-.6 1.3-1.3 1.3-1.2 0-2.5 0-3.1-.8-.6-.8-2.1-5.3-2.6-6.6h-9.4c-2.4 7-1.8 7.3-5.4 7.3zm6.5-10.5h7.7c0-.1-3.8-10.4-3.8-11.4h-.1c0 1.2-3.7 11.1-3.8 11.4zm22.4 10.5h1c.7 0 1.3-.6 1.3-1.3V27l6.9-11c.2-.2.5-.3.7-.3.6-.1 1.1-.6 1.1-1.3v-.5c0-.4-.1-.7-.4-.9-.3-.3-.6-.4-.9-.4-3.6 0-3 .6-7.7 8.4l-1.6 2.9h-.1c-1.1-2.2-5.6-9.8-6.4-10.6-.7-.7-1.8-.7-2.9-.7-.7 0-1.3.6-1.3 1.3v.6c0 .7.5 1.2 1.1 1.3.5.1.8.3 1.1.9l6.5 10.4V37c.3.6.9 1.2 1.6 1.2z" fill="#292f33"/></svg>