<svg version="1.1" id="Слой_1" xmlns="http://www.w3.org/2000/svg" x="0" y="0" viewBox="0 0 300 200" xml:space="preserve"><style>.st0{fill:#292f33}.st1{fill:#ccc}.st2{fill:#e2e3e6}.st3{fill:#27272e}.st4{fill:#b3261f}.st5{fill:#414141}.st6{fill:#262626}.st7{fill:#a6a6a6}.st8{fill:gray}.st9{fill:#de3b33}.st11{fill:#5e5e5e}.st12{fill:#c9cacc}.st13{fill:#303030}.st14{fill:#666}.st17{fill:#bfbfbf}.st19{fill:#595959}.st21{fill:#f2f2f2}.st22{fill:#363636}.st23{fill:#333}.st24{fill:#911f19}.st25{fill:#ff6159}.st26{fill:#f8981d}.st27{fill:#ffc64a}.st28{fill:#de6000}.st29{fill:#ffa200}.st30{fill:#3b3b3b}</style><path class="st0" d="M193.2 36c-1.8 1.8-4.7 1.8-6.4 0-1.8-1.8-1.8-4.7 0-6.4 5.5-5.5 12.1-9.9 19.3-12.8 7.1-3 14.8-4.5 22.7-4.5 7.8 0 15.5 1.6 22.7 4.5 7.2 3 13.7 7.3 19.3 12.8 1.8 1.8 1.8 4.7 0 6.4-1.8 1.8-4.7 1.8-6.4 0-4.7-4.7-10.3-8.4-16.3-10.9s-12.5-3.8-19.2-3.8-13.2 1.3-19.2 3.8c-6.2 2.5-11.7 6.2-16.5 10.9z"/><path class="st0" d="M206.2 48.9c-1.8 1.8-4.7 1.8-6.4 0-1.8-1.8-1.8-4.7 0-6.4 3.8-3.8 8.4-6.8 13.3-8.9 4.9-2 10.3-3.1 15.7-3.1s10.7 1.1 15.7 3.1c4.9 2 9.5 5.1 13.3 8.9 1.8 1.8 1.8 4.7 0 6.4-1.8 1.8-4.7 1.8-6.4 0-3-3-6.5-5.3-10.3-6.9-3.8-1.6-8-2.4-12.2-2.4-4.3 0-8.4.8-12.2 2.4-4 1.5-7.5 3.9-10.5 6.9z"/><path class="st0" d="M219.1 61.8c-1.8 1.8-4.7 1.8-6.4 0-1.8-1.8-1.8-4.7 0-6.4 2.1-2.1 4.6-3.8 7.4-4.9 2.8-1.1 5.7-1.7 8.7-1.7s6 .6 8.7 1.7c2.8 1.1 5.3 2.8 7.4 4.9 1.8 1.8 1.8 4.7 0 6.4-1.8 1.8-4.7 1.8-6.4 0-1.3-1.3-2.8-2.3-4.4-3-1.6-.7-3.4-1-5.3-1-1.8 0-3.6.4-5.3 1-1.6.7-3.1 1.7-4.4 3zm9.6 16.5c3.8 0 6.8-3.1 6.8-6.8s-3.1-6.8-6.8-6.8c-3.8 0-6.8 3.1-6.8 6.8s3.1 6.8 6.8 6.8z"/><path class="st1" d="M179 120.7l20.1 28.6L78.5 79.1l-43.6 25.1 157.8 91.7 18.9-1.1L259 165z"/><path class="st2" d="M192.7 140.9v47.2l-36-21.1c0-4.6-3.2-10.2-7.3-12.5-4-2.3-7.3-.5-7.3 4.1l-54.6-31.5v-.8c0-4.6-3.2-10.2-7.3-12.5-4-2.3-7.3-.5-7.3 4.1v.9l-38-22.4V49.2l157.8 91.7z"/><path class="st3" d="M192.6 171.5v2.3L34.9 82.1v-2.3z"/><path class="st4" d="M73 118.8l11.8-6.3-11.8-.4-.2 5.7z"/><path class="st5" d="M90.7 123.3c0-4-2.8-8.9-6.3-10.9-1.7-1-3.3-1.1-4.5-.5l-4.7 2.7 9.1 15.3 4.5-2.5c1.2-.7 1.9-2.1 1.9-4.1z"/><path class="st6" d="M86.3 125.8c0 4-2.8 5.6-6.3 3.6s-6.3-6.9-6.3-10.9 2.8-5.6 6.3-3.6c3.4 2 6.3 6.9 6.3 10.9z"/><path class="st7" d="M83.7 125.1c0 .7-.1 2.2-1.4 2.2-.5 0-1-.2-1.6-.5-2.4-1.4-4.4-4.8-4.4-7.6 0-.7.1-2.2 1.4-2.2.5 0 1 .2 1.6.5.1 0 .2.1.2.1.3.2.5.4.8.6l.3.3c1.2 1.2 2.2 2.8 2.7 4.4.1.4.2.9.3 1.3 0 .3.1.6.1.9z"/><path class="st1" d="M83 126.7c-.5 0-1-.2-1.6-.5-2.4-1.4-4.4-4.8-4.4-7.6 0-.4.1-1.1.4-1.6-1 .2-1.1 1.6-1.1 2.2 0 2.7 2 6.2 4.4 7.6.6.3 1.1.5 1.6.5s.9-.2 1.1-.6H83z"/><path class="st5" d="M83.6 124.3c-.1.2-.3.3-.5.4l-.7.3-4.1-6.8h.1c.1 0 .1-.1.2-.1l.5-.3c.1-.1.2-.1.4-.1.3.2.5.4.8.6l.3.3c1.2 1.2 2.2 2.8 2.7 4.4.1.4.2.8.3 1.3z"/><path class="st8" d="M83.3 123.2c0 .9-.3 1.5-.8 1.8s-1.2.2-2-.2c-1.6-.9-2.8-3.1-2.8-4.9 0-.8.3-1.4.7-1.8h.1c.1 0 .1-.1.2-.1.4-.2 1-.2 1.6.2l.3.3c1.2 1.2 2.2 2.8 2.7 4.4v.3z"/><path class="st5" d="M81.1 123.6c-.2 0-.4-.1-.6-.2-.9-.5-1.6-1.8-1.6-2.8 0-.3.1-.9.6-.9.2 0 .4.1.6.2.9.5 1.6 1.8 1.6 2.8.1.2 0 .9-.6.9z"/><path class="st1" d="M81.5 123.3c-.2 0-.4-.1-.6-.2-.9-.5-1.6-1.8-1.6-2.8 0-.2 0-.4.2-.7-.5.1-.5.7-.5.9 0 1 .8 2.3 1.6 2.8.2.1.4.2.6.2s.4-.1.5-.3c-.1.1-.2.1-.2.1z"/><path class="st7" d="M79.1 119.3c0-.3-.2-.6-.4-.7-.1-.1-.2-.1-.3 0l-.2.1.6 1 .2-.1c.1-.1.1-.1.1-.3z"/><path class="st1" d="M78.9 119.4c0 .3-.2.4-.4.2-.2-.1-.4-.5-.4-.7s.2-.4.4-.2.4.5.4.7z"/><path class="st7" d="M83 122.7c0-.3-.2-.6-.4-.7-.1-.1-.2-.1-.3 0l-.2.1.6 1 .2-.1c0-.1.1-.2.1-.3z"/><path class="st1" d="M82.8 122.8c0 .3-.2.4-.4.2-.2-.1-.4-.5-.4-.7s.2-.4.4-.2c.2.1.4.5.4.7z"/><path class="st7" d="M82.6 124.3c0-.3-.2-.6-.4-.7-.1-.1-.2-.1-.3 0l-.2.1.6 1 .2-.1c.1-.1.1-.2.1-.3z"/><path class="st1" d="M82.4 124.4c0 .3-.2.4-.4.2-.2-.1-.4-.5-.4-.7 0-.3.2-.4.4-.2.2.1.4.4.4.7z"/><path class="st7" d="M80.5 124c0-.3-.2-.6-.4-.7-.1-.1-.2-.1-.3 0l-.2.1.6 1 .2-.1c0-.1.1-.2.1-.3z"/><path class="st1" d="M80.3 124.1c0 .3-.2.4-.4.2-.2-.1-.4-.5-.4-.7 0-.3.2-.4.4-.2.2.1.4.4.4.7z"/><path class="st7" d="M79 121.9c0-.3-.2-.6-.4-.7-.1-.1-.2-.1-.3 0l-.2.1.6 1 .2-.1s.1-.1.1-.3z"/><path class="st1" d="M78.8 122c0 .3-.2.4-.4.2s-.4-.5-.4-.7.2-.4.4-.2.4.5.4.7z"/><path class="st7" d="M81 119.3c0-.3-.2-.6-.4-.7-.1-.1-.2-.1-.3 0l-.2.1.6 1 .2-.1c.1-.1.1-.1.1-.3z"/><path class="st1" d="M80.8 119.4c0 .3-.2.4-.4.2-.2-.1-.4-.5-.4-.7s.2-.4.4-.2.4.5.4.7z"/><path class="st7" d="M82.3 120.9c0-.3-.2-.6-.4-.7-.1-.1-.2-.1-.3 0l-.2.1.6 1 .2-.1c.1-.1.1-.2.1-.3z"/><path class="st1" d="M82.1 121c0 .3-.2.4-.4.2-.2-.1-.4-.5-.4-.7s.2-.4.4-.2c.2.1.4.4.4.7z"/><path class="st4" d="M142.1 158.7l11.8-6.3-11.8-.4z"/><path class="st5" d="M159.8 164.5c0-4-2.8-8.9-6.3-10.9-1.7-1-3.3-1.1-4.5-.5l-4.7 2.7 9.1 15.3 4.5-2.5c1.2-.7 1.9-2.1 1.9-4.1z"/><ellipse transform="rotate(-30.311 149.012 163.392)" class="st6" cx="149" cy="163.4" rx="5.2" ry="8.9"/><path class="st7" d="M152.7 166.3c0 .7-.1 2.2-1.4 2.2-.5 0-1-.2-1.6-.5-2.4-1.4-4.4-4.8-4.4-7.6 0-.7.1-2.2 1.4-2.2.5 0 1 .2 1.6.5.1 0 .2.1.2.1.3.2.5.4.8.6l.3.3c1.2 1.2 2.2 2.8 2.7 4.4.1.4.2.9.3 1.3.1.4.1.6.1.9z"/><path class="st1" d="M152 168c-.5 0-1-.2-1.6-.5-2.4-1.4-4.4-4.8-4.4-7.6 0-.4.1-1.1.4-1.6-1 .2-1.1 1.6-1.1 2.2 0 2.7 2 6.2 4.4 7.6.6.3 1.1.5 1.6.5s.9-.2 1.1-.6h-.4z"/><path class="st5" d="M152.7 165.5c-.1.2-.3.3-.5.4l-.7.3-4.1-6.8h.1c.1 0 .1-.1.2-.1l.5-.3c.1-.1.2-.1.4-.1.3.2.5.4.8.6l.3.3c1.2 1.2 2.2 2.8 2.7 4.4.1.4.2.9.3 1.3z"/><path class="st8" d="M152.4 164.4c0 .9-.3 1.5-.8 1.8s-1.2.2-2-.2c-1.6-.9-2.8-3.1-2.8-4.9 0-.8.3-1.4.7-1.8h.1c.1 0 .1-.1.2-.1.4-.2 1-.2 1.6.2l.3.3c1.2 1.2 2.2 2.8 2.7 4.4v.3z"/><path class="st5" d="M150.2 164.8c-.2 0-.4-.1-.6-.2-.9-.5-1.6-1.8-1.6-2.8 0-.3.1-.9.6-.9.2 0 .4.1.6.2.9.5 1.6 1.8 1.6 2.8 0 .2 0 .9-.6.9z"/><path class="st1" d="M150.6 164.5c-.2 0-.4-.1-.6-.2-.9-.5-1.6-1.8-1.6-2.8 0-.2 0-.4.2-.7-.5.1-.5.7-.5.9 0 1 .8 2.3 1.6 2.8.2.1.4.2.6.2.2 0 .4-.1.5-.3l-.2.1z"/><path class="st7" d="M148.2 160.6c0-.3-.2-.6-.4-.7-.1-.1-.2-.1-.3 0l-.2.1.6 1 .2-.1c0-.1.1-.2.1-.3z"/><path class="st1" d="M147.9 160.7c0 .3-.2.4-.4.2-.2-.1-.4-.5-.4-.7s.2-.4.4-.2c.2.1.4.4.4.7z"/><path class="st7" d="M152 163.9c0-.3-.2-.6-.4-.7-.1-.1-.2-.1-.3 0l-.2.1.6 1 .2-.1c.1 0 .1-.1.1-.3z"/><path class="st1" d="M151.8 164.1c0 .3-.2.4-.4.2-.2-.1-.4-.5-.4-.7s.2-.4.4-.2c.2.1.4.4.4.7z"/><path class="st7" d="M151.7 165.5c0-.3-.2-.6-.4-.7-.1-.1-.2-.1-.3 0l-.2.1.6 1 .2-.1c0-.1.1-.2.1-.3z"/><path class="st1" d="M151.4 165.6c0 .3-.2.4-.4.2s-.4-.5-.4-.7.2-.4.4-.2c.3.1.4.5.4.7z"/><path class="st7" d="M149.5 165.2c0-.3-.2-.6-.4-.7-.1-.1-.2-.1-.3 0l-.2.1.6 1 .2-.1c.1-.1.1-.2.1-.3z"/><path class="st1" d="M149.3 165.3c0 .3-.2.4-.4.2-.2-.1-.4-.5-.4-.7s.2-.4.4-.2c.2.1.4.5.4.7z"/><path class="st7" d="M148 163.2c0-.3-.2-.6-.4-.7-.1-.1-.2-.1-.3 0l-.2.1.6 1 .2-.1c.1-.1.1-.2.1-.3z"/><path class="st1" d="M147.8 163.3c0 .3-.2.4-.4.2-.2-.1-.4-.5-.4-.7s.2-.4.4-.2c.2.1.4.4.4.7z"/><path class="st7" d="M150.1 160.6c0-.3-.2-.6-.4-.7-.1-.1-.2-.1-.3 0l-.2.1.6 1 .2-.1c0-.1.1-.2.1-.3z"/><path class="st1" d="M149.8 160.7c0 .3-.2.4-.4.2-.2-.1-.4-.5-.4-.7s.2-.4.4-.2c.2.1.4.4.4.7z"/><path class="st7" d="M151.4 162.1c0-.3-.2-.6-.4-.7-.1-.1-.2-.1-.3 0l-.2.1.6 1 .2-.1c0-.1.1-.2.1-.3z"/><path class="st1" d="M151.1 162.2c0 .3-.2.4-.4.2s-.4-.5-.4-.7.2-.4.4-.2.4.5.4.7z"/><path class="st9" d="M192.7 173.8v14.3l-36-21.1c0-4.6-3.2-10.2-7.3-12.5-4-2.3-7.3-.5-7.3 4.1l-54.6-31.5v-.8c0-4.6-3.2-10.2-7.3-12.5-4-2.3-7.3-.5-7.3 4.1v.9l-38-22.4V82.1l157.8 91.7z"/><path fill="#dcdde0" d="M192.6 171.5L34.9 79.8V46.4l157.8 91.7z"/><path class="st3" d="M36.8 78.4v-27l153.9 89.5v27z"/><path class="st5" d="M189.8 141.5v24.7l-12.9-7.4-44.2-25.7-15.8-9.3-44.2-25.7-14.5-8.4-20.4-11.8V53.1l21.3 12.4 20.5 11.9L94 85.8l44.2 25.7 15.9 9.2z"/><path class="st11" d="M59.5 65.4L37.8 77.7V53.1z"/><path class="st4" d="M236.2 113.1V163l-43.5 25.1v-49.9z"/><path class="st3" d="M236.2 146.1v2.4l-43.5 25.3v-2.3z"/><path class="st12" d="M236.2 113.1v33l-43.5 25.4v-33.4z"/><path class="st13" d="M193.6 145.9l41.7-24v23.7l-41.7 24.2z"/><path class="st14" d="M234.3 123.5v21.6h-.1l-39.6 23v-21.7l21-12.1z"/><path fill="#ebebeb" d="M236.2 113.1l-43.5 25.1-42.6-24.8-21.5-12.5-58.7-34.1-18.1-10.5-16.9-9.9 43.6-25 43.6 25.3 18 10.5 58.7 34.1 21.5 12.5z"/><path d="M122.1 46.7l-70.3 9.6-16.9-9.9 43.6-25zm76.7 44.6l-70.2 9.6-58.7-34.1 70.2-9.6zm37.4 21.8l-43.5 25.1-42.6-24.8 70.2-9.6z" fill="#fff"/><path class="st17" d="M198.5 128.7l2 .6 24.4-13.5-11.8-7.8z"/><path fill="#e3e3e3" d="M218.4 111.3l-10.2-6.3-21.8 12.5 10.2 6.3z"/><path class="st17" d="M186.4 117.5v3.9l12.1 7.3-1.9-4.9z"/><path class="st8" d="M218.4 111.3l1.9 4.9-21.8 12.5-1.9-4.9z"/><path class="st19" d="M197.2 124l21.1-12.1 1.6 4.1-21.1 12.2z"/><path fill="#d9d9d9" d="M218.3 111.9l-.7.4 1.4 3.5-20.4 11.8.2.6 21.1-12.2z"/><path class="st17" d="M217.6 112.3l1.4 3.5.9.2-1.6-4.1zm-71.7-9.5h2.8l29.4-16.6-12.3-7z"/><path class="st21" d="M175.6 84.5l-46.3-27.1-29.7 17.1 46.3 27.1z"/><path class="st17" d="M99.6 74.5V76l46.3 26.8v-1.2z"/><path class="st8" d="M175.6 84.5v1.2l-29.7 17.1v-1.2z"/><path class="st19" d="M63.2 46.2l1.1-.6 10.2 5.9-1.1.6z"/><path class="st8" d="M64.3 46.2l9.6 5.6.6-.3-10.2-5.9-1.1.6.5.3z"/><path class="st17" d="M64.3 45.6v.6l9.6 5.6.6-.3z"/><path class="st19" d="M65.2 45l1.1-.6 10.2 6-1.1.6z"/><path class="st8" d="M66.3 45l9.6 5.7.6-.3-10.2-6-1.1.6.5.3z"/><path class="st17" d="M66.3 44.4v.6l9.6 5.7.6-.3z"/><path class="st19" d="M67.2 43.9l1.1-.6 10.2 5.9-1.1.6z"/><path class="st8" d="M68.3 43.9l9.7 5.6.5-.3-10.2-5.9-1.1.6.6.3z"/><path class="st17" d="M68.3 43.3v.6l9.7 5.6.5-.3z"/><path class="st19" d="M69.3 42.7l1-.6 10.2 6-1 .5z"/><path class="st8" d="M70.3 42.7l9.7 5.7.5-.3-10.2-6-1 .6.5.3z"/><path class="st17" d="M70.3 42.1v.6l9.7 5.7.5-.3z"/><path class="st19" d="M71.3 41.6l1-.6 10.2 5.9-1 .6z"/><path class="st8" d="M72.3 41.6l9.7 5.6.5-.3L72.3 41l-1 .6.5.3z"/><path class="st17" d="M72.3 41v.6l9.7 5.6.5-.3z"/><path class="st19" d="M73.3 40.4l1-.6 10.2 5.9-1 .6z"/><path class="st8" d="M74.3 40.4L84 46l.5-.3-10.2-5.9-1 .6.5.3z"/><path class="st17" d="M74.3 39.8v.6L84 46l.5-.3z"/><path class="st19" d="M75.3 39.3l1-.6 10.2 5.9-1 .6z"/><path class="st8" d="M76.3 39.3l9.7 5.6.5-.3-10.2-5.9-1 .6.5.2z"/><path class="st17" d="M76.3 38.7v.6l9.7 5.6.5-.3z"/><path class="st19" d="M77.3 38.1l1-.6 10.2 5.9-1 .6z"/><path class="st8" d="M78.3 38.1l9.7 5.6.5-.3-10.2-5.9-1 .6.5.3z"/><path class="st17" d="M78.3 37.5v.6l9.7 5.6.5-.3z"/><path class="st1" d="M163.8 82.2c-.3-.3-9.1-5.6-15.2-9.2-.3-.2-.6-.3-.8-.5-.8-.5-1.6-.9-2.3-1.3-.4-.3-.8-.5-1.2-.7-.3-.2-.6-.4-.9-.5-.3-.2-.5-.3-.6-.3-.2-.1-.4-.1-.7.1l-.3.3L102 45.8l.8-.7-6.8-2.9-1 .6 5.2 4.4 1.1-.8 40.1 24.4c0 .1-.1.3-.1.4 0 .3.1.5.3.6.3.2 19.8 11.9 20.1 12 .2.1.3.2.5.3.2.1.3.1.5.2h.3c.2 0 .5-.1.7-.3.3-.2.4-.6.5-.9 0-.2-.1-.6-.4-.9z"/><path class="st17" d="M163.7 87.6h1.5l4.9-2.9-5.9-3.2z"/><path class="st5" d="M95.6 14.4l5.4 3.9 2.1-1.2-6.8-3.1z"/><path class="st3" d="M101 18.3v.8l2.1-1.2v-.8z"/><path class="st22" d="M95.6 14.4v.3l5.4 4.4v-.8z"/><path class="st3" d="M102.3 17.6c-.2.1-.5.3-.5.5v.3l44.7 48.1.8-.7-44.7-48.1c-.1-.1-.2-.1-.3-.1z"/><path class="st6" d="M147 65.8c.2-.1.4.1.3.3s-.3.5-.5.5c-.2.1-.4-.1-.3-.3 0-.3.3-.5.5-.5z"/><path class="st3" d="M164 82.5c-.3-.5-16.4-17.5-16.6-17.8-.1-.1-.4-.2-.6-.1-.6.1-1.2.7-1.4 1.3-.1.3 0 .5.1.7.2.2 15.8 16.8 16 17.1.1.1.2.3.4.4.1.1.3.2.5.3.1.1.2.1.3.1.2 0 .5 0 .7-.1.6-.2 1-1.2.6-1.9z"/><path class="st5" d="M164 82.6c0-.1 0-.1 0 0-.3-.6-16.5-17.6-16.7-17.8-.1-.1-.4-.2-.6-.1-.5.1-1.1.6-1.3 1.2.1 0 .2-.1.3-.1.3-.1.5 0 .6.1.3.1 16.4 17.1 16.7 17.6 0 0 0 .1.1.1.1.2.2.6.1.9h.2c.6-.3 1-1.3.6-1.9z"/><path class="st21" d="M168.2 80.7l-5-2.9-4.5 2.6 5 2.9z"/><path class="st17" d="M158.7 80.4v4.3l5 2.9v-4.3z"/><path class="st8" d="M168.2 80.7V85l-4.5 2.6v-4.3z"/><path class="st1" d="M146.3 93.2c0-.1 0-.1 0 0-.3-.3-9.1-5.6-15.2-9.2-.3-.2-.6-.3-.8-.5-.8-.5-1.6-.9-2.3-1.3-.4-.3-.8-.5-1.2-.7-.3-.2-.6-.4-.9-.5-.3-.2-.5-.3-.6-.3-.2-.1-.4-.1-.7.1l-.3.3-39.8-24.5.8-.7-6.8-2.8-1 .6 5.2 4.4 1.1-.8 40.1 24.4c0 .1-.1.3-.1.4 0 .3.1.5.3.6.3.2 19.8 11.9 20.1 12 .2.1.3.2.5.3.2.1.3.1.5.2h.3c.2 0 .5-.1.7-.3.3-.2.4-.6.5-.9s-.2-.6-.4-.8z"/><path class="st17" d="M146.2 98.5h1.5l4.9-2.9-6-3.2z"/><path class="st5" d="M78.1 25.4l5.4 3.8 2.1-1.2-6.8-3.1z"/><path class="st3" d="M83.5 29.2v.8l2.1-1.2V28z"/><path class="st22" d="M78.1 25.4v.2l5.4 4.4v-.8z"/><path class="st3" d="M84.8 28.6c-.2.1-.5.3-.5.5v.3L129 77.5l.8-.7L85 28.6s-.1-.1-.2 0z"/><path class="st6" d="M129.4 76.7c.2-.1.4.1.3.3s-.3.5-.5.5c-.2.1-.4-.1-.3-.3.1-.2.3-.5.5-.5z"/><path class="st3" d="M146.5 93.4c-.3-.5-16.4-17.5-16.6-17.8-.1-.1-.4-.2-.6-.1-.6.1-1.2.7-1.4 1.3-.1.3 0 .5.1.7.2.2 15.8 16.8 16 17.1.1.1.2.3.4.4.1.1.3.2.5.3.1.1.2.1.3.1.2 0 .5 0 .7-.1.6-.2.9-1.2.6-1.9 0 .1 0 0 0 0z"/><path class="st5" d="M146.5 93.5s0-.1 0 0c-.3-.6-16.5-17.6-16.7-17.8-.1-.1-.4-.2-.6-.1-.5.1-1.1.6-1.3 1.2.1 0 .2-.1.3-.1.3-.1.5 0 .6.1.2.2 16.3 17.3 16.6 17.8 0 0 0 .1.1.1.1.2.2.6.1.9h.2c.7-.5 1-1.5.7-2.1z"/><path class="st21" d="M150.7 91.7l-5-2.9-4.5 2.6 5 2.9z"/><path class="st17" d="M141.2 91.4v4.2l5 2.9v-4.2z"/><path class="st8" d="M150.7 91.7v4.2l-4.5 2.6v-4.2z"/><path class="st5" d="M234.2 145.1l-14.6 8.5-25 14.5v-21.7l21-12.1z"/><path class="st13" d="M217.8 138.6l-5 2.6c-.4.2-.8 0-.8-.4v-1.7c0-.3.2-.7.5-.8l2.1-1.1-.3-2.4.8-.4.3 2.4 2.2-1.1c.4-.2.8 0 .8.4v1.8c-.1.2-.3.5-.6.7zm16.5 6.5l-3.5-1.5-36 20.5-.2 4z"/><path class="st2" d="M205.5 155.5v6.4l-10.9 6.2v-6.4z"/><path class="st23" d="M194.6 146.4l39.7-1.3v-21.6zm26.4 6.4l-26.4 15.3v-14.5z"/><path class="st24" d="M193.6 178.6l10.2-5.8v7.8l-10.2 5.8z"/><path class="st9" d="M202.4 174.4v5.5l-8.1 4.6v.7l8.8-5V174z"/><path class="st25" d="M202.4 179.9l-8.1 4.6v.7l8.8-5z"/><path class="st26" d="M202.3 174.4v5.5l-4 2.3-4 2.3V179l4-2.3z"/><path class="st24" d="M225.1 160.4l10.2-5.8v7.8l-10.2 5.9z"/><path class="st9" d="M233.9 156.2v5.5l-8.1 4.7v.6l8.8-5v-6.2z"/><path class="st25" d="M233.9 161.7l-8.1 4.7v.6l8.8-5z"/><path class="st26" d="M233.8 156.2v5.5l-4 2.3-4 2.3v-5.5l4-2.3z"/><g id="XMLID_57_"><path id="XMLID_60_" class="st27" d="M197.1 170.4l-3.1 1.8-.7-.4 3.2-1.8z"/><path id="XMLID_59_" class="st28" d="M197.1 170.4v2.5l-3.1 1.8v-2.5z"/><path id="XMLID_58_" class="st29" d="M194 172.2v2.5l-.7-.4v-2.5z"/></g><g id="XMLID_53_"><path id="XMLID_56_" class="st27" d="M235.3 148l-3.2 1.9-.6-.4 3.1-1.8z"/><path id="XMLID_55_" class="st28" d="M235.3 148v2.5l-3.2 1.9v-2.5z"/><path id="XMLID_54_" class="st29" d="M232.1 149.9v2.5l-.6-.4v-2.5z"/></g><path id="XMLID_52_" class="st13" d="M221 155.8v.7l-5.5 3.3v-.8z"/><path class="st19" d="M221 155.8l-.3.1v.5l-5.2 3.2v.2l5.5-3.3z"/><path class="st30" d="M220.7 155.9v.5l.3.1v-.7z"/><path id="XMLID_51_" class="st13" d="M214.4 159.6v.8l-5.5 3.3v-.8z"/><path class="st19" d="M214.4 159.6l-.2.2v.5l-5.3 3.1v.3l5.5-3.3z"/><path class="st30" d="M214.2 159.8v.5l.2.1v-.8z"/><path id="XMLID_49_" class="st13" d="M214.4 160.8v.7l-5.5 3.3v-.8z"/><path class="st19" d="M214.4 160.8l-.2.1v.5l-5.3 3.2v.2l5.5-3.3z"/><path class="st30" d="M214.2 160.9v.5l.2.1v-.7z"/><path id="XMLID_40_" class="st13" d="M221 156.9v.8l-5.5 3.2v-.7z"/><path class="st19" d="M221 156.9l-.3.1v.6l-5.2 3.1v.2l5.5-3.2z"/><path class="st30" d="M220.7 157v.6l.3.1v-.8z"/><path id="XMLID_39_" class="st13" d="M214.4 161.9v.8l-5.5 3.2v-.7z"/><path class="st19" d="M214.4 161.9l-.2.1v.6l-5.3 3.1v.2l5.5-3.2z"/><path class="st30" d="M214.2 162v.6l.2.1v-.8z"/><path id="XMLID_38_" class="st13" d="M221 158v.8l-5.5 3.3v-.8z"/><path class="st19" d="M221 158l-.3.2v.5l-5.2 3.1v.3l5.5-3.3z"/><path class="st30" d="M220.7 158.2v.5l.3.1v-.8z"/><path id="XMLID_37_" class="st13" d="M214.4 163v.8l-5.5 3.3v-.8z"/><path class="st19" d="M214.4 163l-.2.2v.5l-5.3 3.1v.3l5.5-3.3z"/><path class="st30" d="M214.2 163.2v.5l.2.1v-.8z"/><path id="XMLID_36_" class="st13" d="M221 159.2v.7l-5.5 3.3v-.8z"/><path class="st19" d="M221 159.2l-.3.1v.5l-5.2 3.2v.2l5.5-3.3z"/><path class="st30" d="M220.7 159.3v.5l.3.1v-.7z"/><path id="XMLID_35_" class="st13" d="M219.6 168.3v3l-8.2 4.8V173z"/><path class="st19" d="M219.6 168.3l-.4.2v2.7l-7.8 4.6v.3l8.2-4.8z"/><path class="st30" d="M219.2 168.5v2.7l.4.1v-3z"/><path d="M202.3 174.4v5.5l-4 2.3v-5.5zm27.5-15.9v5.5l-4 2.3v-5.5z" fill="#fecd67"/><path class="st12" d="M213.9 167.9c0 .9.6 1.3 1.4.8.8-.5 1.4-1.6 1.4-2.5s-.6-1.3-1.4-.8-1.4 1.6-1.4 2.5z"/><path class="st5" d="M193.6 138.9l41.7-24v5.8L193.6 145z"/><path class="st13" d="M234.2 115.5v4.8l-40.6 23.6v1.1l41.7-24.3v-5.8z"/><path class="st14" d="M234.2 120.3l1.1.4-41.7 24.3v-1.1z"/><path class="st23" d="M235.3 120.7l-41.7 18.2 41.7-24z"/><path class="st5" d="M47 86.4l7.3 4.1V62.3L47 58.2zm8.9 5.1l7.5 4.4V67.7l-7.5-4.4zm49.5 29.1l7.2 4.1V96.5l-7.2-4.1zm8.9 5.1l7.5 4.4v-28.2l-7.5-4.4zm59.2 6.1V160l-7.2-4.1v-28.2zm9.2 5.4v28.2l-7.5-4.4v-28.2z"/><path class="st11" d="M47 72.5l7.3-4.1v-6.1L47 58.2zm8.9-5.1v-4.1l3.6 2.1z"/><path class="st6" d="M79.6 77.4L50 94.7l-3-8.3-.9-3.7-8.3-4.8V53.1l21.3 12.4zm58.6 34.1l-26.8 15.8-6-6.7-1-4-31.7-18.5L94 85.8zm51.6 30v9.8l-16.3 9.7-7.2-5.1-1-3.9-32.6-18.9 21.4-12.4z"/><path class="st3" d="M165.3 126.6v44.2l18.4 10.5v-44.2l-18.4-10.5zm8.2 33.4l-7.3-4.1v-28.2l7.3 4.1V160zm9.2 5.4l-7.5-4.4v-28.2l7.5 4.4v28.2zm-78.3-74.1v44.2l18.4 10.5v-44.2l-18.4-10.5zm8.2 33.4l-7.3-4.1V92.4l7.3 4.1v28.2zm9.2 5.4l-7.5-4.4V97.5l7.5 4.4v28.2zM46.1 57.2v44.2L64.4 112V67.7L46.1 57.2zm8.2 33.3L47 86.4V58.2l7.3 4.1v28.2zm9.2 5.4L56 91.6V63.3l7.5 4.4v28.2zm20.8-16.8l1 .7v25.8h-1zm59 34.4l1 .7V140h-1z"/></svg>