<svg version="1.1" id="Слой_1" xmlns="http://www.w3.org/2000/svg" x="0" y="0" viewBox="0 0 300 200" xml:space="preserve"><style>.st0{fill:#292f33}.st3{fill:#414141}.st4{fill:#262626}.st5{fill:#6b6b6b}.st6{fill:gray}.st7{fill:#a6a6a6}.st8{fill:#68a1ad}.st9{fill:#303030}.st10{fill:#4d4d4d}.st11{fill:#ccc}.st12{fill:#8f8f8f}.st13{fill:#80b1bc}.st14{fill:#93d6e6}.st15{fill:#333}.st16{fill:#6e6e6e}.st17{fill:#a3edff}.st19{fill:#b8f1ff}.st22{fill:#de6000}.st24{fill:#fecd67}.st25{fill:#de9400}.st26{fill:#d1d1d1}.st27{fill:#595959}.st29{fill:#3b3b3b}</style><path class="st0" d="M193.2 30c-1.8 1.8-4.7 1.8-6.4 0-1.8-1.8-1.8-4.7 0-6.4 5.5-5.5 12.1-9.9 19.3-12.8 7.1-3 14.8-4.5 22.7-4.5 7.8 0 15.5 1.6 22.7 4.5 7.2 3 13.7 7.3 19.3 12.8 1.8 1.8 1.8 4.7 0 6.4s-4.7 1.8-6.4 0c-4.7-4.7-10.3-8.4-16.3-10.9s-12.5-3.8-19.2-3.8c-6.7 0-13.2 1.3-19.2 3.8-6.2 2.5-11.7 6.2-16.5 10.9z"/><path class="st0" d="M206.2 42.9c-1.8 1.8-4.7 1.8-6.4 0-1.8-1.8-1.8-4.7 0-6.4 3.8-3.8 8.4-6.8 13.3-8.9 4.9-2 10.3-3.1 15.7-3.1 5.4 0 10.7 1.1 15.7 3.1 4.9 2 9.5 5.1 13.3 8.9 1.8 1.8 1.8 4.7 0 6.4-1.8 1.8-4.7 1.8-6.4 0-3-3-6.5-5.3-10.3-6.9-3.8-1.6-8-2.4-12.2-2.4-4.3 0-8.4.8-12.2 2.4-4 1.5-7.5 3.9-10.5 6.9z"/><path class="st0" d="M219.1 55.8c-1.8 1.8-4.7 1.8-6.4 0-1.8-1.8-1.8-4.7 0-6.4 2.1-2.1 4.6-3.8 7.4-4.9 2.8-1.1 5.7-1.7 8.7-1.7 3 0 6 .6 8.7 1.7 2.8 1.1 5.3 2.8 7.4 4.9 1.8 1.8 1.8 4.7 0 6.4-1.8 1.8-4.7 1.8-6.4 0-1.3-1.3-2.8-2.3-4.4-3-1.6-.7-3.4-1-5.3-1-1.8 0-3.6.4-5.3 1-1.6.7-3.1 1.7-4.4 3z"/><path d="M228.7 72.3c3.8 0 6.8-3.1 6.8-6.8s-3.1-6.8-6.8-6.8c-3.8 0-6.8 3.1-6.8 6.8s3.1 6.8 6.8 6.8z" fill-rule="evenodd" clip-rule="evenodd" fill="#292f33"/><path class="st3" d="M263.7 145.8l-6-3.5v6.3l6 4.9z"/><path class="st4" d="M263.7 153.5l2.3-1.4v-7.8l-2.3 1.5z"/><path class="st5" d="M257.7 142.3l2.4-1.4 5.9 3.4-2.3 1.5z"/><path class="st6" d="M36.4 75.4L79.1 51v4.5L36.4 80z"/><path class="st7" d="M36.4 80l-1.8-1v-4.6l1.8 1z"/><path class="st5" d="M79.1 51l-1.7-1.1-42.8 24.5 1.8 1z"/><path class="st4" d="M198.1 98.7l-1-1.6 6.2-3.8c1.7-1.1 2.7-2.9 2.7-4.9V85h1.9v3.4c0 2.7-1.3 5.1-3.6 6.5l-6.2 3.8z"/><path class="st3" d="M210 83.4c-1.1.6-2.1 1.2-3.1 1.8-.6.3-1.2.7-1.8 1-.2.1-.3.3-.5.4-.1.1-.1.3-.2.4-.2.3-.6.5-.9.7-1.2.5-2.3-.7-2.5-1.8-.3-1.4.2-3.1 1.3-4 1-.9 2.1-1.5 3.3-2.2 1.2-.7 2.5-1.4 4-1 .7.2 1.3.6 1.6 1.3.2.4.1.5 0 .9-.1.3-.3.6-.3 1 0 .3 0 .5-.1.8-.2.2-.5.5-.8.7z"/><path class="st4" d="M210.8 83.9c-.4.4-.9.6-1.4.9l-2.7 1.5c-1.1.6-3.3 2.4-4.4.9-.5-.7-.5-1.9-.2-2.7.2-.8.7-1.4 1.2-2 .4-.5 1.1-.7 1.7-1.1.7-.4 1.4-.8 2-1.2 1.2-.7 2.7-2.1 4-1 .6.4.7 1.1.7 1.8s.1 1.6-.4 2.2c-.1.3-.3.5-.5.7z"/><path class="st3" d="M204.3 91.9l-9-24.8L119.5 21l-6 16.1-22.9-4.9v23l17.5 10.1v-2.8c0-4 2.8-5.7 6.4-3.6l4.9 2.8c3.5 2 28.3 21.9 28.3 25.9v2.8l60.5 35v-2.8c0-4 2.8-5.7 6.4-3.6l24.9 13.7c3.5 2 6.4 6.9 6.4 11v2.8l15.5 9v-23.1l-57.1-40.5z"/><path class="st8" d="M36.4 63l54.2-30.8 22.9 4.9-54.2 30.8zm104.8 34.9l54.1-30.8 9 24.8-54.1 30.8z"/><path class="st9" d="M143.5 98.8l50.8-28.9L202 91l-50.8 28.9z"/><path class="st3" d="M200.8 90.6l-49.1 27.9-7-19.3 35.9-20.4 13.2-7.5 6.9 19.1z"/><path class="st8" d="M52.8 100.4l23.5-14.2-22.6 2.1-3.7 7.9z"/><path class="st3" d="M80 107.1c0-6.3-4.5-14-9.9-17.2-2.7-1.6-5.2-1.7-7-.7l-7.3 4.2 14.4 24.1 7-4c1.7-1.1 2.8-3.3 2.8-6.4z"/><path class="st4" d="M73 111c0 6.3-4.5 8.8-9.9 5.7-5.5-3.2-9.9-10.9-9.9-17.2 0-6.3 4.5-8.8 9.9-5.7C68.6 97 73 104.7 73 111z"/><path class="st10" d="M68.9 109.9c0 .7-.1 1.9-.7 2.7l-.3.3c-.1.1-.3.3-.5.3-.2.1-.5.2-.8.2h-.5c-.6-.1-1.3-.3-2-.8-1.3-.8-2.6-1.9-3.6-3.3-.4-.6-.9-1.2-1.2-1.8-1.3-2.2-2.1-4.6-2.1-6.8v-.1c0-.4.1-1.1.2-1.6.2-.9.8-1.8 2-1.8.7 0 1.6.3 2.5.8.1.1.2.1.3.2h.1c.3.2.5.4.8.6.1.1.3.2.4.3l.3.3c.1.1.2.1.2.2l.6.6c1.2 1.2 2.2 2.8 2.9 4.4.1.2.2.5.3.7.2.4.3.8.4 1.2v.2c.1.2.1.4.2.7.1.4.2.9.2 1.3.3.3.3.8.3 1.2z"/><path class="st11" d="M67.9 112.5c-.7 0-1.6-.3-2.5-.8-3.7-2.2-6.9-7.6-6.9-11.9 0-.6.1-1.8.6-2.6-1.6.3-1.8 2.5-1.8 3.5 0 4.3 3.2 9.7 6.9 11.9.9.5 1.8.8 2.5.8.8 0 1.3-.4 1.7-.9h-.5z"/><path class="st6" d="M68.3 112.6l-1.7-3.6c.5-.4.9-1.1.9-2.1v-.3l1 .2v-.2c-.1-.4-.3-.8-.4-1.2-.1-.2-.2-.4-.3-.7l-.7-.1c-.5-1.2-1.3-2.3-2.2-3.2v-1.1l-.6-.6-.2-.2-.3-.3c-.1-.1-.3-.2-.4-.3v1.6c-1-.3-1.8-.1-2.2.6l-2.6-2.5c-.2.6-.2 1.2-.2 1.6l2.4 2.2v.4c0 1 .3 2.1.9 3.1l-1.1 1.2 1.2 1.8 1.2-1.2c.4.5.9.9 1.4 1.1.5.3.9.4 1.4.5l1.7 3.6h1l-.2-.3z"/><path class="st11" d="M65.3 105.4c0-.7-.5-1.5-1.1-1.9-.3-.2-.6-.2-.8-.1l-.8.5 1.6 2.7.8-.4c.2-.2.3-.5.3-.8z"/><path class="st12" d="M64.5 105.8c0 .7-.5 1-1.1.6-.6-.3-1.1-1.2-1.1-1.9s.5-1 1.1-.6c.6.4 1.1 1.2 1.1 1.9z"/><path class="st8" d="M161 165l23.5-14.2-22.6 2.1-3.7 7.9z"/><path class="st3" d="M187.9 170.5c0-6.3-4.5-14-9.9-17.2-2.7-1.6-5.2-1.7-7-.7l-7.3 4.2 14.4 24.1 7-4c1.7-1.1 2.8-3.3 2.8-6.4z"/><path class="st4" d="M180.9 174.4c0 6.3-4.5 8.8-9.9 5.7-5.5-3.2-9.9-10.9-9.9-17.2 0-6.3 4.5-8.8 9.9-5.7 5.4 3.3 9.9 10.9 9.9 17.2z"/><path class="st10" d="M176.8 173.3c0 .7-.1 1.9-.7 2.7l-.3.3c-.1.1-.3.3-.5.3-.2.1-.5.2-.8.2h-.5c-.6-.1-1.3-.3-2-.8-1.3-.8-2.6-1.9-3.6-3.3-.4-.6-.9-1.2-1.2-1.8-1.3-2.2-2.1-4.6-2.1-6.8v-.1c0-.4.1-1.1.2-1.6.2-.9.8-1.8 2-1.8.7 0 1.6.3 2.5.8.1.1.2.1.3.2h.1c.3.2.5.4.8.6.1.1.3.2.4.3l.3.3c.1.1.2.1.2.2l.6.6c1.2 1.2 2.2 2.8 2.9 4.4.1.2.2.5.3.7.2.4.3.8.4 1.2v.2c.1.2.1.4.2.7.1.4.2.9.2 1.3.2.4.3.8.3 1.2z"/><path class="st11" d="M175.7 175.9c-.7 0-1.6-.3-2.5-.8-3.7-2.2-6.9-7.6-6.9-11.9 0-.6.1-1.8.6-2.6-1.6.3-1.8 2.5-1.8 3.5 0 4.3 3.2 9.7 6.9 11.9.9.5 1.8.8 2.5.8.8 0 1.3-.4 1.7-.9h-.5z"/><path class="st6" d="M176.1 176l-1.7-3.6c.5-.4.9-1.1.9-2.1v-.3l1 .2v-.2c-.1-.4-.3-.8-.4-1.2-.1-.2-.2-.4-.3-.7l-.7-.1c-.5-1.2-1.3-2.3-2.2-3.2v-1.1l-.6-.6-.2-.2-.3-.3c-.1-.1-.3-.2-.4-.3v1.6c-1-.3-1.8-.1-2.2.6l-2.6-2.5c-.2.6-.2 1.2-.2 1.6l2.4 2.2v.4c0 1 .3 2.1.9 3.1l-1.1 1.2 1.2 1.8 1.2-1.2c.4.5.9.9 1.4 1.1.5.3.9.4 1.4.5l1.7 3.6h1l-.2-.3z"/><path class="st11" d="M173.1 168.8c0-.7-.5-1.5-1.1-1.9-.3-.2-.6-.2-.8-.1l-.8.5 1.6 2.7.8-.4c.2-.2.3-.5.3-.8z"/><path class="st12" d="M172.4 169.2c0 .7-.5 1-1.1.6-.6-.4-1.1-1.2-1.1-1.9s.5-1 1.1-.6c.6.4 1.1 1.2 1.1 1.9z"/><path class="st13" d="M207.1 163v28l-25.5-14.1-.9-.5c.2-.8.3-1.8.3-2.8 0-6.4-4.5-14.3-10.2-17.5-5.3-3.1-9.7-.9-10.1 4.8v2.1c0 .3.1.7.1 1 0 .3.1.6.2.9h-.1l-51.1-30.7L73 112c.1-.4.1-.9.1-1.3v-1.3c0-.3-.1-.7-.1-1v-.1c-.1-.3-.1-.7-.2-1-1.2-5.6-5.1-11.5-9.8-14.1-4.8-2.8-8.8-1.3-9.9 3.2-.1.3-.1.5-.2.8-.1.4-.1.8-.1 1.2v.5c0 .5 0 .9.1 1.4L41 93.5l-4.6-2.7V63l22.9 4.9 5.9-16.1 75.9 46.1 9 24.8 57 40.3z"/><path class="st8" d="M148.4 125.3v24.8l-1-.6-72.6-44.2v-.2c0-6.4-4.5-14.3-10.2-17.5-1.3-.8-2.6-1.2-3.7-1.3V72.5l87.5 52.8z"/><path class="st13" d="M75.7 104.8c-.1-6.7-4.9-14.7-10.6-18-1.1-.6-2.2-1.1-3.3-1.3V72.7l85.6 51.4v24.4l-71.7-43.7z"/><path class="st8" d="M207.1 163.7L36.4 63.7l22.9 4.9 89.1 53.6z"/><path class="st14" d="M207.1 163L36.4 63l22.9 4.9 89.1 53.6z"/><path class="st4" d="M60.9 68.7l5.4-13.6 74 45.1 8.1 21.3z"/><path class="st3" d="M146.5 119.3l-15.4-9.3-36.4-22-20.2-12.3-12.4-7.4v-.1l4.7-11.7 21.3 13 20.1 12.3 31.3 19 1.7 4.5z"/><path class="st15" d="M141.2 105.3l-10.1 4.7-36.4-22 13.5-6.2 31.3 19z"/><path class="st16" d="M74.4 61.2l-12.3 7.1v-.1l4.7-11.7z"/><path class="st15" d="M88.1 69.5l-13.6 6.2-12.4-7.4v-.1l4.7-11.7z"/><path class="st8" d="M207.1 190.9l54.2-30.8v-27.9L207.1 163z"/><path class="st17" d="M207.1 163l54.2-30.8-57-40.3-54.1 30.8z"/><path class="st14" d="M141.2 97.9L65.3 51.8 119.5 21l75.8 46.1z"/><path fill="#636363" d="M200.7 90.4l-20.1-11.6 13.2-7.5z"/><path class="st3" d="M175.7 87.8l-2 1.2c-.2.1-.4 0-.4-.2l-.2-.8c0-.1 0-.3.1-.4l.8-.5-.5-1.1.3-.2.5 1.1.9-.5c.2-.1.4 0 .4.2l.3.8c0 .2-.1.4-.2.4z"/><path class="st9" d="M200.9 90.6l-3.1-1.9-47.2 26.7 1.1 3.1z"/><path class="st15" d="M146.8 105l41.1-7.1-36.2 20.6zm-2.1-5.8l56.1-8.6-7-19.3z"/><path class="st3" d="M176 88.4l-5.1 3c-.4.2-1 0-1.1-.4l-.6-2c-.1-.4 0-.7.4-.9l2.1-1.3-1-2.3.8-.4 1 2.3 2.2-1.3c.4-.2 1 0 1.1.4l.6 2c0 .3-.1.7-.4.9z"/><path class="st8" d="M157.8 118.4l60.5 38.3 30.4-17.3-52-43.2z"/><path class="st14" d="M158.8 117.8l60.6 38.2 30.4-17.3-52.1-43.1z"/><path class="st8" d="M233.7 147.9l-55-41.4.9-.5 55.1 41.3z"/><path class="st9" d="M165 119.4l-2.3-2.1-.4.2 2.4 2.1zm.9-.6l-2.3-2-.4.2 2.3 2.1zm.9-.5l-2.3-2-.4.2 2.3 2zm.9-.5l-2.3-2-.4.2 2.3 2zm.9-.5l-2.3-2-.4.2 2.3 2zm.9-.5l-2.3-2.1-.4.3 2.3 2zm.9-.5l-2.4-2.1-.3.2 2.3 2.1zm.9-.5l-2.4-2.1-.3.2 2.3 2.1zm.8-.5l-2.3-2.1-.3.2 2.3 2.1zm.9-.5l-2.3-2.1-.3.2 2.3 2.1zm.9-.6l-2.3-2-.3.2 2.3 2.1zm.9-.5l-2.3-2-.4.2 2.4 2zm.9-.5l-2.3-2-.4.2 2.4 2zm.9-.5l-2.3-2-.4.2 2.3 2zm.9-.5l-2.3-2.1-.4.2 2.3 2.1zm.9-.5l-2.3-2.1-.4.2 2.3 2.1zm.9-.5l-2.3-2.1-.4.2 2.3 2.1zm.9-.5l-2.3-2.1-.4.2 2.3 2.1zm4.2-2.7l-2.3-2.1-.4.3 2.4 2zm.9-.5l-2.3-2.1-.4.2 2.4 2.1zm.9-.5l-2.3-2.1-.4.2 2.3 2.1zm.9-.5l-2.3-2.1-.4.2 2.3 2.1zm.9-.5l-2.3-2.1-.4.2 2.3 2.1zm.9-.6l-2.3-2-.4.2 2.3 2.1zm.9-.5l-2.3-2-.4.2 2.3 2zm.9-.5l-2.4-2-.3.2 2.3 2zm.9-.5l-2.4-2-.3.2 2.3 2zm.9-.5l-2.4-2.1-.3.2 2.3 2.1zm.8-.5l-2.3-2.1-.3.2 2.3 2.1zm.9-.5l-2.3-2.1-.3.2 2.3 2.1zm.9-.5l-2.3-2.1-.4.2 2.4 2.1zm.9-.6l-2.3-2-.4.2 2.4 2.1zm.9-.5l-2.3-2-.4.2 2.4 2zm.9-.5l-2.3-2-.4.2 2.3 2zm.9-.5l-2.3-2-.4.2 2.3 2zm.9-.5l-2.3-2.1-.4.3 2.3 2z"/><path class="st4" d="M96.4 89.4l-1-.6V73.1l1 .5zm-28.7-17l-1-.6V56.3l1 .6z"/><path id="XMLID_102_" class="st8" d="M64 72.7v3.8l5.5 3.3V76L64 72.7z"/><path class="st19" d="M64.6 76.1V73l-.6-.3v3.8l5.5 3.3v-.7z"/><path class="st13" d="M64.6 73v3.1l-.6.4v-3.8z"/><path class="st11" d="M150.2 139.7l.5 1.1 5.2 3v-1.9z"/><g id="XMLID_98_"><path id="XMLID_101_" fill="#ffc64a" d="M150.2 135.9l4.7 2.8 1-.5-4.8-2.8z"/><path id="XMLID_100_" fill="#ffa200" d="M150.2 135.9v3.8l4.7 2.8v-3.8l-4.7-2.8z"/><path id="XMLID_99_" class="st22" d="M154.9 138.7v3.8l1-.6v-3.7z"/></g><path fill="#3d3d3d" d="M207.1 162l-56.2-39.7-.7.4 56.9 40.3 54.2-30.8-.8-.6z"/><path class="st4" d="M209.6 176.5l54.1-30.7v7.7l-54.1 30.7z"/><path class="st7" d="M209.6 184.2l-2.4-5.6v-3.5l2.4 1.4z"/><path class="st5" d="M263.7 145.8l-2.4-1.5-54.1 30.8 2.4 1.4z"/><path class="st3" d="M207.2 177.9l-6-3.4v7.7l6 3.4z"/><path class="st4" d="M207.2 185.6l2.4-1.4v-7.7l-2.4 1.4z"/><path class="st5" d="M201.2 174.5l2.4-1.4 6 3.4-2.4 1.4z"/><path class="st13" d="M207.1 164.4l14.9-8.5v9.9l-14.9 8.5z"/><path class="st24" d="M207.9 164.8l13.3-7.6v8.2l-13.3 7.6z"/><path class="st13" d="M219.8 158.1v6.5l-11.9 6.8v1.6l13.3-7.6v-8.2z"/><path class="st17" d="M221.2 165.4l-1.4-.8-11.9 6.8v1.6z"/><path class="st25" d="M41.5 72.1l-5.1-3v5.5l5.1 3z"/><path class="st13" d="M246.4 142.1l14.9-8.5v10l-14.9 8.5z"/><path class="st24" d="M247.2 142.6l13.3-7.6v8.1l-13.3 7.6z"/><path class="st13" d="M259.1 135.8v6.6l-11.9 6.8v1.5l13.3-7.6V135z"/><path class="st17" d="M260.5 143.1l-1.4-.7-11.9 6.8v1.5z"/><path class="st6" d="M223 155.5l22.4-12.6v9.9L223 165.4z"/><path class="st9" d="M244.4 143.5v8.7L223 164.3v-8.8z"/><path class="st26" d="M244.4 144.2v1.2L223 157.1V156z"/><path class="st27" d="M244.4 144.6v1.2L223 157.5v-1.1z"/><path class="st26" d="M244.4 146.3v1.1L223 159.2V158z"/><path class="st27" d="M244.4 146.7v1.1L223 159.5v-1.1z"/><path class="st26" d="M244.4 148.3v1.2L223 161.2V160z"/><path class="st27" d="M244.4 148.7v1.1L223 161.6v-1.2z"/><path class="st26" d="M244.4 150.4v1.1L223 163.2v-1.1z"/><path class="st27" d="M244.4 150.7v1.2L223 163.6v-1.1z"/><path id="XMLID_97_" class="st8" d="M98.3 92.4v3.8l5.5 3.3v-3.8l-5.5-3.3z"/><path class="st19" d="M98.9 95.8v-3.1l-.6-.3v3.8l5.5 3.3v-.8z"/><path class="st13" d="M98.9 92.7v3.1l-.6.4v-3.8z"/><path d="M244.6 158.2v5.1c0 .5-.3 1-.8 1.3l-14.3 8.2c-.6.3-1.3-.1-1.3-.8v-5.1c0-.5.3-1 .7-1.3l14.3-8.2c.7-.3 1.4.1 1.4.8z" fill="#d9eaff"/><path id="XMLID_96_" class="st9" d="M230.8 173.2v2.4l-8.4 4.8V178l8.4-4.8z"/><path class="st27" d="M230.8 173.2l-.3.2v2.1l-8.1 4.5v.4l8.4-4.8v-2.4z"/><path class="st29" d="M230.5 173.4v2.1l.3.1v-2.4z"/><path id="XMLID_95_" class="st9" d="M241.4 167.1v2.5l-8.4 4.7v-2.4l8.3-4.8z"/><path class="st27" d="M241.3 167.1l-.3.2v2.1l-8 4.6v.3l8.4-4.7v-2.5z"/><path class="st29" d="M241 167.3v2.1l.4.2-.1-2.5z"/><path id="XMLID_94_" class="st9" d="M251.8 161.2v2.4l-8.3 4.7v-2.4l8.3-4.7z"/><path class="st27" d="M251.8 161.2l-.3.1v2.1l-8 4.6v.3l8.3-4.7v-2.4z"/><path class="st29" d="M251.5 161.3v2.1l.3.2v-2.4z"/><path class="st8" d="M209.5 191.7l54.1-30.7v.7l-54.1 30.7z"/><path class="st13" d="M209.5 192.4l-2.4-1.4v-.7l2.4 1.4z"/><path class="st17" d="M263.6 161l-2.4-1.4-54.1 30.7 2.4 1.4z"/><path class="st16" d="M160.7 161.8v.9L73 109.9v-.3c0-.4-.1-.8-.1-1.3-.1-.3-.1-.7-.2-1l88 53.6v.9z"/><path class="st4" d="M161 165l-88-53c.1-.4.1-.9.1-1.3v-1.1c0-.4-.1-.8-.1-1.3l87.8 53.5v1.2c0 .3.1.7.1 1 0 .4.1.7.1 1z"/><path class="st16" d="M53 96.4c-.1.3-.1.5-.2.8-.1.4-.1.8-.1 1.2l-16.4-9.8v-2.3L53 96.4z"/><path class="st4" d="M52.8 98.9c0 .5 0 .9.1 1.4L41 93.5l-4.6-2.8v-3.5l16.5 10c-.1.4-.1.8-.1 1.2v.5z"/><path class="st3" d="M38.2 79.2l-5.9-3.4v7.7l5.9 3.5z"/><path class="st4" d="M38.2 87l2.4-1.4v-7.8l-2.4 1.4z"/><path class="st5" d="M32.3 75.8l2.4-1.4 5.9 3.4-2.4 1.4z"/><path class="st25" d="M204.2 163.5v3.6l2.1 1.1v-3.4z"/><path class="st26" d="M207.1 164v2.2L36.4 67.7v-2.3z"/><path fill="#949494" d="M207.1 164.8v2.3L36.4 68.6v-2.3z"/><path class="st8" d="M96.4 117.6l-1-.6V89.5l1 .6z"/><path class="st4" d="M141.3 127c-.4 0-.9-.1-1.3-.3-.8-.5-1.3-1.3-1.3-2.3v-6.5c0-.6.4-1 1-1s1 .4 1 1v6.5c0 .3.2.5.3.5.1 0 .3.1.6 0l2.4-1.6c.5-.3 1.1-.2 1.4.3.3.5.2 1.1-.3 1.4l-2.4 1.6c-.5.3-1 .4-1.4.4z"/><path class="st3" d="M142.6 119.7c-1.1.6-2.1 1.2-3.1 1.8-.6.3-1.2.7-1.8 1-.2.1-.3.3-.5.4-.1.1-.1.3-.2.4-.2.3-.6.5-.9.7-1.2.5-2.3-.7-2.5-1.8-.3-1.4.2-3.1 1.3-4 1-.9 2.1-1.5 3.3-2.2 1.2-.7 2.5-1.4 4-1 .7.2 1.3.6 1.6 1.3.2.4.1.5 0 .9-.1.3-.3.6-.3 1 0 .3 0 .5-.1.8-.2.2-.4.5-.8.7z"/><path class="st4" d="M143.4 120.3c-.4.4-.9.6-1.4.9l-2.7 1.5c-1.1.6-3.3 2.4-4.4.9-.5-.7-.5-1.9-.2-2.7.2-.8.7-1.4 1.2-2 .4-.5 1.1-.7 1.7-1.1.7-.4 1.4-.8 2-1.2 1.2-.7 2.7-2.1 4-1 .6.4.7 1.1.7 1.8s.1 1.6-.4 2.2c-.1.3-.3.5-.5.7z"/><path class="st6" d="M207.1 164.4l-5.1-3v9.9l5.1 3z"/><path class="st22" d="M206.3 164.8l-3.5-2.1v8.2l3.5 2.1z"/><path class="st7" d="M204.2 163.5v6.6l2.1 1.3v1.6l-3.5-2.1v-8.2z"/><path fill="#c9c9c9" d="M202.8 170.9l1.4-.8 2.1 1.3v1.6z"/><path class="st8" d="M148.4 121.5v27.6l-1-.6v-27.6zM61.8 69.2v16.2l-.9-.5V68.7z"/></svg>