<?xml version="1.0" encoding="utf-8"?>
<!-- Generator: Adobe Illustrator 22.0.0, SVG Export Plug-In . SVG Version: 6.00 Build 0)  -->
<svg version="1.1" id="Capa_1" xmlns="http://www.w3.org/2000/svg" xmlns:xlink="http://www.w3.org/1999/xlink" x="0px" y="0px"
	 viewBox="0 0 512 512" style="enable-background:new 0 0 512 512;" xml:space="preserve">
<style type="text/css">
	.st0{fill:#292F33;}
	.st1{fill:#058BFF;}
</style>
<g>
	<path class="st0" d="M467.3,455.2L399.8,292c-1.7-4.2-6.5-6.1-10.6-4.4s-6.1,6.5-4.4,10.6l61.1,147.5l-55.7-16.1
		c-3.7-1.1-7.6,0.6-9.4,3.9l-28,50.8l-65.6-158.3c75.7-14.6,133-81.3,133-161.2C420.1,74.4,346.5,0.8,256,0.8S91.9,74.4,91.9,164.9
		c0,36.7,12.1,70.5,32.5,97.9L44.7,455.2c-1.2,2.9-0.6,6.2,1.5,8.5c2.1,2.3,5.3,3.3,8.3,2.4l65.7-19.1l33,60
		c1.4,2.6,4.2,4.2,7.1,4.2c0.1,0,0.3,0,0.5,0c3.1-0.2,5.9-2.1,7.1-5L231,353.8c1.7-4.2-0.3-8.9-4.4-10.6c-4.2-1.7-8.9,0.3-10.6,4.4
		l-56.7,136.8l-28-50.8c-1.8-3.3-5.7-5-9.4-3.9l-55.7,16.1l69.9-168.9c30,32.1,72.6,52.1,119.9,52.1c4.9,0,9.7-0.2,14.5-0.6
		l73.7,177.8c1.2,2.9,3.9,4.8,7.1,5c0.2,0,0.3,0,0.5,0c3,0,5.7-1.6,7.1-4.2l33-60l65.7,19.1c3,0.9,6.2-0.1,8.3-2.4
		C468,461.4,468.5,458.1,467.3,455.2L467.3,455.2z M108.2,164.9c0-81.5,66.3-147.8,147.8-147.8s147.8,66.3,147.8,147.8
		S337.5,312.7,256,312.7S108.2,246.4,108.2,164.9L108.2,164.9z"/>
	<path class="st1" d="M350.1,134.3c-0.9-2.9-3.4-5-6.4-5.5l-54.8-9.2l-25.7-49.3c-1.4-2.7-4.2-4.4-7.2-4.4c-3,0-5.8,1.7-7.2,4.4
		l-25.7,49.3l-54.8,9.2c-3,0.5-5.5,2.6-6.4,5.5c-0.9,2.9-0.2,6.1,1.9,8.2l38.9,39.7l-8.2,55c-0.4,3,0.8,6,3.3,7.8
		c2.5,1.8,5.7,2.1,8.4,0.7l49.8-24.8l49.8,24.8c1.2,0.6,2.4,0.9,3.6,0.9c1.7,0,3.4-0.5,4.8-1.6c2.5-1.8,3.7-4.8,3.3-7.8l-8.2-55
		l38.9-39.7C350.3,140.4,351.1,137.2,350.1,134.3z M294.8,173.7c-1.8,1.8-2.6,4.4-2.2,6.9l6.5,43.5l-39.4-19.6
		c-1.1-0.6-2.4-0.9-3.6-0.9c-1.2,0-2.5,0.3-3.6,0.9L213,224.1l6.5-43.5c0.4-2.5-0.5-5.1-2.2-6.9l-30.8-31.4l43.4-7.3
		c2.5-0.4,4.7-2,5.9-4.3l20.3-39l20.3,39c1.2,2.3,3.4,3.8,5.9,4.3l43.4,7.3L294.8,173.7L294.8,173.7z"/>
	<path class="st0" d="M379.4,173.1c-4.5-0.6-8.6,2.5-9.1,7c-7.6,57-56.7,100-114.2,100c-63.6,0-115.3-51.7-115.3-115.3
		S192.4,49.6,256,49.6c57.6,0,106.7,43,114.2,100c0.6,4.5,4.7,7.6,9.1,7c4.5-0.6,7.6-4.7,7-9.1C377.8,82.4,321.7,33.3,256,33.3
		c-72.5,0-131.5,59-131.5,131.5s59,131.5,131.5,131.5c65.7,0,121.8-49.1,130.4-114.2C387,177.8,383.9,173.7,379.4,173.1L379.4,173.1
		z"/>
</g>
</svg>
