<?xml version="1.0" encoding="utf-8"?>
<!-- Generator: Adobe Illustrator 22.0.0, SVG Export Plug-In . SVG Version: 6.00 Build 0)  -->
<svg version="1.1" id="Слой_1" xmlns="http://www.w3.org/2000/svg" xmlns:xlink="http://www.w3.org/1999/xlink" x="0px" y="0px"
	 viewBox="0 0 512 512" style="enable-background:new 0 0 512 512;" xml:space="preserve">
<style type="text/css">
	.st0{fill:#B01968;}
	.st1{fill:#9B1662;enable-background:new    ;}
	.st2{fill:#509FD7;}
	.st3{fill:#DAD7DC;}
	.st4{fill:#F1622A;}
	.st5{fill:#FEED32;}
	.st6{fill:#D5693C;}
</style>
<circle class="st0" cx="256" cy="256" r="256"/>
<path class="st1" d="M510.6,229.6c0.9,8.6,1.4,17.4,1.4,26.4c0,141.4-114.6,256-256,256c-65.8,0-125.7-24.8-171-65.6
	c-27.6-24.8-49.8-55.5-64.6-90.1c0-0.2-0.1-0.3-0.2-0.4c-0.7-1.8-1.4-3.6-2.1-5.3c-0.6-1.7-1.3-3.3-2-5c-1.2-3.3-2.4-6.7-3.5-10
	c0-0.2-0.1-0.3-0.2-0.4c-0.1-0.4-0.2-0.8-0.4-1.2c-0.9-2.9-1.8-5.8-2.6-8.8c-0.1-0.3-0.2-0.6-0.2-0.8
	c23.5-42.2,57.5-77.8,98.5-103.2c-12.2-18.6-24.4-40.5-24.4-54c0-27,21.8-48.8,48.8-48.8c12.8,0,24.5,5,33.2,13.1l0-0.1l0.8,0.8
	c0.3,0.3,0.6,0.6,0.9,0.9l48.8,48.8c13-1.8,26.4-2.8,39.9-2.8c8.4,0,16.6,0.4,24.8,1.1c39.8,3.5,77.3,15.2,110.6,33.6
	c-0.2-1.5-0.4-3-0.4-4.3c0-22.7,18.4-41.1,41.1-41.1c10.4,0,19.9,3.9,27.1,10.3l0.2-0.2L510.6,229.6z"/>
<path class="st2" d="M256,179C149.9,179,57.5,237.7,9.3,324.3C39.2,432.5,138.3,512,256,512c117.7,0,216.8-79.5,246.7-187.7
	C454.5,237.7,362.1,179,256,179z"/>
<path class="st3" d="M256,179C149.9,179,57.4,237.7,9.3,324.3c3,11,6.7,21.7,11.1,32c4.2-4.7,8.5-9.4,12.1-14.5
	c5.1-7.2,8.9-15.2,14.1-22.3c20.2-27.4,59-36.6,92.1-28.5c3.3-5.5,0-13.7-6.2-15.3c5.9-2.1,12.1-3.1,18.4-3
	c-3.4-2.6-6.9-5.2-10.3-7.8c8.8-3.9,19.6-3,27.7,2.2c-10.3,5-15.9,18-12.7,28.9c5.1,0.1,10.3,0.2,15.4,0.2
	c2.1-17.6,4.5-36.1,15.4-50.1c2.9-3.7,6.5-7.5,6.3-12.2c-0.1-4.7-7.3-8.3-9.5-4.1c-0.5-4.8,1.4-9.9,4.9-13.2
	c-16.2,1.1-32.1,6.5-45.6,15.4c5.5-5.4,8.6-12.8,13.3-18.9c4.7-6.1,12.5-11.2,19.8-8.8c2.7,0.9,5,2.7,7.5,4
	c13.6,7.2,32.9-4,33.5-19.4c5.6,2.1,11.3,4.2,16.9,6.4c0.9-4.8,6.2-8.2,10.9-7c7.6,10-2,24-12.2,31.2s-23.1,15-23.4,27.5
	c9.4,5.3,21.3,0.6,30.1-5.5c8.9-6.2,17.2-14.1,27.9-15.7c3.9-0.6,7.9-0.3,11.5-1.7c4.8-1.8,8-6.2,11.4-10.1
	c3.3-3.9,7.6-7.7,12.7-7.9c5.1-0.1,10.2,5.7,7.5,10.1c6.6-3.1,10.1-11.7,7.5-18.5c2.9,0.1,5.8-0.7,8.4-1.9c8,7.8,17.5,14.1,28,18.1
	c4.5,1.8,10.3,5,9,9.6c-0.5,1.8-2,3.1-3.2,4.6c-4.4,5.2-4.9,13.3-1.3,19.1c-8.6-11.4-24.9-16.4-38.4-11.7c3.9,6.6-1.1,14.7-5.1,21.3
	c-4,6.6-6.1,16.9,0.6,20.5c3,1.6,7.6,1.7,8.8,4.9c1.2,3.2-2.3,7,1.9,10.2c3.2,2.3,7.9,1.3,9.9-2.1c4.1-6.9-0.3-14-3.7-20.3
	c-2.9-5.5-5-12.9-0.8-17.5c3.4-2,7.9,0.7,9.3,4.4c1.4,3.6,0.6,7.7-0.2,11.5l0.2-0.1c8.4-4.1,17.2,4.1,14.9,13.2
	c-0.3,1.2-0.6,2.5-0.8,3.8c-0.5,3.2-0.8,6.7-2.7,9.3c-1.7,2.2-4.3,3.5-6.8,4.7l-43.6,20.4c-5.3,2.5-7.1,9.2-3.8,14l0.3,0.4
	c3.7,5.3,1.1,12.4-5.1,14.4c-4.2,1.4-8.2,3.2-11.7,6c-7.8,6.1-12,17.9-6.5,26.1c21.6,7.2,37.4-33.4,59.2-26.5
	c3.8,10.1,13.1,18,23.7,20.1c3-2.2,1.5-7.1-1-9.8c-2.8-3.1-6.7-6-6-10.4c0.9-5.7,6.6-7.6,11.6-4.8c8.4,4.8,8.3,14.4,11.2,22.4
	c2.4,6.5,9.5,12.8,15.6,9.5c-2.5-3.1-5.1-6.4-5.6-10.3c-0.5-3.9,2.1-8.5,6.1-8.6c7.1-0.2,7.4,10.9,12.7,15.6
	c5,4.4,12.6,1.8,19.2,2.3c10,0.8,18.4,10.5,17.7,20.5c-0.2,3.3-1.6,6.8-4.6,8.1c-1.4,0.6-3.1,0.6-4.6,0.6c-9.8,0-19.7,0-29.5,0
	c-13.7,0-27.7,0-40.6-4.5c-19-6.6-36.1-22.8-56-20c-8.4,1.2-15.9,5.6-23.2,10c-13.8,8.3-28,17-37.5,30.1
	c-7.1,9.7-11.2,21.3-17.9,31.3c-4.7,6.9-10.8,13.3-12.9,21.4c-1.7,6.7-0.4,13.7,1.3,20.4c0.9,3.8,2,7.5,3.1,11.3
	c12.7,1.9,25.7,3,39,3c117.7,0,216.8-79.5,246.7-187.7C454.5,237.7,362.2,179,256,179z"/>
<path class="st4" d="M132.3,118.3c-27,0-48.9,21.9-48.9,48.9s48.9,87.8,48.9,87.8s48.9-60.8,48.9-87.8S159.3,118.3,132.3,118.3z
	 M132.3,194.2c-15,0-27.1-12.1-27.1-27.1c0-15,12.1-27.1,27.1-27.1c15,0,27.1,12.1,27.1,27.1C159.4,182.1,147.2,194.2,132.3,194.2z"
	/>
<path class="st5" d="M202.2,290.3c-27.2,0-49.2,22-49.2,49.2c0,27.2,49.2,88.4,49.2,88.4s49.2-61.2,49.2-88.4
	C251.4,312.4,229.4,290.3,202.2,290.3z M202.2,366.7c-15,0-27.2-12.2-27.2-27.2c0-15,12.2-27.2,27.2-27.2c15,0,27.2,12.2,27.2,27.2
	C229.5,354.5,217.3,366.7,202.2,366.7z"/>
<path class="st6" d="M432.1,168.3c-22.7,0-41.1,18.4-41.1,41.1c0,22.7,41.1,73.8,41.1,73.8s41.1-51.1,41.1-73.8
	S454.8,168.3,432.1,168.3z M432.1,232.1c-12.6,0-22.8-10.2-22.8-22.8c0-12.6,10.2-22.8,22.8-22.8c12.6,0,22.8,10.2,22.8,22.8
	C454.9,222,444.7,232.1,432.1,232.1z"/>
</svg>
