<?xml version="1.0" encoding="utf-8"?>
<!-- Generator: Adobe Illustrator 22.0.0, SVG Export Plug-In . SVG Version: 6.00 Build 0)  -->
<svg version="1.1" id="Слой_1" xmlns="http://www.w3.org/2000/svg" xmlns:xlink="http://www.w3.org/1999/xlink" x="0px" y="0px"
	 viewBox="0 0 511 511" style="enable-background:new 0 0 511 511;" xml:space="preserve">
<style type="text/css">
	.st0{fill:#4E89FA;}
</style>
<path class="st0" d="M256.5,511c-6.1,0-11.9-2.8-15.7-7.6c-16.4-20.8-46-31.4-77.4-42.7c-27.9-10-56.8-20.4-79.6-39.2
	c-27.5-22.7-40.8-53.1-40.8-93.1c0-28.5,6.4-50.9,12.6-72.5c5.9-20.5,11.4-39.8,11.4-64.2c0-31.3-21.6-82.9-29.9-100.1
	c-3.7-7.6-2.2-16.8,3.8-22.8l43.9-43.9c6.4-6.4,16.3-7.7,24.1-3.2c24.4,14.1,42,19.7,60.5,19.3c0.1,0,0.3,0,0.4,0
	c39.1,0,71.9-34.2,72.2-34.5c3.9-4.2,9.3-6.5,15-6.4c5.7,0.1,11.1,2.7,14.8,7c0.2,0.3,30,33.9,71.6,33.9c19.5,0,37.1-5.6,60.9-19.3
	c7.8-4.5,17.7-3.2,24.1,3.2l43.9,43.9c6,6,7.6,15.2,3.8,22.8c-8.3,17.2-29.9,68.7-29.9,100.1c0,24.4,5.5,43.7,11.4,64.2
	c6.2,21.6,12.6,44,12.6,72.5c0,11-8.9,20-20,20c-11,0-20-8.9-20-20c0-22.9-5.4-41.7-11-61.5c-6.4-22.2-12.9-45.2-12.9-75.2
	c0-35.2,18.3-82,28-104.4l-23.6-23.6c-24,12-44.7,17.3-67.3,17.3c-39.4,0-70.2-19.6-87.2-33.7c-17.5,14-48.8,33.7-86.3,33.7
	c-22.1,0.4-42.9-4.8-67.5-17.3L78.8,87.2c9.7,22.5,28,69.3,28,104.4c0,30-6.6,53-12.9,75.2c-5.7,19.9-11,38.6-11,61.5
	c0,58,35.7,73.8,94,94.8c28.1,10.1,57,20.5,79.4,39.3c22.2-19,51.2-29.3,79.4-39.5c20.1-7.2,39-14,55-23.4c9.5-5.6,21.7-2.5,27.4,7
	c5.6,9.5,2.5,21.7-7,27.4c-19.2,11.4-40.9,19.2-61.9,26.7c-31.4,11.3-61.1,21.9-76.8,42.6c-3.7,4.9-9.5,7.8-15.7,7.9
	C256.6,511,256.6,511,256.5,511z M324.4,348.8c11.7-8.5,16.5-23.5,12-37.2l-10.5-32.2l27.6-19.9c11.8-8.5,16.7-23.6,12.1-37.6
	c-4.5-13.9-17.2-23.2-31.7-23.2h-34.4l-10.4-31.9c-4.5-13.7-17.2-23-31.7-23c-14.5,0-27.2,9.2-31.7,23l-10.3,31.9h-34.4
	c-14.5,0-27.2,9.3-31.7,23.2c-4.5,14,0.3,29.1,12.1,37.6l27.6,19.9l-10.5,32.2c-4.5,13.7,0.4,28.7,12,37.2
	c11.7,8.5,27.5,8.6,39.2,0.1l27.7-20l27.7,20c5.9,4.2,12.7,6.4,19.6,6.4C311.6,355.3,318.5,353.1,324.4,348.8z M220,238.5
	c14.8,0,27.3-8.8,31.7-22.4l5.8-17.8l5.8,17.8c4.4,13.6,16.9,22.3,31.7,22.3h19.3l-15.7,11.4c-11.8,8.5-16.6,23.5-12.1,37.3
	l5.7,17.5l-15.1-10.9c-5.7-4.1-12.5-6.3-19.6-6.3c-7.1,0-13.8,2.2-19.6,6.3l-15.1,10.9l5.7-17.5c4.5-13.8-0.4-28.8-12.1-37.3
	l-15.7-11.4H220z M333.9,238.5L333.9,238.5L333.9,238.5z"/>
</svg>
