<?xml version="1.0" encoding="utf-8"?>
<!-- Generator: Adobe Illustrator 22.0.0, SVG Export Plug-In . SVG Version: 6.00 Build 0)  -->
<svg version="1.1" id="Capa_1" xmlns="http://www.w3.org/2000/svg" xmlns:xlink="http://www.w3.org/1999/xlink" x="0px" y="0px"
	 viewBox="0 0 512 512" style="enable-background:new 0 0 512 512;" xml:space="preserve">
<style type="text/css">
	.st0{fill:#B01968;}
	.st1{fill:#9B1662;}
	.st2{fill:#FFC776;}
	.st3{fill:#FFBB61;}
	.st4{fill:#FED080;}
	.st5{fill:#283592;}
	.st6{fill:#1A237E;}
	.st7{fill:#303F9E;}
	.st8{fill:#FEC007;}
	.st9{fill:#FD8469;}
	.st10{fill:#37474F;}
	.st11{fill:#263238;}
	.st12{fill:#3F51B4;}
	.st13{fill:#DC2C00;}
	.st14{fill:#B21F02;}
	.st15{fill:#59595B;}
	.st16{fill:#272525;}
</style>
<circle class="st0" cx="256" cy="256" r="256"/>
<path class="st1" d="M327.9,79.8L123.8,244.6l242.5,242.5c84-40.1,142.7-124.7,145.6-223.3L327.9,79.8z"/>
<path class="st2" d="M387.5,352.3l-83.4-10.7c-10.2-1.3-17.9-10-17.9-20.4v-37.8h-60.3v37.8c0,10.3-7.7,19-17.9,20.4l-83.4,10.7
	c-25.5,3.3-44.7,25-44.7,50.8v38.7C125.7,485.3,187.7,512,256,512s130.3-26.7,176.2-70.3v-38.7C432.2,377.3,413,355.6,387.5,352.3z"
	/>
<path class="st3" d="M387.5,352.3l-83.4-10.7c-10.2-1.3-17.9-10-17.9-20.4v-37.8H256V512c0,0,0,0,0,0c68.3,0,130.3-26.7,176.2-70.3
	v-38.7C432.2,377.3,413,355.6,387.5,352.3z"/>
<path class="st4" d="M305.2,299.1l-14.2,7.6c-21.8,11.7-48,11.7-69.7,0l-14.2-7.6c-26.2-14.1-42.5-41.4-42.5-71.1v-87.4h183V228
	C347.6,257.7,331.3,285.1,305.2,299.1z"/>
<path class="st2" d="M347.6,140.7H256v174.9c12.1,0,24.1-2.9,35-8.8l14.2-7.6c26.2-14.1,42.5-41.4,42.5-71.1L347.6,140.7
	L347.6,140.7z"/>
<path class="st5" d="M387.5,352.3l-70.6-9c-15.2,16.2-36.9,26.4-60.9,26.4s-45.7-10.2-60.9-26.4l-70.6,9
	c-25.5,3.3-44.7,25-44.7,50.8v38.7C125.7,485.3,187.7,512,256,512s130.3-26.7,176.2-70.3v-38.7C432.2,377.3,413,355.6,387.5,352.3z"
	/>
<path class="st6" d="M256,512c68.3,0,130.3-26.7,176.2-70.3v-38.7c0-25.7-19.1-47.5-44.7-50.8l-70.6-9
	c-15.2,16.2-36.9,26.4-60.9,26.4L256,512L256,512z"/>
<path class="st7" d="M251.7,369.6c-22.3-1.1-42.2-11-56.5-26.3l-30.5,3.9l48.3,62.3l43.1-39.7C254.5,369.7,253.1,369.6,251.7,369.6z
	"/>
<path class="st5" d="M256,369.7l43.1,39.7l48.3-62.3l-30.5-3.9c-14.3,15.3-34.3,25.1-56.5,26.3C258.9,369.6,257.5,369.7,256,369.7z"
	/>
<path class="st8" d="M360.3,167.8c0-57.6-46.7-104.3-104.3-104.3s-104.3,46.7-104.3,104.3c0,0.9,0,76.9,0,76.9h18.7v-51.1
	c21.7-25,51.8-41.1,85.6-41.1s63.9,16.1,85.6,41.1v51.1h18.7C360.3,244.6,360.3,168.6,360.3,167.8z"/>
<path class="st9" d="M277.1,244.5c-2.4,0-4.3,1.9-4.3,4.3c0,8.8-6.7,16-15.3,16.8c-0.5,0-1,0.1-1.6,0.1c-9.3,0-16.8-7.6-16.8-16.8
	c0-2.4-1.9-4.3-4.3-4.3c-2.4,0-4.3,1.9-4.3,4.3c0,14,11.4,25.5,25.5,25.5c0.5,0,1,0,1.6-0.1c13.3-0.8,23.9-11.9,23.9-25.4
	C281.4,246.4,279.5,244.5,277.1,244.5z"/>
<path class="st10" d="M366.6,225.9h-21.5v-62.2c0-49.1-40-89.1-89.1-89.1s-89.1,40-89.1,89.1v62.2h-21.4v-62.2
	c0-61,49.6-110.6,110.6-110.6s110.6,49.6,110.6,110.6L366.6,225.9L366.6,225.9z"/>
<g>
	<path class="st11" d="M256,53.2C256,53.2,256,53.2,256,53.2l0,21.4c0,0,0,0,0,0c49.1,0,89.1,40,89.1,89.1v62.2h21.4v-62.2
		C366.6,102.8,317,53.2,256,53.2z"/>
	<path class="st11" d="M304.4,293h-61v-21.5h61c21.9,0,39.8-17.9,39.8-39.8h21.5C365.6,265.5,338.2,293,304.4,293z"/>
</g>
<path class="st12" d="M167.6,252.2h-23.5c-17.3,0-31.4-14-31.4-31.4v-36.5c0-17.3,14-31.4,31.4-31.4h23.5L167.6,252.2L167.6,252.2z"
	/>
<path class="st7" d="M367.8,252.2h-23.5V153h23.5c17.3,0,31.4,14,31.4,31.4v36.5C399.2,238.1,385.2,252.2,367.8,252.2z"/>
<path class="st13" d="M250.3,305.2H225c-12.5,0-22.6-10.1-22.6-22.6l0,0c0-12.5,10.1-22.6,22.6-22.6h25.3
	c12.5,0,22.6,10.1,22.6,22.6l0,0C272.9,295,262.8,305.2,250.3,305.2z"/>
<path class="st14" d="M256,260.6v43.8c9.8-2.5,17-11.4,17-21.9l0,0C272.9,272,265.7,263.1,256,260.6z"/>
<circle class="st15" cx="219.2" cy="210.4" r="7.8"/>
<circle class="st16" cx="292.7" cy="210.4" r="7.8"/>
</svg>
