<?xml version="1.0" encoding="utf-8"?>
<!-- Generator: Adobe Illustrator 22.0.0, SVG Export Plug-In . SVG Version: 6.00 Build 0)  -->
<svg version="1.1" id="Слой_1" xmlns="http://www.w3.org/2000/svg" xmlns:xlink="http://www.w3.org/1999/xlink" x="0px" y="0px"
	 viewBox="0 0 512 512" style="enable-background:new 0 0 512 512;" xml:space="preserve">
<style type="text/css">
	.st0{fill:#B01968;}
	.st1{fill:#9B1662;enable-background:new    ;}
	.st2{fill:#32796B;}
	.st3{fill:#E6E7E8;}
	.st4{fill:#F1622A;}
	.st5{fill:#D6B24E;}
	.st6{fill:#FFD25A;}
	.st7{fill:#D6B251;}
	.st8{fill:#DC594E;}
	.st9{fill:#CD5148;}
	.st10{fill:#509FD7;}
	.st11{fill:#FDD96F;}
	.st12{fill:#4388B9;}
	.st13{fill:#BA9A43;}
	.st14{fill:#AA975D;}
</style>
<circle class="st0" cx="256" cy="256" r="256"/>
<path class="st1" d="M510.5,228.5c1,9,1.5,18.2,1.5,27.5c0,141.4-114.6,256-256,256c-9.7,0-19.2-0.6-28.7-1.6L114.5,397.5l0,0
	c-4.3-4.3-7-10.3-7-16.9V131.8c0-13.3,10.8-24,24-24h248.9c8.3,0,15.6,4.2,19.9,10.6L510.5,228.5z"/>
<path class="st2" d="M404.4,170.7v-38.9c0-13.3-10.7-24-24-24H131.6c-13.3,0-24,10.7-24,24v38.9H404.4z"/>
<path class="st3" d="M107.6,380.6c0,13.3,10.7,24,24,24h248.9c13.3,0,24-10.7,24-24V164.3H107.6V380.6z"/>
<circle class="st4" cx="138.1" cy="139.2" r="11.2"/>
<circle class="st5" cx="176.1" cy="139.2" r="11.2"/>
<circle class="st6" cx="214.2" cy="139.2" r="11.2"/>
<path class="st7" d="M291.1,246.4l17.7-6.2v-24.5c-15.5-9-33.5-14.1-52.8-14.1V237C268.8,237,280.7,240.4,291.1,246.4z"/>
<path class="st8" d="M326.2,307.1l18,12.1l17.3-12.1c0-19.2-5.2-37.2-14.1-52.8l-30.7,17.7C322.7,282.4,326.2,294.3,326.2,307.1z"/>
<path class="st9" d="M316.7,342.2l30.7,17.7c9-15.5,14.1-33.5,14.1-52.8h-35.4C326.2,319.9,322.7,331.8,316.7,342.2z"/>
<path class="st10" d="M220.9,246.4v-19.8l-17.7-10.8c-16,9.3-29.4,22.6-38.6,38.6l30.7,17.7C201.4,261.4,210.3,252.6,220.9,246.4z"
	/>
<path class="st11" d="M185.8,307.1l-19.4-7.7l-16,7.7c0,19.2,5.2,37.2,14.1,52.8l30.7-17.7C189.3,331.8,185.8,319.9,185.8,307.1z"/>
<path class="st6" d="M195.3,272.1l-30.7-17.7c-9,15.5-14.1,33.5-14.1,52.8h35.4C185.8,294.3,189.3,282.4,195.3,272.1z"/>
<path class="st12" d="M256,237v-35.4c-19.2,0-37.2,5.2-52.8,14.1l17.7,30.7C231.3,240.4,243.2,237,256,237z"/>
<path class="st13" d="M316.7,272.1l30.7-17.7c-9.3-16-22.6-29.4-38.6-38.6l-17.7,30.7C301.7,252.6,310.6,261.4,316.7,272.1z"/>
<path class="st2" d="M252.9,301c-5.9,2.3-8.8,8.9-6.5,14.7c2.3,5.9,8.9,8.8,14.7,6.5s75.4-41.5,75.4-41.5S258.7,298.7,252.9,301z"/>
<circle class="st14" cx="256" cy="312.2" r="12.9"/>
<circle class="st3" cx="256" cy="312.2" r="7"/>
</svg>
