<?xml version="1.0" encoding="utf-8"?>
<!-- Generator: Adobe Illustrator 22.0.0, SVG Export Plug-In . SVG Version: 6.00 Build 0)  -->
<svg version="1.1" id="Слой_1" xmlns="http://www.w3.org/2000/svg" xmlns:xlink="http://www.w3.org/1999/xlink" x="0px" y="0px"
	 viewBox="0 0 512 512" style="enable-background:new 0 0 512 512;" xml:space="preserve">
<style type="text/css">
	.st0{fill:#4E89FA;}
</style>
<path class="st0" d="M221.9,472H107c-22.1,0-40.1-17.9-40.1-40V130c0-22.1,18.1-40,40.1-40h62.9v10c0,33.1,26.9,60,60,60
	c33.1,0,60-26.9,60-60V90h63c22.1,0,40,17.9,40,40v154c0,11,9,20,20,20c11,0,20-9,20-20V130c0-44.1-35.9-80-80-80h-63V20
	c0-11-9-20-20-20h-80c-11,0-20,9-20,20v30H107c-44.1,0-80,35.9-80,80v302c0,44.1,35.9,80,80,80h114.9c11,0,20-9,20-20
	S232.9,472,221.9,472z M209.9,40h40v60c0,11-9,20-20,20c-11,0-20-9-20-20V40z M482.1,353.6l-99,138.3c-0.2,0.3-0.4,0.6-0.7,0.9
	c-9,11.2-22.4,18.1-36.7,19.1c-1.1,0.1-2.3,0.1-3.4,0.1c-13.1,0-25.9-5.1-35.5-14.2L243,436.5c-8-7.6-8.2-20.3-0.6-28.3
	c7.6-8,20.3-8.2,28.3-0.6l63.8,61.3c3.1,2.9,6.7,3.2,8.6,3.1c1.8-0.1,5.2-0.8,7.9-3.9l98.6-137.7c6.4-9,18.9-11.1,27.9-4.6
	C486.5,332.2,488.5,344.7,482.1,353.6z M164.9,239c0,11-9,20-20,20h-10c-11,0-20-9-20-20s9-20,20-20h10
	C155.9,219,164.9,228,164.9,239z M346.9,239c0,11-9,20-20,20h-112c-11,0-20-9-20-20s9-20,20-20h112C337.9,219,346.9,228,346.9,239z
	 M164.9,319c0,11-9,20-20,20h-10c-11,0-20-9-20-20s9-20,20-20h10C155.9,299,164.9,308,164.9,319z M346.9,319c0,11-9,20-20,20h-112
	c-11,0-20-9-20-20s9-20,20-20h112C337.9,299,346.9,308,346.9,319z"/>
</svg>
