<?xml version="1.0" encoding="utf-8"?>
<!-- Generator: Adobe Illustrator 22.0.0, SVG Export Plug-In . SVG Version: 6.00 Build 0)  -->
<svg version="1.1" id="Слой_1" xmlns="http://www.w3.org/2000/svg" xmlns:xlink="http://www.w3.org/1999/xlink" x="0px" y="0px"
	 viewBox="0 0 512 512" style="enable-background:new 0 0 512 512;" xml:space="preserve">
<style type="text/css">
	.st0{fill:#4E89FA;}
</style>
<path class="st0" d="M465.3,108.4C406.9,27,311.2-12.7,212.4,3.6c-37.5,6.2-73.1,20.9-104,43.1C27,105.1-12.7,200.8,3.6,299.6
	c6.2,37.5,20.9,73.1,43.1,104c58.4,81.4,154.1,121,253,104.8c37.5-6.2,73.1-20.9,104-43.1c81.4-58.4,121-154.1,104.8-253
	C502.2,174.9,487.5,139.2,465.3,108.4z M256.3,472C137,472.1,39.9,375,40,255.7C40.1,137,137,40.1,255.7,40
	C375,39.9,472.1,137,472,256.3C471.9,375,375,471.9,256.3,472z M236,98.8H276c0,0,0,0,0,0v159.6c0,9.8-8.5,18.2-19.3,18.6
	c-11.4,0.3-20.7-7.9-20.7-18.1L236,98.8C236,98.8,236,98.8,236,98.8z M115.6,231.9l-14.3-4.6c-10.5-3.4-16.3-14.6-12.9-25.2l0,0
	c3.4-10.5,14.6-16.3,25.2-12.9l14.3,4.6c10.5,3.4,16.3,14.6,12.9,25.2l0,0C137.4,229.5,126.2,235.3,115.6,231.9z M127.9,318.2
	l-14.3,4.6c-10.5,3.4-21.8-2.4-25.2-12.9l0,0c-3.4-10.5,2.4-21.8,12.9-25.2l14.3-4.6c10.5-3.4,21.8,2.4,25.2,12.9l0,0
	C144.2,303.5,138.4,314.8,127.9,318.2z M181,117.8l8.8,12.2c6.5,9,4.4,21.5-4.5,27.9l0,0c-9,6.5-21.5,4.4-27.9-4.5l-8.8-12.2
	c-6.5-9-4.4-21.5,4.5-27.9l0,0C162,106.8,174.5,108.8,181,117.8z M409.6,227.3l-14.3,4.6c-10.5,3.4-21.8-2.4-25.2-12.9l0,0
	c-3.4-10.5,2.4-21.8,12.9-25.2l14.3-4.6c10.5-3.4,21.8,2.4,25.2,12.9v0C425.9,212.7,420.2,224,409.6,227.3z M362.4,141.2l-8.8,12.2
	c-6.5,9-19,11-27.9,4.5l0,0c-9-6.5-11-19-4.5-27.9l8.8-12.2c6.5-9,19-11,27.9-4.5l0,0C366.9,119.7,368.9,132.2,362.4,141.2z
	 M256,377L256,377c11,0,20,9,20,20v15c0,11-9,20-20,20h0c-11,0-20-9-20-20v-15C236,386,245,377,256,377z M185.2,354.2L185.2,354.2
	c9,6.5,11,19,4.5,27.9l-8.8,12.2c-6.5,9-19,11-27.9,4.5h0c-9-6.5-11-19-4.5-27.9l8.8-12.2C163.8,349.7,176.3,347.7,185.2,354.2z
	 M256,78.5L256,78.5c11,0,20,9,20,20v15c0,11-9,20-20,20h0c-11,0-20-9-20-20v-15C236,87.5,245,78.5,256,78.5z"/>
</svg>
