<?xml version="1.0" encoding="utf-8"?>
<!-- Generator: Adobe Illustrator 22.0.0, SVG Export Plug-In . SVG Version: 6.00 Build 0)  -->
<svg version="1.1" id="Layer_1" xmlns="http://www.w3.org/2000/svg" xmlns:xlink="http://www.w3.org/1999/xlink" x="0px" y="0px"
	 viewBox="0 0 512 512" style="enable-background:new 0 0 512 512;" xml:space="preserve">
<style type="text/css">
	.st0{fill:#B01968;}
	.st1{fill:#9B1662;}
	.st2{fill:#E6F3FF;}
	.st3{fill:#CFDBE6;}
	.st4{fill:#FED8B2;}
	.st5{fill:#EABE96;}
	.st6{fill:#324A5E;}
	.st7{fill:#2B3B4E;}
	.st8{fill:#B5F1F4;}
	.st9{fill:#84DBFF;}
	.st10{fill:#233444;}
	.st11{fill:#F4E3C3;}
	.st12{fill:#F9B54C;}
	.st13{fill:#F4A200;}
	.st14{fill:#59595B;}
	.st15{fill:#272525;}
	.st16{fill:#FD8469;}
	.st17{fill:#FC6F58;}
	.st18{fill:#FFD15D;}
	.st19{fill:#20303F;}
	.st20{fill:#90DFAA;}
	.st21{fill:#F1543F;}
	.st22{fill:#7AC48F;}
</style>
<circle class="st0" cx="256" cy="256" r="256"/>
<path class="st1" d="M376.3,482C457,439,512,353.9,512,256c0-4.5-0.1-9-0.4-13.5L361.1,91.9L197.2,224.4l-40.9,20.6l43.8,43.8
	l-4.9,2.8l43.8,43.8l0,0L376.3,482z"/>
<path class="st2" d="M420.8,369.8H404c-18.9,0-34.3-15.3-34.3-34.3V204.9c0-18.9,15.3-34.3,34.3-34.3h16.8
	c18.9,0,34.3,15.3,34.3,34.3v130.6C455.1,354.4,439.8,369.8,420.8,369.8z"/>
<path class="st3" d="M420.8,170.7h-10.3v199.1h10.3c18.9,0,34.3-15.3,34.3-34.3V204.9C455.1,186,439.8,170.7,420.8,170.7z"/>
<path class="st4" d="M281.1,319.5v-27.8h-50.2v27.8c0,2.2-1.8,4-4,4h-34.6v96h127.4v-96h-34.6C282.9,323.6,281.1,321.8,281.1,319.5z
	"/>
<path class="st5" d="M319.7,323.6h-34.6c-2.2,0-4-1.8-4-4v-27.8h-25.7v127.9h64.3L319.7,323.6L319.7,323.6L319.7,323.6z"/>
<path class="st6" d="M211.4,323.6h-26.7c-32.2,0-58.2,26.1-58.2,58.2v95.1c37.8,22.2,81.9,35,128.9,35.1V354.3
	C232.2,354.1,211.4,346.8,211.4,323.6z"/>
<path class="st7" d="M323,323.6h-26.7c0,23.4-16.9,30.7-40.3,30.7c-0.2,0-0.4,0-0.6,0V512c0.2,0,0.4,0,0.6,0
	c45.5,0,88.2-11.9,125.2-32.7v-97.5C381.2,349.6,355.2,323.6,323,323.6z"/>
<path class="st2" d="M238.8,455.1h34.5l36.7-131.6h-13.6c0,23.4-16.9,30.7-40.3,30.7s-44.6-7.3-44.6-30.7h-9.3L238.8,455.1z"/>
<path class="st8" d="M250,352.4v159.5c2,0,4,0.1,6,0.1c2,0,4-0.1,6-0.1V352.4c-2,0.1-4,0.1-6,0.1S251.9,352.5,250,352.4z"/>
<path class="st9" d="M256,352.5c-0.2,0-0.4,0-0.6,0V512c0.2,0,0.4,0,0.6,0c2,0,4-0.1,6-0.1V352.4C260.1,352.5,258.1,352.5,256,352.5
	z"/>
<polygon class="st8" points="227.6,323.6 256,352.5 227.6,381 199.1,323.6 "/>
<polygon class="st9" points="284.4,323.6 256,352.5 284.4,381 312.9,323.6 "/>
<path class="st10" d="M256,417.2V512c4.9,0,9.7-0.2,14.5-0.5l42.4-93.9l-22.4-13.9l22.4-18.2v-63.2h-28.4L256,417.2z"/>
<path class="st7" d="M227.6,322.4h-28.4v63.2l22.4,18.2l-22.4,13.9l42.4,93.9c4.8,0.3,9.6,0.5,14.5,0.5v-94.8L227.6,322.4z"/>
<circle class="st4" cx="172.6" cy="233.4" r="20.1"/>
<circle class="st5" cx="335.1" cy="233.4" r="20.1"/>
<path class="st11" d="M256.1,316.9h-4.5c-41.8,0-75.7-33.9-75.7-75.7v-69.1c0-41.8,33.9-75.7,75.7-75.7h4.5
	c41.8,0,75.7,33.9,75.7,75.7v69.1C331.8,283,297.9,316.9,256.1,316.9z"/>
<path class="st4" d="M256.1,96.5h-0.7v220.5h0.7c41.8,0,75.7-33.9,75.7-75.7v-69.1C331.8,130.4,297.9,96.5,256.1,96.5z"/>
<path class="st12" d="M323.6,122.1c-14.9-21.2-39.4-35-67.3-35h-4.9c-45.4,0-82.2,36.8-82.2,82.2v6.4v57.9h12.1v-33.9c0,0,0,0,0,0
	c36.6-3.7,72.6-10.9,104.1-26.7c11.4,13,24.5,24.7,38.9,34.1v26.5h14.1v-43.3v-21C338.5,151.6,333,135.4,323.6,122.1z"/>
<path class="st13" d="M323.6,122.1c-14.9-21.2-39.4-35-67.3-35h-0.9v98c10.3-3.4,20.4-7.4,30-12.2c11.4,13,24.5,24.7,38.9,34.1v26.5
	h14.1v-43.3v-21C338.5,151.6,333,135.4,323.6,122.1z"/>
<circle class="st14" cx="217.1" cy="224.5" r="7.8"/>
<circle class="st15" cx="290.6" cy="224.5" r="7.8"/>
<path class="st16" d="M275,258.6c-2.4,0-4.3,1.9-4.3,4.3c0,8.8-6.7,16-15.3,16.8c-0.5,0-1,0.1-1.6,0.1c-9.3,0-16.8-7.6-16.8-16.8
	c0-2.4-1.9-4.3-4.3-4.3s-4.3,1.9-4.3,4.3c0,14,11.4,25.5,25.5,25.5c0.5,0,1,0,1.6-0.1c13.3-0.8,23.9-11.9,23.9-25.4
	C279.3,260.5,277.4,258.6,275,258.6z"/>
<path class="st17" d="M279.3,262.9c0-2.4-1.9-4.3-4.3-4.3s-4.3,1.9-4.3,4.3c0,8.8-6.7,16-15.3,16.8v8.6
	C268.7,287.5,279.3,276.4,279.3,262.9z"/>
<ellipse class="st6" cx="256" cy="113.8" rx="113.8" ry="56.9"/>
<path class="st7" d="M256,56.9c-0.2,0-0.4,0-0.6,0v113.8c0.2,0,0.4,0,0.6,0c62.8,0,113.8-25.5,113.8-56.9S318.8,56.9,256,56.9z"/>
<path class="st18" d="M337,149.4c1.2-8.7,0.8-9.7,2-18.4c-55.1-7.8-111-7.8-166,0c1.2,8.7,1.3,9.5,2.6,18.3L337,149.4z"/>
<path class="st12" d="M339,131c-27.7-3.9-55.7-5.9-83.6-5.9v24.2l81.6,0.1C338.3,140.7,337.8,139.7,339,131z"/>
<path class="st7" d="M337,149.4c0,14.9-36.3,27-81,27s-81-12.1-81-27H337z"/>
<path class="st19" d="M255.4,149.4v27c0.2,0,0.4,0,0.6,0c44.7,0,81-12.1,81-27L255.4,149.4L255.4,149.4z"/>
<circle class="st17" cx="411.2" cy="209.5" r="28.4"/>
<circle class="st18" cx="411.2" cy="269.8" r="28.4"/>
<circle class="st20" cx="411.2" cy="330.1" r="28.4"/>
<path class="st21" d="M411.2,181c-0.2,0-0.4,0-0.6,0v56.8c0.2,0,0.4,0,0.6,0c15.7,0,28.4-12.7,28.4-28.4S426.9,181,411.2,181z"/>
<path class="st12" d="M411.2,241.3c-0.2,0-0.4,0-0.6,0v56.8c0.2,0,0.4,0,0.6,0c15.7,0,28.4-12.7,28.4-28.4S426.9,241.3,411.2,241.3z
	"/>
<path class="st22" d="M411.2,301.7c-0.2,0-0.4,0-0.6,0v56.8c0.2,0,0.4,0,0.6,0c15.7,0,28.4-12.7,28.4-28.4S426.9,301.7,411.2,301.7z
	"/>
</svg>
