<?xml version="1.0" encoding="utf-8"?>
<!-- Generator: Adobe Illustrator 22.0.0, SVG Export Plug-In . SVG Version: 6.00 Build 0)  -->
<svg version="1.1" id="Слой_1" xmlns="http://www.w3.org/2000/svg" xmlns:xlink="http://www.w3.org/1999/xlink" x="0px" y="0px"
	 viewBox="0 0 512 512" style="enable-background:new 0 0 512 512;" xml:space="preserve">
<style type="text/css">
	.st0{fill:#4E89FA;}
</style>
<path class="st0" d="M461,204.8c0,44.8-13.5,85.3-42.4,127.5c-6.2,9.1-18.7,11.4-27.8,5.2c-9.1-6.2-11.4-18.7-5.2-27.8
	c24.1-35.2,35.4-68.6,35.4-104.9C420.9,113.9,346.9,40,256,40S91.1,113.9,91,204.8c0.1,72.4,44.4,120.9,95.7,177.1
	c23.6,25.9,47.9,52.4,69.3,83c21.4-30.6,45.7-57.2,69.3-83l3.1-3.4c7.4-8.2,20.1-8.7,28.3-1.3c8.2,7.4,8.7,20.1,1.3,28.3l-3.1,3.4
	c-26.5,29.1-54,59.1-75.9,93.8c-3.7,5.8-10,9.3-16.9,9.3h-12c-6.9,0-13.2-3.5-16.9-9.3c-21.9-34.7-49.4-64.7-75.9-93.8
	c-27.1-29.6-52.6-57.7-72.3-89.8C62.1,282.1,51,244.7,51,204.8C51.1,150.1,72.4,98.6,111.1,60S201.3,0,256,0s106.2,21.3,144.9,60
	C439.6,98.6,460.9,150.1,461,204.8z M380,205c0,68.9-56.1,125-125,125s-125-56.1-125-125S186.1,80,255,80S380,136.1,380,205z
	 M340,205c0-46.9-38.1-85-85-85c-46.9,0-85,38.1-85,85s38.1,85,85,85C301.9,290,340,251.9,340,205z M284,185h-11.1v-20.9
	c0-11-9-20-20-20c-11,0-19.9,9-19.9,20V205c0,11,8.9,20,19.9,20H284c11,0,20-9,20-20S295,185,284,185z"/>
</svg>
