<?xml version="1.0" encoding="utf-8"?>
<!-- Generator: Adobe Illustrator 22.0.0, SVG Export Plug-In . SVG Version: 6.00 Build 0)  -->
<svg version="1.1" id="Слой_1" xmlns="http://www.w3.org/2000/svg" xmlns:xlink="http://www.w3.org/1999/xlink" x="0px" y="0px"
	 viewBox="0 0 500 500" style="enable-background:new 0 0 500 500;" xml:space="preserve">
<style type="text/css">
	.st0{opacity:0.1246;fill:#A43478;}
	.st1{fill:url(#SVGID_1_);}
	.st2{fill:url(#SVGID_2_);}
	.st3{fill:url(#SVGID_3_);}
	.st4{fill:url(#SVGID_4_);}
	.st5{fill:url(#SVGID_5_);}
	.st6{fill:url(#SVGID_6_);}
	.st7{fill:url(#SVGID_7_);}
	.st8{fill:url(#SVGID_8_);}
	.st9{fill:url(#SVGID_9_);}
</style>
<path class="st0" d="M488.4,13.1L500,482.2c-62.4,31.4-152.9,21.4-203.2-31.3c-15.6-16.3-28.9-36.2-47.6-47.6
	c-41.1-25-99.3-4.1-132.8-40.8c-28.9-31.7-21.2-87.6-42.9-126c-9.4-16.7-22-31-35.7-43.2C-12.5,148.8-6,35,44.3,0L488.4,13.1z"/>
<linearGradient id="SVGID_1_" gradientUnits="userSpaceOnUse" x1="514.8136" y1="-55.3535" x2="177.8799" y2="347.1149">
	<stop  offset="0" style="stop-color:#7333AF"/>
	<stop  offset="0.2793" style="stop-color:#82339F"/>
	<stop  offset="1" style="stop-color:#A43478"/>
</linearGradient>
<path class="st1" d="M500,0v472.7c-62.4,31.4-141.3,17.8-191.6-34.9c-15.6-16.3-28.9-36.2-47.6-47.6c-41.1-25-99.3-4.1-132.8-40.8
	c-28.9-31.7-21.2-87.6-42.9-126c-9.4-16.7-22-31-35.7-43.2C-0.9,135.7-6,35,44.3,0H500z"/>
<linearGradient id="SVGID_2_" gradientUnits="userSpaceOnUse" x1="212.0541" y1="414.9903" x2="194.7881" y2="435.6147">
	<stop  offset="0" style="stop-color:#7333AF"/>
	<stop  offset="0.2793" style="stop-color:#82339F"/>
	<stop  offset="1" style="stop-color:#A43478"/>
</linearGradient>
<circle class="st2" cx="202" cy="427" r="13"/>
<linearGradient id="SVGID_3_" gradientUnits="userSpaceOnUse" x1="158.1674" y1="440.9522" x2="141.5654" y2="460.7834">
	<stop  offset="0" style="stop-color:#7333AF"/>
	<stop  offset="0.2793" style="stop-color:#82339F"/>
	<stop  offset="1" style="stop-color:#A43478"/>
</linearGradient>
<circle class="st3" cx="148.5" cy="452.5" r="12.5"/>
<linearGradient id="SVGID_4_" gradientUnits="userSpaceOnUse" x1="77.4138" y1="457.5332" x2="68.1166" y2="468.6387">
	<stop  offset="0" style="stop-color:#7333AF"/>
	<stop  offset="0.2793" style="stop-color:#82339F"/>
	<stop  offset="1" style="stop-color:#A43478"/>
</linearGradient>
<circle class="st4" cx="72" cy="464" r="7"/>
<linearGradient id="SVGID_5_" gradientUnits="userSpaceOnUse" x1="77.4138" y1="403.5332" x2="68.1166" y2="414.6387">
	<stop  offset="0" style="stop-color:#7333AF"/>
	<stop  offset="0.2793" style="stop-color:#82339F"/>
	<stop  offset="1" style="stop-color:#A43478"/>
</linearGradient>
<circle class="st5" cx="72" cy="410" r="7"/>
<linearGradient id="SVGID_6_" gradientUnits="userSpaceOnUse" x1="46.7537" y1="327.419" x2="39.4488" y2="336.1447">
	<stop  offset="0" style="stop-color:#7333AF"/>
	<stop  offset="0.2793" style="stop-color:#82339F"/>
	<stop  offset="1" style="stop-color:#A43478"/>
</linearGradient>
<circle class="st6" cx="42.5" cy="332.5" r="5.5"/>
<linearGradient id="SVGID_7_" gradientUnits="userSpaceOnUse" x1="36.2069" y1="396.2666" x2="31.5583" y2="401.8193">
	<stop  offset="0" style="stop-color:#7333AF"/>
	<stop  offset="0.2793" style="stop-color:#82339F"/>
	<stop  offset="1" style="stop-color:#A43478"/>
</linearGradient>
<circle class="st7" cx="33.5" cy="399.5" r="3.5"/>
<linearGradient id="SVGID_8_" gradientUnits="userSpaceOnUse" x1="36.2069" y1="471.2666" x2="31.5583" y2="476.8193">
	<stop  offset="0" style="stop-color:#7333AF"/>
	<stop  offset="0.2793" style="stop-color:#82339F"/>
	<stop  offset="1" style="stop-color:#A43478"/>
</linearGradient>
<circle class="st8" cx="33.5" cy="474.5" r="3.5"/>
<linearGradient id="SVGID_9_" gradientUnits="userSpaceOnUse" x1="245.9803" y1="478.3428" x2="240.0036" y2="485.482">
	<stop  offset="0" style="stop-color:#7333AF"/>
	<stop  offset="0.2793" style="stop-color:#82339F"/>
	<stop  offset="1" style="stop-color:#A43478"/>
</linearGradient>
<circle class="st9" cx="242.5" cy="482.5" r="4.5"/>
</svg>
