<?xml version="1.0" encoding="utf-8"?>
<!-- Generator: Adobe Illustrator 22.0.0, SVG Export Plug-In . SVG Version: 6.00 Build 0)  -->
<svg version="1.1" id="Слой_1" xmlns="http://www.w3.org/2000/svg" xmlns:xlink="http://www.w3.org/1999/xlink" x="0px" y="0px"
	 viewBox="0 0 150 50" style="enable-background:new 0 0 150 50;" xml:space="preserve">
<style type="text/css">
	.st0{fill:#6F14A5;}
	.st1{fill-rule:evenodd;clip-rule:evenodd;fill:#B01968;}
	.st2{fill-rule:evenodd;clip-rule:evenodd;fill:#6F14A5;}
	.st3{fill:#292F33;}
</style>
<g>
	<g>
		<path class="st0" d="M8.1,8.2C7.5,8.8,6.6,8.8,6,8.2C5.4,7.6,5.4,6.6,6,6c1.9-1.9,4-3.3,6.4-4.3c2.4-1,5-1.5,7.6-1.5
			s5.2,0.5,7.6,1.5C30,2.7,32.2,4.2,34,6c0.6,0.6,0.6,1.6,0,2.2c-0.6,0.6-1.6,0.6-2.2,0c-1.6-1.6-3.4-2.8-5.4-3.6
			c-2-0.8-4.2-1.3-6.4-1.3c-2.2,0-4.4,0.4-6.4,1.3C11.5,5.4,9.7,6.6,8.1,8.2z"/>
		<path class="st0" d="M12.4,12.5c-0.6,0.6-1.6,0.6-2.2,0c-0.6-0.6-0.6-1.6,0-2.2c1.3-1.3,2.8-2.3,4.5-3c1.7-0.7,3.4-1,5.2-1
			c1.8,0,3.6,0.4,5.2,1c1.7,0.7,3.2,1.7,4.5,3c0.6,0.6,0.6,1.6,0,2.1c-0.6,0.6-1.6,0.6-2.1,0c-1-1-2.2-1.8-3.5-2.3
			c-1.3-0.5-2.7-0.8-4.1-0.8c-1.4,0-2.8,0.3-4.1,0.8C14.6,10.7,13.4,11.5,12.4,12.5z"/>
		<path class="st0" d="M16.7,16.8c-0.6,0.6-1.6,0.6-2.2,0c-0.6-0.6-0.6-1.6,0-2.2c0.7-0.7,1.6-1.3,2.5-1.7c0.9-0.4,1.9-0.6,2.9-0.6
			c1,0,2,0.2,2.9,0.6c0.9,0.4,1.8,0.9,2.5,1.7c0.6,0.6,0.6,1.6,0,2.2c-0.6,0.6-1.6,0.6-2.2,0c-0.4-0.4-0.9-0.8-1.5-1
			c-0.5-0.2-1.1-0.3-1.8-0.3c-0.6,0-1.2,0.1-1.8,0.3C17.7,16,17.2,16.4,16.7,16.8z"/>
		<path class="st1" d="M8.2,14.3l-2.9-2.4c-0.3-0.3-0.7-0.4-1.1-0.3c-0.4,0.1-0.7,0.3-0.9,0.7c-1.1,2.4-1.7,5-1.7,7.7
			c0,5.5,1.8,10.9,4.9,14.9L17,48.5c0.7,1,1.8,1.5,3,1.5c1.2,0,2.3-0.5,3-1.5L33.4,35c3.2-4.1,4.9-9.4,4.9-14.9
			c0-2.7-0.6-5.3-1.7-7.7c-0.2-0.4-0.5-0.6-0.9-0.7c-0.4-0.1-0.8,0-1.1,0.3l-2.9,2.4c-0.4,0.4-0.6,0.9-0.4,1.4
			c0.5,1.4,0.8,2.9,0.8,4.3c0,6.7-5.5,12.2-12.2,12.2S7.8,26.8,7.8,20c0-1.5,0.3-3,0.8-4.3C8.8,15.2,8.6,14.6,8.2,14.3L8.2,14.3z
			 M24.5,19.6c-0.1-0.8,0.6-1.6,1.4-1.6c0.8-0.1,1.6,0.6,1.6,1.4c0,0,0,0.2,0,0.3h0c0,0.2,0,0.3,0,0.3c0,2.1-0.9,4-2.2,5.4l0,0l0,0
			c-1.4,1.4-3.3,2.2-5.4,2.2c-2.1,0-4-0.9-5.4-2.2c0,0-0.1-0.1-0.1-0.1c-1.3-1.4-2.1-3.2-2.1-5.3c0,0,0-0.1,0-0.3l0,0h0
			c0-0.2,0-0.3,0-0.3c0.1-0.8,0.8-1.5,1.6-1.4c0.8,0.1,1.5,0.8,1.4,1.6l0,0.2V20c0,1.2,0.5,2.4,1.3,3.2c0,0,0,0,0.1,0.1
			c0.8,0.8,2,1.3,3.2,1.3s2.4-0.5,3.2-1.3l0,0c0.8-0.8,1.3-2,1.3-3.2v-0.2h0l0,0L24.5,19.6z"/>
		<path class="st2" d="M20,22.3c1.3,0,2.3-1,2.3-2.3c0-1.3-1-2.3-2.3-2.3s-2.3,1-2.3,2.3C17.7,21.3,18.7,22.3,20,22.3z"/>
	</g>
	<path class="st3" d="M52.1,38.2h1c0.7,0,1.3-0.6,1.3-1.3v-9.7h7.5c0.7,0,1.3-0.6,1.3-1.3v-0.5c0-0.7-0.6-1.3-1.3-1.3h-7.5v-8.4
		c6.7,0,7.2-0.5,7.2,1.1c0,0.4,0.1,0.7,0.4,0.9c0.3,0.3,0.6,0.4,0.9,0.4h0.7c0.7,0,1.3-0.6,1.3-1.3c0.1-2.6,0.2-4.3-2.3-4.3H49.8
		c-0.7,0-1.3,0.6-1.3,1.3v0.5c0,0.7,0.6,1.3,1.3,1.3h1.1v21.2C50.8,37.6,51.4,38.2,52.1,38.2L52.1,38.2z M68.7,38.2h5.9
		c0.7,0,1.3-0.6,1.3-1.3v-0.5c0-0.7-0.6-1.3-1.3-1.3h-1.2V15.7h1.2c0.7,0,1.3-0.6,1.3-1.3v-0.5c0-0.7-0.6-1.3-1.3-1.3h-5.9
		c-0.7,0-1.3,0.6-1.3,1.3v0.5c0,0.7,0.6,1.3,1.3,1.3h1.2V35h-1.2c-0.7,0-1.3,0.6-1.3,1.3v0.5C67.4,37.6,67.9,38.2,68.7,38.2
		L68.7,38.2z M85.8,38.2h2.3c0.6,0,1.1-0.4,1.2-0.9c1.1-3.8,5.2-17.6,5.2-18.8h0.1c0,1.3,3.8,14.9,4.8,18.8c0.2,0.6,0.7,1,1.3,1h2.2
		c0.6,0,1.1-0.4,1.3-1l5.3-20.7c0.1-0.5,0.4-0.7,0.8-0.8c0.6-0.1,1-0.7,1-1.3v-0.6c0-0.7-0.6-1.3-1.3-1.3c-2.1,0-3.4,0-3.9,2.1
		c-0.4,1.8-4.5,18-4.5,19.2h-0.1c0-1.1-4-16-5.1-20.3c-0.2-0.6-0.7-1-1.3-1h-1.2c-0.6,0-1.1,0.4-1.3,0.9c-1.2,4.2-5.5,19.5-5.5,20.3
		h-0.1c0-1.5-4-17.1-4.5-19.2c-0.5-2.1-1.9-2.2-3.9-2.1c-0.7,0-1.3,0.6-1.3,1.3v0.6c0,0.6,0.4,1.2,1,1.3c0.4,0.1,0.6,0.3,0.8,0.8
		l5.3,20.7C84.7,37.8,85.2,38.2,85.8,38.2L85.8,38.2z M109,38.2c-0.7,0-1.3-0.6-1.3-1.3v-0.7c0-0.7,0.5-1.2,1.1-1.3l0.1,0
		c0.5-0.3,6.5-17,8.1-21.5c0.2-0.5,0.7-0.9,1.2-0.9l2,0c0.6,0,1,0.3,1.2,0.9l7.7,20.9c0.2,0.5,0.4,0.7,0.7,0.8c0.6,0.1,1,0.7,1,1.3
		v0.6c0,0.7-0.6,1.3-1.3,1.3c-1.2,0-2.5,0-3.1-0.8c-0.6-0.8-2.1-5.3-2.6-6.6h-9.4C112,37.9,112.6,38.2,109,38.2L109,38.2z
		 M115.5,27.7h7.7c0-0.1-3.8-10.4-3.8-11.4h-0.1C119.3,17.5,115.6,27.4,115.5,27.7L115.5,27.7z M137.9,38.2h1c0.7,0,1.3-0.6,1.3-1.3
		V27l6.9-11c0.2-0.2,0.5-0.3,0.7-0.3c0.6-0.1,1.1-0.6,1.1-1.3v-0.5c0-0.4-0.1-0.7-0.4-0.9c-0.3-0.3-0.6-0.4-0.9-0.4
		c-3.6,0-3,0.6-7.7,8.4l-1.6,2.9h-0.1c-1.1-2.2-5.6-9.8-6.4-10.6c-0.7-0.7-1.8-0.7-2.9-0.7c-0.7,0-1.3,0.6-1.3,1.3v0.6
		c0,0.7,0.5,1.2,1.1,1.3c0.5,0.1,0.8,0.3,1.1,0.9l6.5,10.4v9.9C136.6,37.6,137.2,38.2,137.9,38.2z"/>
</g>
</svg>
