<?xml version="1.0" encoding="utf-8"?>
<!-- Generator: Adobe Illustrator 22.0.0, SVG Export Plug-In . SVG Version: 6.00 Build 0)  -->
<svg version="1.1" id="Слой_1" xmlns="http://www.w3.org/2000/svg" xmlns:xlink="http://www.w3.org/1999/xlink" x="0px" y="0px"
	 viewBox="0 0 150 50" style="enable-background:new 0 0 150 50;" xml:space="preserve">
<style type="text/css">
	.st0{clip-path:url(#SVGID_2_);fill:#FFFFFF;}
	.st1{clip-path:url(#SVGID_4_);fill:#FFFFFF;}
	.st2{clip-path:url(#SVGID_6_);fill:#FFFFFF;}
	.st3{clip-path:url(#SVGID_8_);fill:#FFFFFF;}
	.st4{clip-path:url(#SVGID_10_);enable-background:new    ;}
	.st5{clip-path:url(#SVGID_12_);}
	.st6{clip-path:url(#SVGID_14_);}
	.st7{clip-path:url(#SVGID_16_);fill:#FFFFFF;}
	.st8{clip-path:url(#SVGID_18_);fill:#FFFFFF;}
	.st9{fill:none;stroke:#FFFFFF;stroke-miterlimit:10;}
	.st10{clip-path:url(#SVGID_20_);fill:#FFFFFF;}
	.st11{clip-path:url(#SVGID_22_);enable-background:new    ;}
	.st12{clip-path:url(#SVGID_24_);}
	.st13{clip-path:url(#SVGID_26_);}
	.st14{clip-path:url(#SVGID_28_);fill:#FFFFFF;}
	.st15{clip-path:url(#SVGID_30_);fill:#FFFFFF;}
</style>
<g>
	<g>
		<defs>
			<path id="SVGID_1_" d="M50.9,31.8v-18c0-1.4,1.2-2.5,2.7-2.5h10.2c1.1,0,2.1,0.9,2.1,1.9c0,1.1-0.9,1.9-2.1,1.9h-7.7v6.1h7.2
				c1.1,0,2.1,0.9,2.1,1.9c0,1.1-0.9,1.9-2.1,1.9h-7.2v6.7c0,1.3-1.2,2.4-2.6,2.4C52.1,34.2,50.9,33.1,50.9,31.8"/>
		</defs>
		<use xlink:href="#SVGID_1_"  style="overflow:visible;fill-rule:evenodd;clip-rule:evenodd;fill:#FFFFFF;"/>
		<clipPath id="SVGID_2_">
			<use xlink:href="#SVGID_1_"  style="overflow:visible;"/>
		</clipPath>
		<rect x="46.5" y="7" class="st0" width="23.7" height="31.6"/>
	</g>
	<g>
		<defs>
			<path id="SVGID_3_" d="M85.4,34.2L85.4,34.2c-1,0-1.9-0.6-2.2-1.6l-1.1-3.2h-9.7l-1.1,3.2c-0.3,0.9-1.2,1.6-2.2,1.6
				c-1.7,0-2.8-1.6-2.2-3.1l6.8-17.3c0.6-1.5,2-2.4,3.6-2.4c1.6,0,3.1,1,3.6,2.4l6.8,17.3C88.2,32.6,87.1,34.2,85.4,34.2z
				 M77.3,15.2l-3.5,10.4h7L77.3,15.2z"/>
		</defs>
		<use xlink:href="#SVGID_3_"  style="overflow:visible;fill-rule:evenodd;clip-rule:evenodd;fill:#FFFFFF;"/>
		<clipPath id="SVGID_4_">
			<use xlink:href="#SVGID_3_"  style="overflow:visible;"/>
		</clipPath>
		<rect x="62.3" y="7" class="st1" width="29.9" height="31.6"/>
	</g>
	<g>
		<defs>
			<path id="SVGID_5_" d="M104.7,11.4L104.7,11.4c1.8,0,2.9,1.8,2.1,3.4l-6,10.9v6.1c0,1.3-1.1,2.4-2.5,2.4s-2.5-1.1-2.5-2.4v-6.1
				l-6-10.9c-0.8-1.5,0.3-3.4,2.1-3.4c0.9,0,1.8,0.5,2.2,1.3l4.2,8.7l4.2-8.7C103,11.9,103.8,11.4,104.7,11.4"/>
		</defs>
		<use xlink:href="#SVGID_5_"  style="overflow:visible;fill-rule:evenodd;clip-rule:evenodd;fill:#FFFFFF;"/>
		<clipPath id="SVGID_6_">
			<use xlink:href="#SVGID_5_"  style="overflow:visible;"/>
		</clipPath>
		<rect x="85.2" y="7" class="st2" width="26.3" height="31.6"/>
	</g>
	<g>
		<defs>
			<path id="SVGID_7_" d="M133.4,26.6l3.3-13.5c0.3-1,1.2-1.8,2.3-1.8c1.6,0,2.7,1.5,2.3,2.9l-5,17.6c-0.4,1.4-1.7,2.3-3.2,2.3
				c-1.5,0-2.8-1-3.2-2.3L126,18c-0.1-0.5-0.8-0.5-0.9,0l-3.9,13.9c-0.4,1.4-1.7,2.3-3.2,2.3c-1.5,0-2.8-1-3.2-2.3l-5-17.6
				c-0.4-1.5,0.7-2.9,2.3-2.9c1.1,0,2,0.7,2.3,1.8l3.3,13.5c0.1,0.4,0.7,0.4,0.8,0l3.5-12.6c0.4-1.5,1.9-2.6,3.5-2.6
				c1.6,0,3.1,1.1,3.5,2.6l3.5,12.6C132.7,27,133.3,27,133.4,26.6"/>
		</defs>
		<use xlink:href="#SVGID_7_"  style="overflow:visible;fill-rule:evenodd;clip-rule:evenodd;fill:#FFFFFF;"/>
		<clipPath id="SVGID_8_">
			<use xlink:href="#SVGID_7_"  style="overflow:visible;"/>
		</clipPath>
		<rect x="105.4" y="7" class="st3" width="40.4" height="31.6"/>
	</g>
	<g>
		<defs>
			<rect id="SVGID_9_" x="145.1" y="10.8" width="4.9" height="23.3"/>
		</defs>
		<use xlink:href="#SVGID_9_"  style="overflow:visible;fill-rule:evenodd;clip-rule:evenodd;fill:#FFFFFF;"/>
		<clipPath id="SVGID_10_">
			<use xlink:href="#SVGID_9_"  style="overflow:visible;"/>
		</clipPath>
		<g class="st4">
			<g>
				<defs>
					<rect id="SVGID_11_" x="144.9" y="10.4" width="5.3" height="24.6"/>
				</defs>
				<use xlink:href="#SVGID_11_"  style="overflow:visible;fill:#FFFFFF;"/>
				<clipPath id="SVGID_12_">
					<use xlink:href="#SVGID_11_"  style="overflow:visible;"/>
				</clipPath>
				<g class="st5">
					<defs>
						<path id="SVGID_13_" d="M147.6,34.1L147.6,34.1c-1.4,0-2.5-1.1-2.5-2.4V13.2c0-1.4,1.1-2.5,2.5-2.5c1.4,0,2.5,1.1,2.5,2.5
							v18.4C150,33,148.9,34.1,147.6,34.1"/>
					</defs>
					<use xlink:href="#SVGID_13_"  style="overflow:visible;fill-rule:evenodd;clip-rule:evenodd;fill:#FFFFFF;"/>
					<clipPath id="SVGID_14_">
						<use xlink:href="#SVGID_13_"  style="overflow:visible;"/>
					</clipPath>
					<g class="st6">
						<defs>
							<rect id="SVGID_15_" x="144.9" y="10.4" width="5.3" height="24.6"/>
						</defs>
						<use xlink:href="#SVGID_15_"  style="overflow:visible;fill:#FFFFFF;"/>
						<clipPath id="SVGID_16_">
							<use xlink:href="#SVGID_15_"  style="overflow:visible;"/>
						</clipPath>
						<rect x="140.7" y="6.4" class="st7" width="13.7" height="32.1"/>
					</g>
				</g>
			</g>
		</g>
	</g>
</g>
<g>
	<g>
		<defs>
			<path id="SVGID_17_" d="M9,7.5C8.6,8,7.9,8,7.4,7.5C6.9,7,6.9,6.2,7.4,5.7c1.5-1.6,3.2-2.7,5.1-3.6c1.9-0.8,3.9-1.2,6-1.2
				s4.1,0.4,6,1.2c1.9,0.8,3.6,2.1,5.1,3.6C30,6.2,30,7,29.5,7.5C29,8,28.2,8,27.8,7.5c-1.3-1.3-2.7-2.3-4.3-3
				c-1.6-0.7-3.3-1.1-5.1-1.1c-1.7,0-3.5,0.3-5.1,1.1C11.7,5.2,10.3,6.2,9,7.5"/>
		</defs>
		<use xlink:href="#SVGID_17_"  style="overflow:visible;fill-rule:evenodd;clip-rule:evenodd;fill:#FFFFFF;"/>
		<clipPath id="SVGID_18_">
			<use xlink:href="#SVGID_17_"  style="overflow:visible;"/>
		</clipPath>
		<rect x="2.6" y="-3.6" class="st8" width="31.6" height="15.8"/>
	</g>
	<path class="st9" d="M9,7.5C8.6,8,7.9,8,7.4,7.5C6.9,7,6.9,6.2,7.4,5.7c1.5-1.6,3.2-2.7,5.1-3.6c1.9-0.8,3.9-1.2,6-1.2
		s4.1,0.4,6,1.2c1.9,0.8,3.6,2.1,5.1,3.6C30,6.2,30,7,29.5,7.5s-1.3,0.5-1.7,0c-1.3-1.3-2.7-2.3-4.3-3c-1.6-0.7-3.3-1.1-5.1-1.1
		S15,3.7,13.4,4.5C11.7,5.2,10.3,6.2,9,7.5z"/>
	<g>
		<defs>
			<path id="SVGID_19_" d="M11.8,11.9c-0.5,0.5-1.3,0.5-1.8,0c-0.5-0.5-0.5-1.3,0-1.7c1.1-1,2.3-1.8,3.7-2.4C15.1,7.2,16.5,7,18,7
				c1.5,0,3,0.3,4.3,0.8c1.4,0.6,2.6,1.3,3.7,2.4c0.5,0.5,0.5,1.3,0,1.7c-0.5,0.5-1.3,0.5-1.7,0c-0.8-0.8-1.8-1.4-2.9-1.8
				c-1.1-0.4-2.2-0.6-3.4-0.6c-1.2,0-2.3,0.2-3.4,0.6C13.6,10.5,12.7,11.1,11.8,11.9"/>
		</defs>
		<clipPath id="SVGID_20_">
			<use xlink:href="#SVGID_19_"  style="overflow:visible;"/>
		</clipPath>
		<rect x="5.3" y="2.6" class="st10" width="25.5" height="14"/>
	</g>
	<path class="st9" d="M11.8,11.9c-0.5,0.5-1.3,0.5-1.8,0s-0.5-1.3,0-1.7c1.1-1,2.3-1.8,3.7-2.4C15.1,7.2,16.5,7,18,7
		c1.5,0,3,0.3,4.3,0.8c1.4,0.6,2.6,1.3,3.7,2.4c0.5,0.5,0.5,1.3,0,1.7c-0.5,0.5-1.3,0.5-1.7,0c-0.8-0.8-1.8-1.4-2.9-1.8
		c-1.1-0.4-2.2-0.6-3.4-0.6c-1.2,0-2.3,0.2-3.4,0.6C13.6,10.5,12.7,11.1,11.8,11.9z"/>
	<g>
		<defs>
			<rect id="SVGID_21_" y="11.6" width="35.7" height="38.4"/>
		</defs>
		<clipPath id="SVGID_22_">
			<use xlink:href="#SVGID_21_"  style="overflow:visible;"/>
		</clipPath>
		<g class="st11">
			<g>
				<defs>
					<rect id="SVGID_23_" y="11.2" width="36" height="39.5"/>
				</defs>
				<clipPath id="SVGID_24_">
					<use xlink:href="#SVGID_23_"  style="overflow:visible;"/>
				</clipPath>
				<g class="st12">
					<defs>
						<path id="SVGID_25_" d="M6.4,14.2l-2.8-2.3c-0.3-0.3-0.7-0.4-1.1-0.3c-0.4,0.1-0.7,0.3-0.9,0.7C0.6,14.6,0,17.1,0,19.7
							C0,25,1.8,30.3,4.8,34.1L15,47.3c0.3,0.4,0.9,1.2,1.5,2c0.7,1,2.2,1,2.9,0c0.5-0.8,1.1-1.6,1.4-2l10.1-13
							c3.1-4,4.8-9.1,4.8-14.4c0-2.6-0.6-5.1-1.7-7.4c-0.2-0.4-0.5-0.6-0.9-0.7c-0.4-0.1-0.8,0-1.1,0.3l-2.8,2.3
							c-0.4,0.4-0.6,0.9-0.4,1.4c0.5,1.4,0.8,2.8,0.8,4.2c0,6.5-5.4,11.8-11.9,11.8C11.3,31.6,6,26.3,6,19.7c0-1.4,0.3-2.9,0.8-4.2
							C7,15.1,6.8,14.5,6.4,14.2"/>
					</defs>
					<clipPath id="SVGID_26_">
						<use xlink:href="#SVGID_25_"  style="overflow:visible;"/>
					</clipPath>
					<g class="st13">
						<defs>
							<rect id="SVGID_27_" y="11.2" width="36" height="39.5"/>
						</defs>
						<clipPath id="SVGID_28_">
							<use xlink:href="#SVGID_27_"  style="overflow:visible;"/>
						</clipPath>
						<rect x="-4.4" y="7.2" class="st14" width="44.5" height="47.2"/>
					</g>
				</g>
			</g>
		</g>
	</g>
	<g>
		<defs>
			<path id="SVGID_29_" d="M21.1,18.4c0,1.9-1.6,3.5-3.5,3.5c-1.9,0-3.5-1.6-3.5-3.5s1.6-3.5,3.5-3.5C19.5,14.9,21.1,16.5,21.1,18.4
				"/>
		</defs>
		<clipPath id="SVGID_30_">
			<use xlink:href="#SVGID_29_"  style="overflow:visible;"/>
		</clipPath>
		<rect x="9.7" y="10.5" class="st15" width="15.8" height="15.8"/>
	</g>
</g>
</svg>
