<?xml version="1.0" encoding="utf-8"?>
<!-- Generator: Adobe Illustrator 22.0.0, SVG Export Plug-In . SVG Version: 6.00 Build 0)  -->
<svg version="1.1" id="Слой_1" xmlns="http://www.w3.org/2000/svg" xmlns:xlink="http://www.w3.org/1999/xlink" x="0px" y="0px"
	 viewBox="0 0 500 400" style="enable-background:new 0 0 500 400;" xml:space="preserve">
<style type="text/css">
	.st0{fill:#CEE8FF;}
	.st1{fill:#508BFA;}
	.st2{fill:#66A0FB;}
	.st3{fill:#FFFFFF;}
	.st4{fill:#7AACFC;}
</style>
<g>
	<path class="st0" d="M161.7,352.2l18.3,5.1l23.4-74.6c0,0-53.7-16.8-55.6-16.6c-1.8,0.2-11.7,32-11.7,32L161.7,352.2z"/>
	<path class="st1" d="M16.7,273.5c2.4,22,10.5,39.1,18.1,38.3c7.5-0.8,11.7-19.3,9.2-41.3c-2.4-22-10.5-39.1-18-38.3
		C18.4,233,14.3,251.5,16.7,273.5z"/>
	<path class="st1" d="M33.1,311.6c0,0,4.3,2.4,26.1-2.5c7.1-1.6,1.2-11.9,1.1-21.9c0-18-26.6-27.2-26.6-27.2L33.1,311.6z"/>
	<path class="st1" d="M166.5,347.9c5.2,30.5,20.6,53.3,34.3,50.9c13.7-2.4,20.7-29,15.5-59.4c-5.2-30.5-20.6-53.3-34.3-50.9
		C168.2,290.8,161.3,317.4,166.5,347.9z"/>
	<path class="st1" d="M197.3,399c0,0,34.2,6.5,46.5-16.3c-12.5-35.7-25.7-48.3-25.7-48.3l-26.2,31.3L197.3,399z"/>
	<path class="st2" d="M499.9,329.9c0,0-5.1,13.9-21.4,22.7c-30.2,16.3-137.6,31.6-153.4,36c-15.7,4.4-70.1,3.9-102.2-5.5
		c0,0-12.9-96.5-49.3-106.5c-36.5-9.9-11.9,75.5-11.9,75.5s-114-50.7-113.1-52.8c0.8-2.1-10.5-71.2-28.9-72.1
		c-18.4-0.8-3.8,49.3-3.8,49.3s-20.1-26.7-14.7-74.9c0,0-0.8-21.8,4.6-21.8c0,0,3.8-13,15.9-7.5c0,0,8.4-27.2,56.1-44.4
		c47.8-17.2,177.2-15.1,196.9-6.7c19.7,8.4,37.3,14.2,95.5,67c0,0,99.3,19.9,114.8,65.3c0,0,10.9,9.3,8.4,40.7
		c0,0,3.3,19.7-1.7,23.9C491.8,318.2,501,324.4,499.9,329.9z"/>
	<path class="st0" d="M149.8,224.3l-119.4-41c0,0,4.4-17.2,8.5-24.7c4.1-7.5,28.6-34.6,74.8-16.3C132,149.5,149.8,224.3,149.8,224.3
		z"/>
	<path class="st0" d="M356.6,187.5c0,0-182.3,29.3-184.4,28.1c-2.1-1.3-32.3-59.5-28.1-64.5c4.2-5,141.6-18.7,151.3-16.8
		C305,136.2,363.3,184.2,356.6,187.5z"/>
	<path class="st1" d="M98.5,137.5c0,0-10.1,23.4-8.6,65.8l-10.9-1l-0.1-2.3c0,0,1.3-38.4,12.7-63.4
		C97.7,133.1,98.5,137.5,98.5,137.5z"/>
	<path class="st1" d="M59.9,141c0,0-6.6,11.4-12.6,48.1c-2.3,1.5-4.6,0.9-4.6,0.9l1.9-1.8c0,0,4.4-28.6,12.8-46
		C59.7,138.5,59.9,141,59.9,141z"/>
	<path class="st0" d="M461.8,259.2c0,0,4.7-7.3,1.6-16c-3.8-10.7-21.9-30.4-21.9-30.4l0,0c19.9,10.2,37.8,23.7,43.7,40.9
		c0,0,1.6,18.2-21.6,26.7C463.6,280.3,464.1,271.2,461.8,259.2z"/>
	<path class="st0" d="M457.4,284.3c0,0,1.6-23.6-1.9-24.2c-3.5-0.6-21.1,7.9-50,12.1c-28.9,4.2-69,8.1-71,9.6
		c-4.7,3.5,17.1,27.3,22.5,28c5.4,0.6,34,4.1,39.1,3.1c5-0.9,31.7-5,36.1-7.2C436.7,303.5,457.2,290,457.4,284.3z"/>
	<path class="st0" d="M333.9,307.4c0,0-14.2-21.4-20.9-23c-6.7-1.7-79.2-35.2-85.1-33.1c-5.9,2.1,7.2,40.2,22.2,47.8
		C265.2,306.5,337.8,313,333.9,307.4z"/>
	<path class="st3" d="M494.2,323c-0.6,0.3-14.9,17.3-15.4,15.9c-0.6-1.4,4.5-26.4,4.5-26.4l2.4,11.9l8.6-2"/>
	<path class="st0" d="M328.7,373.1c0,0-49.6,0.6-58.7-0.8c-10.3-1.7-29.3-1.9-36.9-35.2c0,0,9.6,6.1,25.8,11.1
		c16.2,5,59.3,8.2,59.3,8.2L328.7,373.1z"/>
	<path class="st3" d="M235.9,359.3c-6.7-20.5-24.3-93.9-57-103.5c-32.7-9.6-31,46.9-31,46.9s2.9-47.3,29.7-40.2
		C204.5,269.6,235.9,359.3,235.9,359.3z"/>
	<path class="st3" d="M46.7,264c0,0-9.6-53.8-26.8-56.1C2.7,205.5,7,250,7,250s-0.5-35.5,12.4-34.2C32.4,217.1,46.7,264,46.7,264z"
		/>
	<path class="st4" d="M146.6,212.1H138c0,0-5.4-16.2-11.1-16.2c-5.7,0-25.6,0.8-27.4,3.8c-1.7,2.9-4.5,23.3,5.6,23.3
		c10.1,0,30.6,2.7,34.5-0.7l11.9,5.3l-1.8-12.8L146.6,212.1z"/>
	<g>
		<path class="st3" d="M102.6,201.5c0.3-0.4,1-0.8,2.1-1.1c-1.3,3.9-2.6,13.6,2.2,15.6c7.3,3.1,21.8,2.7,25.2,1.4
			c-3.1,2.6-17.3,2.3-25.2,2.3S101.2,203.8,102.6,201.5z"/>
	</g>
	<path class="st3" d="M162,210.1c0,0-18.2-45.5-26.7-65c-8.5-19.5-42.2-17.6-57.4-15.1c0,0,41.7-6,52.1,15.7
		c10.4,21.7,27.7,71.6,27.7,71.6L162,210.1z"/>
	<path class="st0" d="M19.2,273c2,17.8,8.1,31.7,13.7,31.1c5.6-0.6,8.5-15.6,6.5-33.4c-2-17.8-8.1-31.7-13.7-31.1
		C20.1,240.3,17.2,255.2,19.2,273z"/>
	<path class="st0" d="M169.8,347.9c4.1,24.2,15.7,42.3,25.9,40.6c10.2-1.7,15-22.7,10.9-46.9c-4.1-24.2-15.7-42.3-25.9-40.6
		C170.5,302.7,165.7,323.7,169.8,347.9z"/>
	<polygon class="st0" points="451.3,311.2 373.3,327.8 373.3,350.6 451.3,333 	"/>
	<path class="st0" d="M161.4,337.1c0,0-10.3-41.6,0-52.4c7.6-8,18.6,0,18.6,0S157.1,271.3,161.4,337.1z"/>
</g>
</svg>
