<?xml version="1.0" encoding="utf-8"?>
<!-- Generator: Adobe Illustrator 22.0.0, SVG Export Plug-In . SVG Version: 6.00 Build 0)  -->
<svg version="1.1" id="Слой_1" xmlns="http://www.w3.org/2000/svg" xmlns:xlink="http://www.w3.org/1999/xlink" x="0px" y="0px"
	 viewBox="0 0 500 400" style="enable-background:new 0 0 500 400;" xml:space="preserve">
<style type="text/css">
	.st0{clip-path:url(#SVGID_4_);}
	.st1{clip-path:url(#SVGID_6_);fill:#66A0FB;}
	.st2{clip-path:url(#SVGID_8_);}
	.st3{clip-path:url(#SVGID_10_);fill:#508BFA;}
	.st4{clip-path:url(#SVGID_12_);}
	.st5{clip-path:url(#SVGID_14_);fill:#508BFA;}
	.st6{clip-path:url(#SVGID_16_);}
	.st7{clip-path:url(#SVGID_18_);fill:#66A0FB;}
	.st8{clip-path:url(#SVGID_20_);}
	.st9{clip-path:url(#SVGID_22_);fill:#D4E6FD;}
	.st10{clip-path:url(#SVGID_24_);}
	.st11{clip-path:url(#SVGID_26_);fill:#508BFA;}
	.st12{clip-path:url(#SVGID_28_);}
	.st13{clip-path:url(#SVGID_30_);fill:#66A0FB;}
	.st14{clip-path:url(#SVGID_32_);}
	.st15{clip-path:url(#SVGID_34_);fill:#508BFA;}
	.st16{clip-path:url(#SVGID_36_);}
	.st17{clip-path:url(#SVGID_38_);fill:#66A0FB;}
	.st18{clip-path:url(#SVGID_40_);}
	.st19{clip-path:url(#SVGID_42_);fill:#FFFFFF;}
	.st20{clip-path:url(#SVGID_44_);}
	.st21{clip-path:url(#SVGID_46_);fill:#FFFFFF;}
	.st22{clip-path:url(#SVGID_48_);}
	.st23{clip-path:url(#SVGID_50_);fill:#66A0FB;}
	.st24{clip-path:url(#SVGID_52_);}
	.st25{clip-path:url(#SVGID_54_);fill:#66A0FB;}
	.st26{clip-path:url(#SVGID_56_);}
	.st27{clip-path:url(#SVGID_58_);fill:#D4E6FD;}
	.st28{clip-path:url(#SVGID_60_);}
	.st29{clip-path:url(#SVGID_62_);fill:#D4E6FD;}
	.st30{clip-path:url(#SVGID_64_);}
	.st31{clip-path:url(#SVGID_66_);fill:#D4E6FD;}
	.st32{clip-path:url(#SVGID_68_);}
	.st33{clip-path:url(#SVGID_70_);fill:#D4E6FD;}
	.st34{clip-path:url(#SVGID_72_);}
	.st35{clip-path:url(#SVGID_74_);fill:#508BFA;}
	.st36{clip-path:url(#SVGID_76_);}
	.st37{clip-path:url(#SVGID_78_);fill:#D4E6FD;}
	.st38{clip-path:url(#SVGID_80_);}
	.st39{clip-path:url(#SVGID_82_);fill:#FFFFFF;}
	.st40{clip-path:url(#SVGID_84_);}
	.st41{clip-path:url(#SVGID_86_);fill:#66A0FB;}
</style>
<g>
	<defs>
		<rect id="SVGID_1_" x="0.1" y="-26" width="449.9" height="397.1"/>
	</defs>
	<clipPath id="SVGID_2_">
		<use xlink:href="#SVGID_1_"  style="overflow:visible;"/>
	</clipPath>
</g>
<g>
	<defs>
		<path id="SVGID_3_" d="M5.8,268.5c46,7.9,91.9-30.6,131.3,39c5.6,11.1,7.2,33.6,7.7,56.3c-47.2-13.3-140.1-43.7-142-45.3
			c-3.3-2.8,8.6-15.7,8.7-25.4C11.6,289.4-1.6,279.4,5.8,268.5"/>
	</defs>
	<clipPath id="SVGID_4_">
		<use xlink:href="#SVGID_3_"  style="overflow:visible;"/>
	</clipPath>
	<g class="st0">
		<defs>
			<rect id="SVGID_5_" x="-1080.6" y="-1881.6" width="2561.7" height="6404.2"/>
		</defs>
		<clipPath id="SVGID_6_">
			<use xlink:href="#SVGID_5_"  style="overflow:visible;"/>
		</clipPath>
		<rect x="-5.8" y="256.9" class="st1" width="158.6" height="114.9"/>
	</g>
</g>
<g>
	<defs>
		<path id="SVGID_7_" d="M3.9,294.6c4.3,0.1,17.8,12.3,18.1,27.7c0.3,13.9-3.6,25.9-7.3,27.8l-14.1,1.1l1.7-2.8
			c-3-4,3.1-14.1,2.8-26.1C4.8,307-0.4,294.5,3.9,294.6"/>
	</defs>
	<clipPath id="SVGID_8_">
		<use xlink:href="#SVGID_7_"  style="overflow:visible;"/>
	</clipPath>
	<g class="st2">
		<defs>
			<rect id="SVGID_9_" x="-1080.6" y="-1881.6" width="2561.7" height="6404.2"/>
		</defs>
		<clipPath id="SVGID_10_">
			<use xlink:href="#SVGID_9_"  style="overflow:visible;"/>
		</clipPath>
		<rect x="-7.3" y="286.6" class="st3" width="37.4" height="72.6"/>
	</g>
</g>
<g>
	<defs>
		<path id="SVGID_11_" d="M123.8,301.4c7.5,0.2,39.5,22.5,40,49.3c0.5,24.2-4,44.1-10.4,47.6l-35.3,1.7l2.9-4.8
			c-5.3-7-9.3-24.8-9.8-45.6C110.8,322.7,116.4,301.2,123.8,301.4"/>
	</defs>
	<clipPath id="SVGID_12_">
		<use xlink:href="#SVGID_11_"  style="overflow:visible;"/>
	</clipPath>
	<g class="st4">
		<defs>
			<rect id="SVGID_13_" x="-1080.6" y="-1881.6" width="2561.7" height="6404.2"/>
		</defs>
		<clipPath id="SVGID_14_">
			<use xlink:href="#SVGID_13_"  style="overflow:visible;"/>
		</clipPath>
		<rect x="103.3" y="293.4" class="st5" width="68.6" height="114.5"/>
	</g>
</g>
<g>
	<defs>
		<path id="SVGID_15_" d="M101.3,350.5c0.6,27.1,8,49.2,16.4,49.4c8.4,0.2,14.7-21.6,14.1-48.7c-0.6-27.1-8-49.2-16.4-49.4
			C107,301.6,100.7,323.4,101.3,350.5"/>
	</defs>
	<clipPath id="SVGID_16_">
		<use xlink:href="#SVGID_15_"  style="overflow:visible;"/>
	</clipPath>
	<g class="st6">
		<defs>
			<rect id="SVGID_17_" x="-1080.6" y="-1881.6" width="2561.7" height="6404.2"/>
		</defs>
		<clipPath id="SVGID_18_">
			<use xlink:href="#SVGID_17_"  style="overflow:visible;"/>
		</clipPath>
		<rect x="93.3" y="293.8" class="st7" width="46.5" height="114.1"/>
	</g>
</g>
<g>
	<defs>
		<path id="SVGID_19_" d="M106.7,351.2c0.3,15.8,4.2,28.8,8.6,28.9c4.4,0.1,7.7-12.6,7.4-28.5c-0.3-15.8-4.2-28.8-8.6-28.9
			C109.7,322.7,106.4,335.4,106.7,351.2"/>
	</defs>
	<clipPath id="SVGID_20_">
		<use xlink:href="#SVGID_19_"  style="overflow:visible;"/>
	</clipPath>
	<g class="st8">
		<defs>
			<rect id="SVGID_21_" x="-1080.6" y="-1881.6" width="2561.7" height="6404.2"/>
		</defs>
		<clipPath id="SVGID_22_">
			<use xlink:href="#SVGID_21_"  style="overflow:visible;"/>
		</clipPath>
		<rect x="98.7" y="314.8" class="st9" width="32.1" height="73.4"/>
	</g>
</g>
<g>
	<defs>
		<path id="SVGID_23_" d="M313.4,292.5c7.5,0.2,37.8,22,38.4,48.8c0.5,24.2-2.6,44.7-9,48.2l-35,1.6l2.9-4.8
			c-5.3-7-9.3-24.8-9.8-45.6C300.3,313.9,305.9,292.3,313.4,292.5"/>
	</defs>
	<clipPath id="SVGID_24_">
		<use xlink:href="#SVGID_23_"  style="overflow:visible;"/>
	</clipPath>
	<g class="st10">
		<defs>
			<rect id="SVGID_25_" x="-1080.6" y="-1881.6" width="2561.7" height="6404.2"/>
		</defs>
		<clipPath id="SVGID_26_">
			<use xlink:href="#SVGID_25_"  style="overflow:visible;"/>
		</clipPath>
		<rect x="292.9" y="284.5" class="st11" width="67" height="114.5"/>
	</g>
</g>
<g>
	<defs>
		<path id="SVGID_27_" d="M292.7,342.3c0.6,26.7,7.1,48.6,14.6,48.8c7.5,0.2,13.1-21.3,12.5-48.1c-0.6-26.7-7.1-48.6-14.6-48.8
			C297.7,294,292.1,315.5,292.7,342.3"/>
	</defs>
	<clipPath id="SVGID_28_">
		<use xlink:href="#SVGID_27_"  style="overflow:visible;"/>
	</clipPath>
	<g class="st12">
		<defs>
			<rect id="SVGID_29_" x="-1080.6" y="-1881.6" width="2561.7" height="6404.2"/>
		</defs>
		<clipPath id="SVGID_30_">
			<use xlink:href="#SVGID_29_"  style="overflow:visible;"/>
		</clipPath>
		<rect x="284.6" y="286.2" class="st13" width="43.1" height="112.9"/>
	</g>
</g>
<g>
	<defs>
		<path id="SVGID_31_" d="M23.6,297.1c4.7,0.1,23.6,13.8,24,30.5c0.3,15.1-2.5,27.6-6.5,29.7l-21,1.4l1.8-3
			c-3.3-4.4-5.8-15.5-6.1-28.5C15.4,310.4,18.9,297,23.6,297.1"/>
	</defs>
	<clipPath id="SVGID_32_">
		<use xlink:href="#SVGID_31_"  style="overflow:visible;"/>
	</clipPath>
	<g class="st14">
		<defs>
			<rect id="SVGID_33_" x="-1080.6" y="-1881.6" width="2561.7" height="6404.2"/>
		</defs>
		<clipPath id="SVGID_34_">
			<use xlink:href="#SVGID_33_"  style="overflow:visible;"/>
		</clipPath>
		<rect x="7.7" y="289.1" class="st15" width="47.9" height="77.6"/>
	</g>
</g>
<g>
	<defs>
		<path id="SVGID_35_" d="M10,327c0.4,17.2,4.7,31.5,10.1,31.6c5.4,0.1,9-13.4,8.6-30.7c-0.4-17.2-4.7-31.6-10.1-31.8
			C13.2,296.1,9.6,309.8,10,327"/>
	</defs>
	<clipPath id="SVGID_36_">
		<use xlink:href="#SVGID_35_"  style="overflow:visible;"/>
	</clipPath>
	<g class="st16">
		<defs>
			<rect id="SVGID_37_" x="-1080.6" y="-1881.6" width="2561.7" height="6404.2"/>
		</defs>
		<clipPath id="SVGID_38_">
			<use xlink:href="#SVGID_37_"  style="overflow:visible;"/>
		</clipPath>
		<rect x="2" y="288.3" class="st17" width="34.7" height="78.4"/>
	</g>
</g>
<g>
	<defs>
		<path id="SVGID_39_" d="M12.9,328.3c0.2,9.9,2.6,18,5.4,18.1c2.8,0.1,4.8-7.9,4.6-17.8c-0.2-9.9-2.6-18-5.4-18.1
			C14.7,310.4,12.6,318.4,12.9,328.3"/>
	</defs>
	<clipPath id="SVGID_40_">
		<use xlink:href="#SVGID_39_"  style="overflow:visible;"/>
	</clipPath>
	<g class="st18">
		<defs>
			<rect id="SVGID_41_" x="-1080.6" y="-1881.6" width="2561.7" height="6404.2"/>
		</defs>
		<clipPath id="SVGID_42_">
			<use xlink:href="#SVGID_41_"  style="overflow:visible;"/>
		</clipPath>
		<rect x="4.8" y="302.5" class="st19" width="26.1" height="51.9"/>
	</g>
</g>
<g>
	<defs>
		<path id="SVGID_43_" d="M136.5,308.7c-39.4-69.3-89.1-31.1-135.1-39c12.1-17.9,28.1-40.4,28.5-50.8c0.6-16.7-0.9-39.3,3.6-42.1
			c4.5-2.8,71.3-52.2,105.6-68.2c34.4-16,225.9-10.9,231.7,7.2c5.8,18.1,19.7,111.2,23.3,168.5c2.6,40.9,2.2,44.5,1.8,77.7
			c0,0-195.9,8.2-229.7,8.2c-2.2,0-10.4-2.1-22.3-5.4C143.8,342.2,142.1,319.7,136.5,308.7"/>
	</defs>
	<clipPath id="SVGID_44_">
		<use xlink:href="#SVGID_43_"  style="overflow:visible;"/>
	</clipPath>
	<g class="st20">
		<defs>
			<rect id="SVGID_45_" x="-1080.6" y="-1881.6" width="2561.7" height="6404.2"/>
		</defs>
		<clipPath id="SVGID_46_">
			<use xlink:href="#SVGID_45_"  style="overflow:visible;"/>
		</clipPath>
		<rect x="-6.5" y="91.1" class="st21" width="410.9" height="287.2"/>
	</g>
</g>
<g>
	<defs>
		<path id="SVGID_47_" d="M165.1,267.9c-2-46.5-8.5-124.9-14.3-143c-5.8-18.1-7.4-22.7-41.8-6.7c-28,13.1-86.2,52-109.2,67.5v109.4
			c4.1,1.9,7.5,14.4,7.9,29.4c0,1.7,0,3.3,0,4.8c0.8,0.3,1.6,0.5,2.4,0.8c0-0.5,0-1.1-0.1-1.6c-0.4-18.3,3.4-33,8.6-32.9
			c5.1,0.1,9.6,15.1,10,33.3c0,2.4,0,4.7-0.1,7c21.6,6.8,48.4,15.2,72.6,22.7c-0.1-1.3-0.1-2.7-0.1-4c-0.6-29.4,5.5-53.1,13.8-52.9
			c8.2,0.2,15.4,24.2,16,53.7c0.1,4.3,0,8.4-0.1,12.3c21,6.5,35.8,11,35.8,11S166.9,311.6,165.1,267.9"/>
	</defs>
	<clipPath id="SVGID_48_">
		<use xlink:href="#SVGID_47_"  style="overflow:visible;"/>
	</clipPath>
	<g class="st22">
		<defs>
			<rect id="SVGID_49_" x="-1080.6" y="-1881.6" width="2561.7" height="6404.2"/>
		</defs>
		<clipPath id="SVGID_50_">
			<use xlink:href="#SVGID_49_"  style="overflow:visible;"/>
		</clipPath>
		<rect x="-8.2" y="100.4" class="st23" width="182.6" height="286.4"/>
	</g>
</g>
<g>
	<defs>
		<path id="SVGID_51_" d="M161.2,115c6.9-5.4,197.7-4.2,203.5-2.7c2.3,0.6,4.4,1.7,6.3,3.6c1.5,2.7,2.8,5.9,3.9,9.3
			c2,6.2,4.4,15.9,6.9,29.7c3.3,20.5,7.7,52.5,10.8,97c0.3,5.3,0.7,10.9,1,16.6c0.1,5.1-0.1,14.9-3.1,16.4c-4.1,2-200.6,3.7-209.9-3
			c-9.4-6.6-9.6-12.8-11.3-36.4c-1.7-23.6-6.6-86.8-9.3-100.1C157.2,132.2,154.3,120.4,161.2,115"/>
	</defs>
	<clipPath id="SVGID_52_">
		<use xlink:href="#SVGID_51_"  style="overflow:visible;"/>
	</clipPath>
	<g class="st24">
		<defs>
			<rect id="SVGID_53_" x="-1080.6" y="-1881.6" width="2561.7" height="6404.2"/>
		</defs>
		<clipPath id="SVGID_54_">
			<use xlink:href="#SVGID_53_"  style="overflow:visible;"/>
		</clipPath>
		<rect x="148.9" y="103" class="st25" width="252.6" height="191.7"/>
	</g>
</g>
<g>
	<defs>
		<path id="SVGID_55_" d="M337.8,104.6c0,0-170.8,0-197.1,4.3c-14.4,3.5-140.8,77.1-140.8,77.1l0.3-8.4c0,0,99.2-70.3,133-83.4
			C166.9,81,331,72,337.8,104.6"/>
	</defs>
	<clipPath id="SVGID_56_">
		<use xlink:href="#SVGID_55_"  style="overflow:visible;"/>
	</clipPath>
	<g class="st26">
		<defs>
			<rect id="SVGID_57_" x="-1080.6" y="-1881.6" width="2561.7" height="6404.2"/>
		</defs>
		<clipPath id="SVGID_58_">
			<use xlink:href="#SVGID_57_"  style="overflow:visible;"/>
		</clipPath>
		<rect x="-8.1" y="74.2" class="st27" width="354" height="119.8"/>
	</g>
</g>
<g>
	<defs>
		<path id="SVGID_59_" d="M103.1,323.4c-1.6,8.8-2.4,19.5-2.2,31.3c0,1.3,0.1,2.7,0.1,4c-5.7-1.8-11.5-3.6-17.3-5.4
			c-9.9-75.2-22.4-155.3-51.5-189.1c3.2-2.1,6.4-4.2,9.7-6.3c17.8,24.3,33.7,56,46.2,97.6"/>
	</defs>
	<clipPath id="SVGID_60_">
		<use xlink:href="#SVGID_59_"  style="overflow:visible;"/>
	</clipPath>
	<g class="st28">
		<defs>
			<rect id="SVGID_61_" x="-1080.6" y="-1881.6" width="2561.7" height="6404.2"/>
		</defs>
		<clipPath id="SVGID_62_">
			<use xlink:href="#SVGID_61_"  style="overflow:visible;"/>
		</clipPath>
		<rect x="24.3" y="149.9" class="st29" width="86.9" height="216.9"/>
	</g>
</g>
<g>
	<defs>
		<path id="SVGID_63_" d="M21,171.6c2.5-1.7,5.2-3.4,7.9-5.2c24.8,37.7,31.2,113.7,38.7,181.9c-5.9-1.8-8.1-2.6-13.8-4.4
			C51.2,278.4,44.5,204.4,21,171.6"/>
	</defs>
	<clipPath id="SVGID_64_">
		<use xlink:href="#SVGID_63_"  style="overflow:visible;"/>
	</clipPath>
	<g class="st30">
		<defs>
			<rect id="SVGID_65_" x="-1080.6" y="-1881.6" width="2561.7" height="6404.2"/>
		</defs>
		<clipPath id="SVGID_66_">
			<use xlink:href="#SVGID_65_"  style="overflow:visible;"/>
		</clipPath>
		<rect x="13" y="158.4" class="st31" width="62.6" height="197.9"/>
	</g>
</g>
<g>
	<defs>
		<path id="SVGID_67_" d="M397,341.3c0,0-0.9,2.5-13.9,2.7c-13,0.2-209.8,3.2-216.5-0.5c-0.1,12.4-3.6,33.8-0.4,35.3
			c4,1.8,207-1,216.2-2.3c9.3-1.2,12.7-2.7,13.9-11.3C397.4,356.5,397,341.3,397,341.3"/>
	</defs>
	<clipPath id="SVGID_68_">
		<use xlink:href="#SVGID_67_"  style="overflow:visible;"/>
	</clipPath>
	<g class="st32">
		<defs>
			<rect id="SVGID_69_" x="-1080.6" y="-1881.6" width="2561.7" height="6404.2"/>
		</defs>
		<clipPath id="SVGID_70_">
			<use xlink:href="#SVGID_69_"  style="overflow:visible;"/>
		</clipPath>
		<rect x="156.8" y="333.3" class="st33" width="248.2" height="54.1"/>
	</g>
</g>
<g>
	<defs>
		<path id="SVGID_71_" d="M391.8,242.4c0.2,3.1,0.5,6.3,0.7,9.6c0.3,5.3,0.7,10.9,1,16.6c0.1,5.1-0.1,14.9-3.1,16.4
			c-4.1,2-200.6,3.7-209.9-3c-8.9-6.3-9.6-12.2-11.1-32.9C198.7,230.2,387.8,239,391.8,242.4"/>
	</defs>
	<clipPath id="SVGID_72_">
		<use xlink:href="#SVGID_71_"  style="overflow:visible;"/>
	</clipPath>
	<g class="st34">
		<defs>
			<rect id="SVGID_73_" x="-1080.6" y="-1881.6" width="2561.7" height="6404.2"/>
		</defs>
		<clipPath id="SVGID_74_">
			<use xlink:href="#SVGID_73_"  style="overflow:visible;"/>
		</clipPath>
		<rect x="161.4" y="229.4" class="st35" width="240.1" height="65.4"/>
	</g>
</g>
<g>
	<defs>
		<path id="SVGID_75_" d="M219.3,331c0,0-20.9-4-34.8-14.7c-10.9-8.4-16.8,5.7-14.1,16.4c2.7,10.7,33.4,8.2,43.2,7.4
			C223.6,339.2,225.2,332.4,219.3,331"/>
	</defs>
	<clipPath id="SVGID_76_">
		<use xlink:href="#SVGID_75_"  style="overflow:visible;"/>
	</clipPath>
	<g class="st36">
		<defs>
			<rect id="SVGID_77_" x="-1080.6" y="-1881.6" width="2561.7" height="6404.2"/>
		</defs>
		<clipPath id="SVGID_78_">
			<use xlink:href="#SVGID_77_"  style="overflow:visible;"/>
		</clipPath>
		<rect x="161.8" y="305.7" class="st37" width="68.9" height="43.2"/>
	</g>
</g>
<g>
	<defs>
		<path id="SVGID_79_" d="M3.8,324.6c-0.2-7.9-1.9-14.5-4-16.1v32.4C2.2,340.4,4,333.3,3.8,324.6"/>
	</defs>
	<clipPath id="SVGID_80_">
		<use xlink:href="#SVGID_79_"  style="overflow:visible;"/>
	</clipPath>
	<g class="st38">
		<defs>
			<rect id="SVGID_81_" x="-1080.6" y="-1881.6" width="2561.7" height="6404.2"/>
		</defs>
		<clipPath id="SVGID_82_">
			<use xlink:href="#SVGID_81_"  style="overflow:visible;"/>
		</clipPath>
		<rect x="-8.2" y="300.4" class="st39" width="20" height="48.4"/>
	</g>
</g>
<g>
	<defs>
		<path id="SVGID_83_" d="M7.5,323.6c-0.3-14.6-3.7-26.7-7.7-28.4v56.6c0.1,0,0.2,0.1,0.3,0.1C4.6,352,7.9,339.4,7.5,323.6"/>
	</defs>
	<clipPath id="SVGID_84_">
		<use xlink:href="#SVGID_83_"  style="overflow:visible;"/>
	</clipPath>
	<g class="st40">
		<defs>
			<rect id="SVGID_85_" x="-1080.6" y="-1881.6" width="2561.7" height="6404.2"/>
		</defs>
		<clipPath id="SVGID_86_">
			<use xlink:href="#SVGID_85_"  style="overflow:visible;"/>
		</clipPath>
		<rect x="-8.2" y="287.2" class="st41" width="23.8" height="72.7"/>
	</g>
</g>
</svg>
