<?xml version="1.0" encoding="utf-8"?>
<!-- Generator: Adobe Illustrator 22.0.0, SVG Export Plug-In . SVG Version: 6.00 Build 0)  -->
<svg version="1.1" id="Слой_1" xmlns="http://www.w3.org/2000/svg" xmlns:xlink="http://www.w3.org/1999/xlink" x="0px" y="0px"
	 viewBox="0 0 500 400" style="enable-background:new 0 0 500 400;" xml:space="preserve">
<style type="text/css">
	.st0{clip-path:url(#SVGID_2_);}
	.st1{clip-path:url(#SVGID_4_);fill:#D4E6FD;}
	.st2{clip-path:url(#SVGID_6_);}
	.st3{clip-path:url(#SVGID_8_);fill:#FFFFFF;}
	.st4{clip-path:url(#SVGID_10_);}
	.st5{clip-path:url(#SVGID_12_);fill:#66A0FB;}
	.st6{clip-path:url(#SVGID_14_);}
	.st7{clip-path:url(#SVGID_16_);fill:#D4E6FD;}
	.st8{clip-path:url(#SVGID_18_);}
	.st9{clip-path:url(#SVGID_20_);fill:#66A0FB;}
	.st10{clip-path:url(#SVGID_22_);}
	.st11{clip-path:url(#SVGID_24_);fill:#66A0FB;}
	.st12{clip-path:url(#SVGID_26_);}
	.st13{clip-path:url(#SVGID_28_);fill:#66A0FB;}
	.st14{clip-path:url(#SVGID_30_);}
	.st15{clip-path:url(#SVGID_32_);fill:#66A0FB;}
	.st16{clip-path:url(#SVGID_34_);}
	.st17{clip-path:url(#SVGID_36_);fill:#66A0FB;}
	.st18{clip-path:url(#SVGID_38_);}
	.st19{clip-path:url(#SVGID_40_);fill:#66A0FB;}
	.st20{clip-path:url(#SVGID_42_);}
	.st21{clip-path:url(#SVGID_44_);fill:#66A0FB;}
	.st22{clip-path:url(#SVGID_46_);}
	.st23{clip-path:url(#SVGID_48_);fill:#66A0FB;}
	.st24{clip-path:url(#SVGID_50_);}
	.st25{clip-path:url(#SVGID_52_);fill:#66A0FB;}
	.st26{clip-path:url(#SVGID_54_);}
	.st27{clip-path:url(#SVGID_56_);fill:#66A0FB;}
	.st28{clip-path:url(#SVGID_58_);}
	.st29{clip-path:url(#SVGID_60_);fill:#66A0FB;}
	.st30{clip-path:url(#SVGID_62_);}
	.st31{clip-path:url(#SVGID_64_);fill:#66A0FB;}
</style>
<g>
	<defs>
		<path id="SVGID_1_" d="M229.1,387c-2.2-44.5-4.5-89-6.7-133.5c-0.3-6.7-5.2-15.7-8.4-14.6C148,261,66.4,288,0.4,310v89
			c0.9,0.6,1.9,0.9,3,0.9c67.7-0.1,152.9-0.8,220.6-0.9C227.1,399.1,229.5,393.7,229.1,387"/>
	</defs>
	<clipPath id="SVGID_2_">
		<use xlink:href="#SVGID_1_"  style="overflow:visible;"/>
	</clipPath>
	<g class="st0">
		<defs>
			<rect id="SVGID_3_" x="-348.2" y="-1633.8" width="2311.4" height="5778.5"/>
		</defs>
		<clipPath id="SVGID_4_">
			<use xlink:href="#SVGID_3_"  style="overflow:visible;"/>
		</clipPath>
		<rect x="-6.9" y="231.7" class="st1" width="243.2" height="175.6"/>
	</g>
</g>
<g>
	<defs>
		<path id="SVGID_5_" d="M331.2,201.8c0,0,83-12.8,115.4,30c32.5,42.8,71.6,146.2,36,145.6c-35.6-0.7-58.7,21.5-58.7,21.5
			L331.2,201.8z"/>
	</defs>
	<clipPath id="SVGID_6_">
		<use xlink:href="#SVGID_5_"  style="overflow:visible;"/>
	</clipPath>
	<g class="st2">
		<defs>
			<rect id="SVGID_7_" x="-348.2" y="-1633.8" width="2311.4" height="5778.5"/>
		</defs>
		<clipPath id="SVGID_8_">
			<use xlink:href="#SVGID_7_"  style="overflow:visible;"/>
		</clipPath>
		<rect x="324" y="192.8" class="st3" width="180" height="213.3"/>
	</g>
</g>
<g>
	<defs>
		<path id="SVGID_9_" d="M413.1,375.9l10.8,22.9c0,0,51.9-1.8,65.1-14.4c16.7-15.9,10.8-29.5,4.7-51.6c-25.2,3-74.5,9.7-74.5,9.7
			L413.1,375.9z"/>
	</defs>
	<clipPath id="SVGID_10_">
		<use xlink:href="#SVGID_9_"  style="overflow:visible;"/>
	</clipPath>
	<g class="st4">
		<defs>
			<rect id="SVGID_11_" x="-348.2" y="-1633.8" width="2311.4" height="5778.5"/>
		</defs>
		<clipPath id="SVGID_12_">
			<use xlink:href="#SVGID_11_"  style="overflow:visible;"/>
		</clipPath>
		<rect x="405.9" y="325.6" class="st5" width="101.3" height="80.5"/>
	</g>
</g>
<g>
	<defs>
		<path id="SVGID_13_" d="M423.9,398.9c-68.6,0.1-137.3,0.2-205.9,0.3c-3.2,0-6.2-5.4-6.5-12c-2.3-44.4-4.6-88.8-6.8-133.2
			c-0.3-6.6,2-12.9,5.2-14c37.2-12.2,74.5-24.4,111.7-36.6c19-6.2,44.2,6.1,65.6,37.6c21.3,30.9,38.8,81,41.7,138.5
			c0,0.7,0.1,1.3,0.1,2C429.4,391,427.2,398.9,423.9,398.9"/>
	</defs>
	<clipPath id="SVGID_14_">
		<use xlink:href="#SVGID_13_"  style="overflow:visible;"/>
	</clipPath>
	<g class="st6">
		<defs>
			<rect id="SVGID_15_" x="-348.2" y="-1633.8" width="2311.4" height="5778.5"/>
		</defs>
		<clipPath id="SVGID_16_">
			<use xlink:href="#SVGID_15_"  style="overflow:visible;"/>
		</clipPath>
		<rect x="197.4" y="194.6" class="st7" width="238.8" height="211.8"/>
	</g>
</g>
<g>
	<defs>
		<path id="SVGID_17_" d="M211.5,387.1c0.3,6.6-19.1,12-15.8,12c68.6-0.1,159.6-0.2,228.3-0.3c3.2,0,9.7-6.6,9.3-16.2
			c0-0.7-1.9-2.3-2-3c-0.7-13.1-4.1-26-5.6-38.3c-71.9,6-143.7,12-215.6,18C210.5,368.6,211,377.8,211.5,387.1"/>
	</defs>
	<clipPath id="SVGID_18_">
		<use xlink:href="#SVGID_17_"  style="overflow:visible;"/>
	</clipPath>
	<g class="st8">
		<defs>
			<rect id="SVGID_19_" x="-348.2" y="-1633.8" width="2311.4" height="5778.5"/>
		</defs>
		<clipPath id="SVGID_20_">
			<use xlink:href="#SVGID_19_"  style="overflow:visible;"/>
		</clipPath>
		<rect x="188" y="334.1" class="st9" width="252.4" height="72.3"/>
	</g>
</g>
<g>
	<defs>
		<path id="SVGID_21_" d="M425.7,342.3c-0.3-2.4,0.2,1.4-0.1-1c-0.4-3.4-0.8-6.7-1.2-10v0c-17.8-9.8-56-20.9-84.4-16.9
			c-43.8,6.1-89.9,12.4-133.6,18.5c0.2,3.8,0.5,7.6,0.7,11.4c43.8-5,89.9-10.3,133.7-15.3C370.5,325.4,409.5,335.2,425.7,342.3"/>
	</defs>
	<clipPath id="SVGID_22_">
		<use xlink:href="#SVGID_21_"  style="overflow:visible;"/>
	</clipPath>
	<g class="st10">
		<defs>
			<rect id="SVGID_23_" x="-348.2" y="-1633.8" width="2311.4" height="5778.5"/>
		</defs>
		<clipPath id="SVGID_24_">
			<use xlink:href="#SVGID_23_"  style="overflow:visible;"/>
		</clipPath>
		<rect x="199.1" y="306.4" class="st11" width="233.9" height="45.1"/>
	</g>
</g>
<g>
	<defs>
		<path id="SVGID_25_" d="M343.2,225.3c-39,11-78.1,21.9-117.1,32.9c-1.4,0.4-2.9,0.8-4.3,1.2c-3.6,1-7.1,2-10.7,3
			c-2.3,0.7-4,5.1-3.8,9.9c0.6,12,1.2,24,1.8,36c0.2,4.8,2.4,8.4,4.7,8c3.6-0.6,7.2-1.2,10.8-1.8c1.4-0.2,2.9-0.5,4.3-0.7
			c39.3-6.7,78.5-13.3,117.8-20c2.3-0.4,4-5.8,3.6-12c-0.8-15.5-1.6-30.9-2.4-46.4C347.7,229.2,345.5,224.6,343.2,225.3"/>
	</defs>
	<clipPath id="SVGID_26_">
		<use xlink:href="#SVGID_25_"  style="overflow:visible;"/>
	</clipPath>
	<g class="st12">
		<defs>
			<rect id="SVGID_27_" x="-348.2" y="-1633.8" width="2311.4" height="5778.5"/>
		</defs>
		<clipPath id="SVGID_28_">
			<use xlink:href="#SVGID_27_"  style="overflow:visible;"/>
		</clipPath>
		<rect x="200.1" y="218" class="st13" width="157.5" height="105.6"/>
	</g>
</g>
<g>
	<defs>
		<path id="SVGID_29_" d="M186.7,269.7c-3.4,0.9-6.7,1.9-10.1,2.8c-1.6,0.4-2.7,3.3-2.5,6.3c0.4,7.5,0.8,15,1.2,22.5
			c0.2,3,1.6,5.2,3.1,4.9c3.4-0.7,6.7-1.4,10.1-2.1c1.6-0.3,2.7-3.1,2.5-6.3c-0.4-7.8-0.8-15.6-1.2-23.3
			C189.7,271.5,188.3,269.3,186.7,269.7"/>
	</defs>
	<clipPath id="SVGID_30_">
		<use xlink:href="#SVGID_29_"  style="overflow:visible;"/>
	</clipPath>
	<g class="st14">
		<defs>
			<rect id="SVGID_31_" x="-348.2" y="-1633.8" width="2311.4" height="5778.5"/>
		</defs>
		<clipPath id="SVGID_32_">
			<use xlink:href="#SVGID_31_"  style="overflow:visible;"/>
		</clipPath>
		<rect x="166.9" y="262.5" class="st15" width="31.4" height="51.1"/>
	</g>
</g>
<g>
	<defs>
		<path id="SVGID_33_" d="M366.8,230.5L366.8,230.5c-1.6,0.4-2.7,4.3-2.4,8.5c0.5,10.7,1.1,21.3,1.6,32c0.2,4.3,1.7,7.5,3.2,7.3
			c3.4-0.6,6.8-1.3,10.1-1.9c1.6-0.3,2.7-4.1,2.4-8.5c-0.1-1.5-0.1-2.9-0.2-4.4C380.5,243.4,373.9,228.5,366.8,230.5"/>
	</defs>
	<clipPath id="SVGID_34_">
		<use xlink:href="#SVGID_33_"  style="overflow:visible;"/>
	</clipPath>
	<g class="st16">
		<defs>
			<rect id="SVGID_35_" x="-348.2" y="-1633.8" width="2311.4" height="5778.5"/>
		</defs>
		<clipPath id="SVGID_36_">
			<use xlink:href="#SVGID_35_"  style="overflow:visible;"/>
		</clipPath>
		<rect x="357.1" y="223.1" class="st17" width="31.9" height="62.4"/>
	</g>
</g>
<g>
	<defs>
		<path id="SVGID_37_" d="M396.8,237.1c-2.5-4-0.7-10.9,2.9-10.8l26.7,0.5c8.6,0.2,27.3,25.6,31.9,40.5c4.6,14.9-32,9.3-39.4,9.2
			C412.7,276.4,408.7,256.2,396.8,237.1"/>
	</defs>
	<clipPath id="SVGID_38_">
		<use xlink:href="#SVGID_37_"  style="overflow:visible;"/>
	</clipPath>
	<g class="st18">
		<defs>
			<rect id="SVGID_39_" x="-348.2" y="-1633.8" width="2311.4" height="5778.5"/>
		</defs>
		<clipPath id="SVGID_40_">
			<use xlink:href="#SVGID_39_"  style="overflow:visible;"/>
		</clipPath>
		<rect x="388.4" y="219.1" class="st19" width="77.5" height="65.8"/>
	</g>
</g>
<g>
	<defs>
		<path id="SVGID_41_" d="M424.4,331.3c0,0,56.9,11.6,66.4-7.7l3.1,9.8c0,0-4.1,20.4-68.2,9L424.4,331.3z"/>
	</defs>
	<clipPath id="SVGID_42_">
		<use xlink:href="#SVGID_41_"  style="overflow:visible;"/>
	</clipPath>
	<g class="st20">
		<defs>
			<rect id="SVGID_43_" x="-348.2" y="-1633.8" width="2311.4" height="5778.5"/>
		</defs>
		<clipPath id="SVGID_44_">
			<use xlink:href="#SVGID_43_"  style="overflow:visible;"/>
		</clipPath>
		<rect x="417.2" y="316.4" class="st21" width="84" height="36.7"/>
	</g>
</g>
<g>
	<defs>
		<path id="SVGID_45_" d="M431,307.7c-1-1.2-2.3,0.4-2,2.3c0.8,4.5,1.9,10.6,2.1,13.8c0.3,5.7,8.9,4.1,10.1,0.2
			C442.1,321.2,435.2,312.6,431,307.7"/>
	</defs>
	<clipPath id="SVGID_46_">
		<use xlink:href="#SVGID_45_"  style="overflow:visible;"/>
	</clipPath>
	<g class="st22">
		<defs>
			<rect id="SVGID_47_" x="-348.2" y="-1633.8" width="2311.4" height="5778.5"/>
		</defs>
		<clipPath id="SVGID_48_">
			<use xlink:href="#SVGID_47_"  style="overflow:visible;"/>
		</clipPath>
		<rect x="421.8" y="300" class="st23" width="26.8" height="34.7"/>
	</g>
</g>
<g>
	<defs>
		<path id="SVGID_49_" d="M477.2,304.6c0.4-1.7,1.8-0.9,2.2,0.8c1,4.6,2.6,8.4,2.6,11.5c0,5.3-6.9,6.5-8.3,3.2
			C472.7,317.7,475.1,314.1,477.2,304.6"/>
	</defs>
	<clipPath id="SVGID_50_">
		<use xlink:href="#SVGID_49_"  style="overflow:visible;"/>
	</clipPath>
	<g class="st24">
		<defs>
			<rect id="SVGID_51_" x="-348.2" y="-1633.8" width="2311.4" height="5778.5"/>
		</defs>
		<clipPath id="SVGID_52_">
			<use xlink:href="#SVGID_51_"  style="overflow:visible;"/>
		</clipPath>
		<rect x="466.2" y="296.4" class="st25" width="22.9" height="32.7"/>
	</g>
</g>
<g>
	<defs>
		<path id="SVGID_53_" d="M0,368.8c69.8-8.2,139.7-16.3,209.5-24.4c-0.2-3.8-0.4-7.6-0.6-11.4C139.3,342.8,69.6,352.6,0,362.4V368.8
			z"/>
	</defs>
	<clipPath id="SVGID_54_">
		<use xlink:href="#SVGID_53_"  style="overflow:visible;"/>
	</clipPath>
	<g class="st26">
		<defs>
			<rect id="SVGID_55_" x="-348.2" y="-1633.8" width="2311.4" height="5778.5"/>
		</defs>
		<clipPath id="SVGID_56_">
			<use xlink:href="#SVGID_55_"  style="overflow:visible;"/>
		</clipPath>
		<rect x="-7.2" y="325.7" class="st27" width="223.9" height="50.3"/>
	</g>
</g>
<g>
	<defs>
		<path id="SVGID_57_" d="M240.6,385.6c-0.5-9.3-0.3-19.1-0.7-28.4C169.8,363.1,70.1,371.5,0,377.5v21.3c1,0.7,2.1,1.2,3.3,1.2
			c67.7-0.1,167.8-0.5,235.5-0.6C242.1,399.4,240.9,392.2,240.6,385.6"/>
	</defs>
	<clipPath id="SVGID_58_">
		<use xlink:href="#SVGID_57_"  style="overflow:visible;"/>
	</clipPath>
	<g class="st28">
		<defs>
			<rect id="SVGID_59_" x="-348.2" y="-1633.8" width="2311.4" height="5778.5"/>
		</defs>
		<clipPath id="SVGID_60_">
			<use xlink:href="#SVGID_59_"  style="overflow:visible;"/>
		</clipPath>
		<rect x="-7.2" y="349.9" class="st29" width="255.5" height="57.3"/>
	</g>
</g>
<g>
	<defs>
		<path id="SVGID_61_" d="M159.7,286c-0.2-4.3-2.3-7.4-4.6-6.7c-46.3,13-92.7,26-139,39c-1.4,0.4-2.8,0.8-4.3,1.2
			c-1.5,0.4-6.3,1.6-11.8,2.9v31.8c6.1-1.3,11.8-2.5,13.4-2.7c1.4-0.2,2.9-0.5,4.3-0.7c46.6-7.9,93.2-15.8,139.8-23.7
			c2.3-0.4,4-4.3,3.8-8.6C160.8,307.5,160.3,296.7,159.7,286"/>
	</defs>
	<clipPath id="SVGID_62_">
		<use xlink:href="#SVGID_61_"  style="overflow:visible;"/>
	</clipPath>
	<g class="st30">
		<defs>
			<rect id="SVGID_63_" x="-348.2" y="-1633.8" width="2311.4" height="5778.5"/>
		</defs>
		<clipPath id="SVGID_64_">
			<use xlink:href="#SVGID_63_"  style="overflow:visible;"/>
		</clipPath>
		<rect x="-7.2" y="271.9" class="st31" width="175.8" height="89.4"/>
	</g>
</g>
</svg>
