<?xml version="1.0" encoding="utf-8"?>
<!-- Generator: Adobe Illustrator 22.0.0, SVG Export Plug-In . SVG Version: 6.00 Build 0)  -->
<svg version="1.1" id="Слой_1" xmlns="http://www.w3.org/2000/svg" xmlns:xlink="http://www.w3.org/1999/xlink" x="0px" y="0px"
	 viewBox="0 0 500 400" style="enable-background:new 0 0 500 400;" xml:space="preserve">
<style type="text/css">
	.st0{clip-path:url(#SVGID_2_);}
	.st1{clip-path:url(#SVGID_4_);fill:#444444;}
	.st2{clip-path:url(#SVGID_6_);}
	.st3{clip-path:url(#SVGID_8_);fill:#C9CBCC;}
	.st4{clip-path:url(#SVGID_10_);}
	.st5{clip-path:url(#SVGID_12_);fill:#D4E6FD;}
	.st6{clip-path:url(#SVGID_14_);}
	.st7{clip-path:url(#SVGID_16_);fill:#ACD0FC;}
	.st8{clip-path:url(#SVGID_18_);}
	.st9{clip-path:url(#SVGID_20_);fill:#FFFFFF;}
	.st10{clip-path:url(#SVGID_22_);}
	.st11{clip-path:url(#SVGID_24_);fill:#D4E6FD;}
	.st12{clip-path:url(#SVGID_26_);}
	.st13{clip-path:url(#SVGID_28_);fill:#D4E6FD;}
	.st14{clip-path:url(#SVGID_30_);}
	.st15{clip-path:url(#SVGID_32_);fill:#D4E6FD;}
	.st16{clip-path:url(#SVGID_34_);}
	.st17{clip-path:url(#SVGID_36_);fill:#D4E6FD;}
	.st18{clip-path:url(#SVGID_38_);}
	.st19{clip-path:url(#SVGID_40_);fill:#508BFA;}
	.st20{clip-path:url(#SVGID_42_);}
	.st21{clip-path:url(#SVGID_44_);fill:#508BFA;}
	.st22{clip-path:url(#SVGID_46_);}
	.st23{clip-path:url(#SVGID_48_);fill:#508BFA;}
	.st24{clip-path:url(#SVGID_50_);}
	.st25{clip-path:url(#SVGID_52_);fill:#508BFA;}
	.st26{clip-path:url(#SVGID_54_);}
	.st27{clip-path:url(#SVGID_56_);fill:#D4E6FD;}
	.st28{clip-path:url(#SVGID_58_);}
	.st29{clip-path:url(#SVGID_60_);fill:#508BFA;}
	.st30{clip-path:url(#SVGID_62_);}
	.st31{clip-path:url(#SVGID_64_);enable-background:new    ;}
	.st32{clip-path:url(#SVGID_66_);}
	.st33{clip-path:url(#SVGID_68_);}
	.st34{clip-path:url(#SVGID_70_);fill:#66A0FB;}
</style>
<g>
	<defs>
		<path id="SVGID_1_" d="M451.2,303.1c8.3-4.8,8.3-12.5,0.1-17.3c-8.3-4.8-21.7-4.8-30,0c-8.3,4.8-8.4,12.5-0.1,17.3
			C429.5,307.9,442.9,307.9,451.2,303.1"/>
	</defs>
	<clipPath id="SVGID_2_">
		<use xlink:href="#SVGID_1_"  style="overflow:visible;"/>
	</clipPath>
	<g class="st0">
		<defs>
			<rect id="SVGID_3_" x="-1554.4" y="-1728.1" width="2419.9" height="6049.9"/>
		</defs>
		<clipPath id="SVGID_4_">
			<use xlink:href="#SVGID_3_"  style="overflow:visible;"/>
		</clipPath>
		<rect x="407.5" y="274.6" class="st1" width="57.5" height="39.6"/>
	</g>
</g>
<g>
	<defs>
		<path id="SVGID_5_" d="M436.4,286c-4.9,0-9.7,1.1-13.1,3.1c-2.8,1.6-4.3,3.5-4.3,5.4c0,1.8,1.5,3.7,4.2,5.3
			c3.4,1.9,8.1,3.1,13,3.1c4.9,0,9.7-1.1,13.1-3.1c2.8-1.6,4.3-3.5,4.3-5.4c0-1.8-1.5-3.7-4.2-5.3C446,287.1,441.3,286,436.4,286"/>
	</defs>
	<clipPath id="SVGID_6_">
		<use xlink:href="#SVGID_5_"  style="overflow:visible;"/>
	</clipPath>
	<g class="st2">
		<defs>
			<rect id="SVGID_7_" x="-1554.4" y="-1728.1" width="2419.9" height="6049.9"/>
		</defs>
		<clipPath id="SVGID_8_">
			<use xlink:href="#SVGID_7_"  style="overflow:visible;"/>
		</clipPath>
		<rect x="411.4" y="278.5" class="st3" width="49.8" height="31.9"/>
	</g>
</g>
<g>
	<defs>
		<path id="SVGID_9_" d="M126.1,184.4l24.9-36.5c0,0,58.5-41,119.6,1.2l-29.4,66L126.1,184.4z"/>
	</defs>
	<clipPath id="SVGID_10_">
		<use xlink:href="#SVGID_9_"  style="overflow:visible;"/>
	</clipPath>
	<g class="st4">
		<defs>
			<rect id="SVGID_11_" x="-1554.4" y="-1728.1" width="2419.9" height="6049.9"/>
		</defs>
		<clipPath id="SVGID_12_">
			<use xlink:href="#SVGID_11_"  style="overflow:visible;"/>
		</clipPath>
		<rect x="118.6" y="122.5" class="st5" width="159.6" height="100.2"/>
	</g>
</g>
<g>
	<defs>
		<polygon id="SVGID_13_" points="270.6,149.1 372.5,219 372.5,250 241.1,215.2 		"/>
	</defs>
	<clipPath id="SVGID_14_">
		<use xlink:href="#SVGID_13_"  style="overflow:visible;"/>
	</clipPath>
	<g class="st6">
		<defs>
			<rect id="SVGID_15_" x="-1554.4" y="-1728.1" width="2419.9" height="6049.9"/>
		</defs>
		<clipPath id="SVGID_16_">
			<use xlink:href="#SVGID_15_"  style="overflow:visible;"/>
		</clipPath>
		<rect x="233.6" y="141.6" class="st7" width="146.5" height="116"/>
	</g>
</g>
<g>
	<defs>
		<path id="SVGID_17_" d="M91,226.1l32.9-48.3c0,0,66.3-45.6,135.8,7l-34.3,77.1L91,226.1z"/>
	</defs>
	<clipPath id="SVGID_18_">
		<use xlink:href="#SVGID_17_"  style="overflow:visible;"/>
	</clipPath>
	<g class="st8">
		<defs>
			<rect id="SVGID_19_" x="-1554.4" y="-1728.1" width="2419.9" height="6049.9"/>
		</defs>
		<clipPath id="SVGID_20_">
			<use xlink:href="#SVGID_19_"  style="overflow:visible;"/>
		</clipPath>
		<rect x="83.4" y="151.9" class="st9" width="183.8" height="117.6"/>
	</g>
</g>
<g>
	<defs>
		<polygon id="SVGID_21_" points="259.7,184.8 499.9,309 500.4,366.5 225.4,261.9 		"/>
	</defs>
	<clipPath id="SVGID_22_">
		<use xlink:href="#SVGID_21_"  style="overflow:visible;"/>
	</clipPath>
	<g class="st10">
		<defs>
			<rect id="SVGID_23_" x="-1554.4" y="-1728.1" width="2419.9" height="6049.9"/>
		</defs>
		<clipPath id="SVGID_24_">
			<use xlink:href="#SVGID_23_"  style="overflow:visible;"/>
		</clipPath>
		<rect x="217.8" y="177.2" class="st11" width="290.1" height="196.8"/>
	</g>
</g>
<g>
	<defs>
		<path id="SVGID_25_" d="M121.3,181.6c18.5-10,75.7-34.1,135.3,10.2l-4.9,10.9c-57.4-39.5-111.9-23.1-137-11.5L121.3,181.6z"/>
	</defs>
	<clipPath id="SVGID_26_">
		<use xlink:href="#SVGID_25_"  style="overflow:visible;"/>
	</clipPath>
	<g class="st12">
		<defs>
			<rect id="SVGID_27_" x="-1554.4" y="-1728.1" width="2419.9" height="6049.9"/>
		</defs>
		<clipPath id="SVGID_28_">
			<use xlink:href="#SVGID_27_"  style="overflow:visible;"/>
		</clipPath>
		<rect x="107.2" y="158.5" class="st13" width="157" height="51.8"/>
	</g>
</g>
<g>
	<defs>
		<path id="SVGID_29_" d="M95.6,219.3c19.4-9.8,80.6-34.1,144.8,8.8l-5,11.2c-60,14.5-113.2-23.7-141.8-12.5l-2.7-0.7L95.6,219.3z"
			/>
	</defs>
	<clipPath id="SVGID_30_">
		<use xlink:href="#SVGID_29_"  style="overflow:visible;"/>
	</clipPath>
	<g class="st14">
		<defs>
			<rect id="SVGID_31_" x="-1554.4" y="-1728.1" width="2419.9" height="6049.9"/>
		</defs>
		<clipPath id="SVGID_32_">
			<use xlink:href="#SVGID_31_"  style="overflow:visible;"/>
		</clipPath>
		<rect x="83.4" y="196" class="st15" width="164.6" height="54.2"/>
	</g>
</g>
<g>
	<defs>
		<path id="SVGID_33_" d="M102.1,209.7l6.5-9.5c19.4-10.1,78.3-33.7,139.7,10.2l-4.9,11C184.4,182.3,128.4,198.1,102.1,209.7"/>
	</defs>
	<clipPath id="SVGID_34_">
		<use xlink:href="#SVGID_33_"  style="overflow:visible;"/>
	</clipPath>
	<g class="st16">
		<defs>
			<rect id="SVGID_35_" x="-1554.4" y="-1728.1" width="2419.9" height="6049.9"/>
		</defs>
		<clipPath id="SVGID_36_">
			<use xlink:href="#SVGID_35_"  style="overflow:visible;"/>
		</clipPath>
		<rect x="94.6" y="177.2" class="st17" width="161.3" height="51.8"/>
	</g>
</g>
<g>
	<defs>
		<path id="SVGID_37_" d="M265.6,160.3l-4.4,9.9c-50-31.5-97-18.3-119.7-8.3l5.8-8.6C164.6,144.4,213.7,125.1,265.6,160.3"/>
	</defs>
	<clipPath id="SVGID_38_">
		<use xlink:href="#SVGID_37_"  style="overflow:visible;"/>
	</clipPath>
	<g class="st18">
		<defs>
			<rect id="SVGID_39_" x="-1554.4" y="-1728.1" width="2419.9" height="6049.9"/>
		</defs>
		<clipPath id="SVGID_40_">
			<use xlink:href="#SVGID_39_"  style="overflow:visible;"/>
		</clipPath>
		<rect x="133.9" y="132.4" class="st19" width="139.2" height="45.4"/>
	</g>
</g>
<g>
	<defs>
		<polygon id="SVGID_41_" points="256.6,191.8 251.7,202.8 500.1,330.5 500.1,320.5 		"/>
	</defs>
	<clipPath id="SVGID_42_">
		<use xlink:href="#SVGID_41_"  style="overflow:visible;"/>
	</clipPath>
	<g class="st20">
		<defs>
			<rect id="SVGID_43_" x="-1554.4" y="-1728.1" width="2419.9" height="6049.9"/>
		</defs>
		<clipPath id="SVGID_44_">
			<use xlink:href="#SVGID_43_"  style="overflow:visible;"/>
		</clipPath>
		<rect x="244.1" y="184.3" class="st21" width="263.5" height="153.9"/>
	</g>
</g>
<g>
	<defs>
		<polygon id="SVGID_45_" points="248.3,210.5 243.4,221.4 499.9,348.2 499.9,339.9 		"/>
	</defs>
	<clipPath id="SVGID_46_">
		<use xlink:href="#SVGID_45_"  style="overflow:visible;"/>
	</clipPath>
	<g class="st22">
		<defs>
			<rect id="SVGID_47_" x="-1554.4" y="-1728.1" width="2419.9" height="6049.9"/>
		</defs>
		<clipPath id="SVGID_48_">
			<use xlink:href="#SVGID_47_"  style="overflow:visible;"/>
		</clipPath>
		<rect x="235.8" y="202.9" class="st23" width="271.6" height="152.8"/>
	</g>
</g>
<g>
	<defs>
		<path id="SVGID_49_" d="M140,397.3c0,0,6.1-14.1-15.8-43.6c-21.9-29.5-63.3-78.8-82.5-95.6C22.5,241.3-4.4,220.5,2,212.4
			c6.4-8.1,34-6.7,95.6,2c61.6,8.7,194.6,32.9,247.2,58.7c52.5,25.8,57.2,29,57.2,29l4.4,24.6l93.9,33.4l0.5,39.3L140,397.3z"/>
	</defs>
	<clipPath id="SVGID_50_">
		<use xlink:href="#SVGID_49_"  style="overflow:visible;"/>
	</clipPath>
	<g class="st24">
		<defs>
			<rect id="SVGID_51_" x="-1554.4" y="-1728.1" width="2419.9" height="6049.9"/>
		</defs>
		<clipPath id="SVGID_52_">
			<use xlink:href="#SVGID_51_"  style="overflow:visible;"/>
		</clipPath>
		<rect x="-6.6" y="199.5" class="st25" width="515" height="207.6"/>
	</g>
</g>
<g>
	<defs>
		<path id="SVGID_53_" d="M500.6,367.9L401.4,333l-4.4-24.6c0,0,0.3-1.4-52.2-27.2c-52.5-25.8-185.6-50-247.2-58.7
			c-60.3-8.5-88.1-10-95.2-2.5c-1.6-3-1.9-5.6-0.4-7.5c6.4-8.1,34-6.7,95.6,2c61.6,8.7,194.7,32.9,247.2,58.7
			c52.5,25.8,57.2,29,57.2,29l4.4,24.6l93.9,33.7L500.6,367.9z"/>
	</defs>
	<clipPath id="SVGID_54_">
		<use xlink:href="#SVGID_53_"  style="overflow:visible;"/>
	</clipPath>
	<g class="st26">
		<defs>
			<rect id="SVGID_55_" x="-1554.4" y="-1728.1" width="2419.9" height="6049.9"/>
		</defs>
		<clipPath id="SVGID_56_">
			<use xlink:href="#SVGID_55_"  style="overflow:visible;"/>
		</clipPath>
		<rect x="-6.6" y="199.5" class="st27" width="514.7" height="176"/>
	</g>
</g>
<g>
	<defs>
		<polygon id="SVGID_57_" points="266.4,160.5 373.8,228.8 373.8,239.5 262,170.4 		"/>
	</defs>
	<clipPath id="SVGID_58_">
		<use xlink:href="#SVGID_57_"  style="overflow:visible;"/>
	</clipPath>
	<g class="st28">
		<defs>
			<rect id="SVGID_59_" x="-1554.4" y="-1728.1" width="2419.9" height="6049.9"/>
		</defs>
		<clipPath id="SVGID_60_">
			<use xlink:href="#SVGID_59_"  style="overflow:visible;"/>
		</clipPath>
		<rect x="254.5" y="152.9" class="st29" width="126.9" height="94.1"/>
	</g>
</g>
<g>
	<defs>
		<rect id="SVGID_61_" x="87.6" y="306.2" width="413.3" height="94"/>
	</defs>
	<clipPath id="SVGID_62_">
		<use xlink:href="#SVGID_61_"  style="overflow:visible;"/>
	</clipPath>
	<g class="st30">
		<defs>
			<rect id="SVGID_63_" x="-1554.4" y="-1728.1" width="2419.9" height="6049.9"/>
		</defs>
		<clipPath id="SVGID_64_">
			<use xlink:href="#SVGID_63_"  style="overflow:visible;"/>
		</clipPath>
		<g class="st31">
			<g>
				<defs>
					<rect id="SVGID_65_" x="86.6" y="306.1" width="414.4" height="95.3"/>
				</defs>
				<clipPath id="SVGID_66_">
					<use xlink:href="#SVGID_65_"  style="overflow:visible;"/>
				</clipPath>
				<g class="st32">
					<defs>
						<path id="SVGID_67_" d="M499.7,376.7l1.2,24.1l-380.3-1.3c0,0,23-24.1-33.8-93.2L499.7,376.7z"/>
					</defs>
					<clipPath id="SVGID_68_">
						<use xlink:href="#SVGID_67_"  style="overflow:visible;"/>
					</clipPath>
					<g class="st33">
						<defs>
							<rect id="SVGID_69_" x="86.6" y="306.1" width="414.4" height="95.3"/>
						</defs>
						<clipPath id="SVGID_70_">
							<use xlink:href="#SVGID_69_"  style="overflow:visible;"/>
						</clipPath>
						<rect x="79.4" y="298.6" class="st34" width="429.2" height="109.7"/>
					</g>
				</g>
			</g>
		</g>
	</g>
</g>
</svg>
