<?xml version="1.0" encoding="utf-8"?>
<!-- Generator: Adobe Illustrator 22.0.0, SVG Export Plug-In . SVG Version: 6.00 Build 0)  -->
<svg version="1.1" id="Слой_1" xmlns="http://www.w3.org/2000/svg" xmlns:xlink="http://www.w3.org/1999/xlink" x="0px" y="0px"
	 viewBox="0 0 500 400" style="enable-background:new 0 0 500 400;" xml:space="preserve">
<style type="text/css">
	.st0{fill:#CEE8FF;}
	.st1{fill:#66A0FB;}
</style>
<rect x="9" y="334" transform="matrix(0.9991 4.229089e-02 -4.229089e-02 0.9991 14.6578 -3.8786)" class="st0" width="180" height="21"/>
<path class="st0" d="M45.6,207c-3.7,3.9-8.7,6.9-11.6,12c-11,11-2,28-9,41c-1.9,2.3-4.4,3.6-6.9,4.7c-0.4,2.7-1.9,4.9-4.3,6.5
	l-0.7,35l156,3.2l2.1-99.8L45.6,207z"/>
<path class="st0" d="M24.9,284.2l-15.5-3.8L4,302.6l13,3.1c2.9-0.1,5.9,0,8.8,0.1l3.6-14.9C28.2,288.7,26.6,286.5,24.9,284.2z"/>
<rect x="167" y="280" class="st0" width="78" height="28"/>
<rect x="116" y="272" class="st0" width="1" height="2"/>
<g>
	<g>
		<g>
			<path class="st1" d="M362.6,294.1c-0.5-6-11.7-5.6-11.7-5.6l-60.1,2.2c-0.4-1.8-2.6-9.4-2.6-9.4s40.5-0.2,57.5-1.4
				c17-1.2,15.3-10.5,15.3-10.5s2-76.6,1.6-91.2c-0.4-14.6-3.8-69.9-5.1-81.3c-1.4-11.5-1.4-25.9-12.9-30.1
				c-11.5-4.2-23.5-6.9-32.1-7.7c-8.5-0.8-76.8,0-104.5,4.7c-27.7,4.7-43.7,8.7-52.4,25.5c-8.7,16.8-13.9,15.4-13.9,15.4
				c-6.5,1-28.3,6.3-32.3,8.3c-4,2-10.3,9.3-11.9,15.8c-1.6,6.5,3.2,5.5,3.2,5.5c-8.9,18-11.4,43.3-11.4,43.3
				c-5.1,1.4-10.2,3.5-15.1,5.8V157c0-1.7-1.3-3-3-3h-8c-1.7,0-3,1.3-3,3v33.5c0,0.3,0,0.5,0.1,0.8c-7.8,4.9-13.1,9-13.1,9
				c-7.1,6.4-11.8,13.4-15,20.4c4.5-5.6,11.4-8.4,34.5-8.8c28.2-0.5,53.5-2.5,81.2,0c27.7,2.5,22.2,16.3,22.2,25.3
				c0,9-5.5,48.3-11.1,61.9c-2.4,5.9-2.5,8.8-4.1,10.3c17.3,2.1,91.7-1,91.7-1c2.7-11.4,3.6-13.6,5.6-19.8c2-6.2,18.2-32.3,30.8-4.2
				c12.3,27.5,8,67.1,8,67.1c4-0.2,17-2.2,17-2.2s33.9-10,44.9-13.2c11-3.2,9.7-9.2,9.7-9.2S363.1,300.1,362.6,294.1z M342,156.3
				c0,0,0.1-2.1,2.1-1.1c2,1,7.1,4,7.1,4s1.3,0.8,1.3,4.6c0,3.8,0,29.7,0,29.7s0.2,2.7-2.8,2.7c-3,0-4.3-0.4-5.7-0.9
				c-1.3-0.5-1.6-0.7-2.1-5C341.5,185.9,342,156.3,342,156.3z M299.3,135.5c2.6,1,8.8,4.3,8.8,4.3s1.9,1.9,2,6.1
				c0.1,4.2,0,7.2,0,7.2h-13l0-4.7v-11.1C297.1,137.3,296.7,134.5,299.3,135.5z M244.1,291.2c-1.4,7.4-5.9,15.7-19.2,15.3
				c-13.3-0.4-60.1,4.4-55.4-6.8c0,0,2.1-8.7,17.6-11.9c15.5-3.2,50.3-3.5,50.3-3.5S245.5,283.8,244.1,291.2z M269.6,172.7
				c0,0-150.5-1.9-177.6,4.6c0,0,2.6-34.3,14.6-48.7c0,0,155.1-14.1,179.5-4.9C286,123.8,273.7,159.9,269.6,172.7z M280.2,195.7
				c-1.7-20.4,1.1-31.2,6.6-48.6c5.5-17.4,8.4-13,8.4-13l-1,43.1C294.3,205.6,280.2,195.7,280.2,195.7z"/>
			<path class="st1" d="M25.9,254.9c-8.6,5.2-14,16.7-17.3,27.5c3.5,0,15.3,0.2,17.6,5.4c2.7,6.1,1.9,13.3-2,14.2
				c-3.4,0.8-16.4-0.4-19.8-0.7c-0.5,3-0.6,4.8-0.6,4.8l31.9,0.6c-3.2-3.6-7.8-14-9.4-43.2C26.2,263.5,26,260,25.9,254.9z"/>
			<path class="st1" d="M366.8,178.2c0.4,14.6-1.6,91.2-1.6,91.2s0.5,2.4-1.3,4.9l15.4,0.3V68.4L354,70c6.3,6.1,6.5,17.5,7.6,26.8
				C363.1,108.3,366.4,163.5,366.8,178.2z"/>
			<path class="st1" d="M39.3,300.6h16c1.7,0,3-1.3,3-3v-67.3c0-1.7-1.3-3-3-3h-16c-1.7,0-3,1.3-3,3v67.3
				C36.3,299.3,37.6,300.6,39.3,300.6z"/>
			<path class="st1" d="M129.4,300.6h20.8c1.7,0,3-1.3,3-3v-67.3c0-1.7-1.3-3-3-3h-20.8c-1.7,0-3,1.3-3,3v67.3
				C126.4,299.3,127.7,300.6,129.4,300.6z"/>
			<path class="st1" d="M64.4,300.6h21.9c1.7,0,3-1.3,3-3v-67.3c0-1.7-1.3-3-3-3H64.4c-1.7,0-3,1.3-3,3v67.3
				C61.4,299.3,62.8,300.6,64.4,300.6z"/>
			<path class="st1" d="M96.5,300.6h21.9c1.7,0,3-1.3,3-3v-67.3c0-1.7-1.3-3-3-3H96.5c-1.7,0-3,1.3-3,3v67.3
				C93.5,299.3,94.9,300.6,96.5,300.6z"/>
			<path class="st1" d="M203,315.7c-7.1,0-110.4-2.4-141.6-3.4c-31.2-1.1-60.5-3.2-60.5-3.2c-1.3,6.3-0.8,42.3-0.8,42.3
				c2.5,1.5,13,2.8,26.1,3.8c3.7,26.1,16.5,45.3,31.6,45.3c14.5,0,26.8-17.6,31.1-42c2.9,0.1,4.5,0.1,4.5,0.1s92.6,2.6,105.7,2.6
				s22.9-1.6,22.9-1.6l22.9-1.2c-2.1-22.2,1.4-46,1.4-46C244.1,312.8,210.1,315.7,203,315.7z M36.8,334.2l17.8,0.8
				c1.9,0.1,3.3,1.7,3.2,3.5l-0.4,9.5c-0.1,1.9-1.7,3.3-3.5,3.2l-17.8-0.8c-1.9-0.1-3.3-1.7-3.2-3.5l0.4-9.5
				C33.4,335.5,35,334.1,36.8,334.2z M22.8,349.1l-10-0.6c-1.7-0.1-2.9-1.5-2.8-3.2l0.6-9.7c0.1-1.7,1.5-2.9,3.2-2.8l10,0.6
				c1.7,0.1,2.9,1.5,2.8,3.2l-0.6,9.7C25.9,347.9,24.4,349.2,22.8,349.1z M113.8,350.6c-0.1,1.9-1.6,3.4-3.5,3.3l-42.4-1.2
				c-1.9-0.1-3.4-1.6-3.3-3.5l0.3-10.3c0.1-1.9,1.6-3.4,3.5-3.3l42.4,1.2c1.9,0.1,3.4,1.6,3.3,3.5L113.8,350.6z M149.4,353
				c-0.1,2.1-1.8,3.8-4,3.8l-20.3-0.5c-2.1-0.1-3.8-1.8-3.8-4l0.3-10.8c0.1-2.1,1.8-3.8,4-3.8l20.3,0.5c2.1,0.1,3.8,1.8,3.8,4
				L149.4,353z M185.1,353.7c0,1.9-1.5,3.4-3.4,3.4h-18.4c-1.9,0-3.4-1.5-3.4-3.4v-10.9c0-1.9,1.5-3.4,3.4-3.4h18.4
				c1.9,0,3.4,1.5,3.4,3.4V353.7z"/>
			<path class="st1" d="M268.1,278.2c-10.7,0-19.5,27.4-19.5,61.1c0,33.8,8.7,61.1,19.5,61.1c10.7,0,19.5-27.4,19.5-61.1
				C287.5,305.6,278.8,278.2,268.1,278.2z"/>
			<ellipse class="st1" cx="384.3" cy="316" rx="8.3" ry="37.4"/>
			<path class="st1" d="M403.1,277.9c-4.1,0-7.5,15-7.5,33.6c0,18.6,3.3,33.6,7.5,33.6c4.1,0,7.5-15,7.5-33.6
				C410.6,292.9,407.3,277.9,403.1,277.9z"/>
			<path class="st1" d="M477.8,280c-1.8,0-3.3,8.4-3.3,18.7c0,10.3,1.5,18.7,3.3,18.7c1.8,0,3.3-8.4,3.3-18.7
				C481.1,288.4,479.6,280,477.8,280z"/>
			<path class="st1" d="M484.5,280c-1,0-1.9,7.7-1.9,17.3c0,9.5,0.9,17.3,1.9,17.3c1.1,0,1.9-7.7,1.9-17.3
				C486.4,287.7,485.6,280,484.5,280z"/>
			<polygon class="st1" points="383.1,68.4 383.1,274.6 500.1,278.6 500.1,179.9 			"/>
			<path class="st1" d="M415.6,308.4l56.3-12.1c0,0-0.2-2.5,0.1-5.1c0.2-1.9,0.5-4.5,0.5-4.5l-58.8,2
				C414.9,294.8,415.6,308.4,415.6,308.4z"/>
		</g>
	</g>
</g>
</svg>
